<svg width="657" height="285" viewBox="0 0 657 285" fill="none" xmlns="http://www.w3.org/2000/svg">
<path d="M249.572 33.851C306.621 33.851 330.896 66.9267 330.896 144.306C330.896 206.513 295.089 252.333 250.482 252.333C200.717 252.333 169.766 213.795 169.766 155.534C169.766 126.706 193.434 112.444 234.399 112.444C265.958 112.444 290.841 128.223 290.841 147.948C290.84 160.085 270.206 173.133 248.055 173.133C240.469 173.133 237.131 169.491 237.131 164.94C237.131 153.106 255.338 143.092 255.338 132.471C255.338 127.616 251.696 125.492 244.717 125.492C221.958 125.492 184.938 154.32 184.938 172.223C184.938 186.485 206.483 196.498 248.055 196.498C289.627 196.498 314.813 179.202 314.813 143.396C314.813 107.589 289.324 88.4711 247.448 88.4711C220.441 88.4711 203.145 94.8435 185.545 104.25C175.835 109.409 171.282 106.982 171.282 98.7885C171.282 62.0713 199.503 33.851 249.572 33.851Z" fill="white"></path>
<path d="M451.062 36.8851C468.965 36.8851 478.069 46.292 478.069 66.016C478.069 96.3608 467.145 115.175 439.531 132.168C422.538 142.486 416.469 150.071 416.469 158.871C416.469 167.671 422.538 173.437 432.855 173.437C451.972 173.437 456.221 151.286 466.538 151.286C471.393 151.286 474.124 153.713 475.034 162.816C477.158 189.519 484.745 209.547 496.579 230.485C500.22 237.161 502.345 241.713 502.345 244.747C502.345 249.299 498.399 252.333 492.938 252.333C453.793 252.333 391.89 174.044 391.89 128.223C391.89 120.637 394.924 116.388 400.689 116.388C408.883 116.388 412.828 123.975 423.752 123.975C432.855 123.975 439.228 118.209 439.228 109.712C439.227 96.6643 426.179 88.4711 405.545 88.4711C381.876 88.4711 369.738 101.216 369.738 127.313C369.738 153.409 380.965 181.63 401.903 210.457C412.524 225.023 418.29 235.037 418.29 242.32C418.29 246.871 415.559 249.299 410.097 249.299C397.959 249.299 387.945 246.871 373.683 246.871C360.938 246.871 350.924 249.299 339.696 249.299C335.448 249.299 333.021 246.871 333.021 242.016C333.021 225.63 353.959 189.52 353.959 137.63C353.959 97.5751 342.73 68.7472 342.73 48.1127C342.73 39.9197 346.979 36.8852 355.172 36.8851C368.22 36.8851 383.697 39.3129 404.635 39.3129C423.448 39.3128 434.372 36.8852 451.062 36.8851Z" fill="white"></path>
<path d="M618.565 32.3334C622.51 32.3334 624.635 34.7614 624.635 39.6166C624.635 50.2374 620.386 69.3542 614.924 83.0092C610.979 92.4161 606.124 96.6644 595.807 96.6644C578.814 96.6644 561.517 89.685 540.883 89.6849C522.069 89.6849 508.717 103.947 508.717 125.492C508.717 134.292 510.841 138.54 514.786 138.54C518.427 138.54 519.945 136.72 522.676 128.223C526.014 117.906 531.476 113.354 539.973 113.354C554.234 113.354 567.282 123.367 579.724 123.368C583.061 123.368 585.186 122.154 587.917 119.727C590.648 117.3 592.165 116.692 594.289 116.692C597.627 116.692 599.448 119.423 599.448 123.975C599.448 141.575 585.49 162.209 572.745 162.209C555.752 162.209 542.4 148.858 525.71 148.858C517.517 148.858 511.752 154.32 511.752 163.423C511.752 183.147 530.262 196.498 557.876 196.498C572.441 196.498 584.883 189.823 591.255 181.023C595.807 174.347 598.538 171.919 601.572 171.919C605.821 171.919 608.855 174.651 609.158 182.237C610.069 199.23 614.621 217.741 622.207 234.734C627.972 247.478 621.599 252.333 595.807 252.333C523.586 252.333 493.241 214.099 493.241 123.671C493.241 62.6783 508.414 36.8852 539.365 36.8851C558.482 36.8851 573.959 41.4369 593.076 41.4369C608.248 41.4367 610.372 32.3334 618.565 32.3334Z" fill="white"></path>
<path d="M142.759 36.8851C148.524 36.8852 150.951 39.0092 150.951 43.2572C150.951 51.1469 142.758 60.5543 116.055 84.5267C82.9791 113.961 67.8066 140.361 67.8066 170.099C67.8067 190.733 75.6964 198.623 98.1514 198.623C122.427 198.623 134.565 191.644 134.565 172.223C134.565 166.761 130.62 160.995 125.158 160.995C118.786 160.996 115.751 164.94 109.683 164.94C103.614 164.94 99.9727 160.085 99.9727 152.196C99.9727 133.079 119.089 106.982 131.834 106.982C136.386 106.982 138.51 109.713 139.117 116.388C143.365 163.726 152.165 200.747 167.034 226.54C171.586 234.43 173.71 237.768 173.71 242.016C173.71 246.871 170.676 249.299 164 249.299C143.669 249.299 125.159 246.871 99.6689 246.871C74.1794 246.871 57.4897 249.299 41.1035 249.299C34.7312 249.299 32 247.175 32 242.32C32 223.809 52.9375 181.933 52.9375 140.664C52.9375 96.3611 33.8204 64.1956 33.8203 45.9886C33.8203 40.5267 37.7653 36.8852 42.9238 36.8851C51.4204 36.8851 74.1794 39.3129 92.9932 39.3129C114.538 39.3129 130.621 36.8851 142.759 36.8851Z" fill="white"></path>
</svg>