<svg width="657" height="285" viewBox="0 0 657 285" fill="none" xmlns="http://www.w3.org/2000/svg">
<path d="M249.572 34.1843C306.621 34.1843 330.896 67.2601 330.896 144.639C330.896 206.846 295.089 252.667 250.482 252.667C200.717 252.667 169.766 214.129 169.766 155.867C169.766 127.039 193.434 112.777 234.399 112.777C265.958 112.777 290.841 128.557 290.841 148.281C290.84 160.419 270.206 173.467 248.055 173.467C240.469 173.466 237.131 169.825 237.131 165.273C237.131 153.439 255.338 143.425 255.338 132.804C255.338 127.949 251.696 125.825 244.717 125.825C221.958 125.825 184.938 154.653 184.938 172.556C184.938 186.818 206.483 196.832 248.055 196.832C289.627 196.832 314.813 179.536 314.813 143.729C314.813 107.922 289.324 88.8045 247.448 88.8044C220.441 88.8044 203.145 95.1769 185.545 104.584C175.835 109.742 171.282 107.315 171.282 99.1218C171.282 62.4046 199.503 34.1843 249.572 34.1843Z" fill="#97B600"></path>
<path d="M451.062 37.2185C468.965 37.2185 478.069 46.6253 478.069 66.3494C478.069 96.6942 467.145 115.509 439.531 132.502C422.538 142.819 416.469 150.405 416.469 159.205C416.469 168.005 422.538 173.77 432.855 173.77C451.972 173.77 456.221 151.619 466.538 151.619C471.393 151.619 474.124 154.046 475.034 163.149C477.158 189.852 484.745 209.88 496.579 230.818C500.22 237.494 502.345 242.046 502.345 245.081C502.345 249.632 498.399 252.667 492.938 252.667C453.793 252.666 391.89 174.377 391.89 128.556C391.89 120.97 394.924 116.721 400.689 116.721C408.883 116.721 412.828 124.308 423.752 124.308C432.855 124.308 439.228 118.542 439.228 110.046C439.227 96.9977 426.179 88.8045 405.545 88.8044C381.876 88.8044 369.738 101.55 369.738 127.646C369.738 153.743 380.965 181.963 401.903 210.791C412.524 225.356 418.29 235.37 418.29 242.653C418.29 247.205 415.559 249.633 410.097 249.633C397.959 249.633 387.945 247.205 373.683 247.205C360.938 247.205 350.924 249.633 339.696 249.633C335.448 249.633 333.021 247.204 333.021 242.349C333.021 225.963 353.959 189.853 353.959 137.964C353.959 97.9085 342.73 69.0805 342.73 48.446C342.73 40.2531 346.979 37.2186 355.172 37.2185C368.22 37.2185 383.697 39.6462 404.635 39.6462C423.448 39.6462 434.372 37.2186 451.062 37.2185Z" fill="#97B600"></path>
<path d="M618.565 32.6667C622.51 32.6668 624.635 35.0948 624.635 39.95C624.635 50.5707 620.386 69.6875 614.924 83.3425C610.979 92.7494 606.124 96.9978 595.807 96.9978C578.814 96.9978 561.517 90.0183 540.883 90.0183C522.069 90.0183 508.717 104.28 508.717 125.825C508.717 134.625 510.841 138.874 514.786 138.874C518.427 138.874 519.945 137.053 522.676 128.556C526.014 118.239 531.476 113.687 539.973 113.687C554.234 113.687 567.282 123.701 579.724 123.701C583.061 123.701 585.186 122.488 587.917 120.06C590.648 117.633 592.165 117.025 594.289 117.025C597.627 117.025 599.448 119.757 599.448 124.308C599.448 141.908 585.49 162.542 572.745 162.543C555.752 162.543 542.4 149.191 525.71 149.191C517.517 149.191 511.752 154.653 511.752 163.757C511.752 183.481 530.262 196.832 557.876 196.832C572.441 196.832 584.883 190.156 591.255 181.356C595.807 174.68 598.538 172.253 601.572 172.253C605.821 172.253 608.855 174.984 609.158 182.57C610.069 199.563 614.621 218.074 622.207 235.067C627.972 247.812 621.599 252.667 595.807 252.667C523.586 252.667 493.241 214.432 493.241 124.005C493.241 63.0117 508.414 37.2186 539.365 37.2185C558.482 37.2185 573.959 41.7703 593.076 41.7703C608.248 41.7701 610.372 32.6667 618.565 32.6667Z" fill="#97B600"></path>
<path d="M142.759 37.2185C148.524 37.2186 150.951 39.3426 150.951 43.5906C150.951 51.4802 142.758 60.8877 116.055 84.8601C82.9791 114.294 67.8066 140.695 67.8066 170.432C67.8067 191.067 75.6964 198.957 98.1514 198.957C122.427 198.957 134.565 191.977 134.565 172.556C134.565 167.094 130.62 161.329 125.158 161.329C118.786 161.329 115.751 165.273 109.683 165.273C103.614 165.273 99.9727 160.419 99.9727 152.529C99.9727 133.412 119.089 107.316 131.834 107.315C136.386 107.315 138.51 110.046 139.117 116.721C143.365 164.059 152.165 201.081 167.034 226.874C171.586 234.763 173.71 238.101 173.71 242.349C173.71 247.205 170.676 249.633 164 249.633C143.669 249.633 125.159 247.205 99.6689 247.205C74.1794 247.205 57.4897 249.633 41.1035 249.633C34.7312 249.633 32 247.508 32 242.653C32 224.143 52.9375 182.267 52.9375 140.998C52.9375 96.6944 33.8204 64.5289 33.8203 46.322C33.8203 40.86 37.7653 37.2186 42.9238 37.2185C51.4204 37.2185 74.1794 39.6462 92.9932 39.6462C114.538 39.6462 130.621 37.2185 142.759 37.2185Z" fill="#97B600"></path>
</svg>