<svg xmlns="http://www.w3.org/2000/svg" width="1500" height="500" viewBox="0 0 1500 500">
<defs>
<linearGradient id="bg2" x1="0" y1="0" x2="0.8" y2="1">
      <stop offset="0" stop-color="#16170F"/>
      <stop offset="0.55" stop-color="#101108"/>
      <stop offset="1" stop-color="#08090A"/></linearGradient>
<radialGradient id="glow2" cx="0.30" cy="0.5" r="0.7">
      <stop offset="0" stop-color="#D4F24B" stop-opacity="0.08"/>
      <stop offset="1" stop-color="#D4F24B" stop-opacity="0"/></radialGradient>
<linearGradient id="flow2" x1="0" y1="0" x2="1" y2="0">
      <stop offset="0" stop-color="#56730D"/>
      <stop offset="0.5" stop-color="#9BBD1C"/>
      <stop offset="1" stop-color="#D4F24B"/></linearGradient>
<linearGradient id="v2" x1="0" y1="0" x2="0" y2="1">
      <stop offset="0" stop-color="#08090A" stop-opacity="0.5"/>
      <stop offset="0.2" stop-color="#08090A" stop-opacity="0"/>
      <stop offset="0.8" stop-color="#08090A" stop-opacity="0"/>
      <stop offset="1" stop-color="#08090A" stop-opacity="0.5"/></linearGradient>
</defs>
<rect width="1500" height="500" fill="url(#bg2)"/>
<rect width="1500" height="500" fill="url(#glow2)"/>
<g stroke="#D4F24B" stroke-opacity="0.035" stroke-width="1"><line x1="60" y1="0" x2="60" y2="500"/><line x1="120" y1="0" x2="120" y2="500"/><line x1="180" y1="0" x2="180" y2="500"/><line x1="240" y1="0" x2="240" y2="500"/><line x1="300" y1="0" x2="300" y2="500"/><line x1="360" y1="0" x2="360" y2="500"/><line x1="420" y1="0" x2="420" y2="500"/><line x1="480" y1="0" x2="480" y2="500"/><line x1="540" y1="0" x2="540" y2="500"/><line x1="600" y1="0" x2="600" y2="500"/><line x1="660" y1="0" x2="660" y2="500"/><line x1="720" y1="0" x2="720" y2="500"/><line x1="780" y1="0" x2="780" y2="500"/><line x1="840" y1="0" x2="840" y2="500"/><line x1="900" y1="0" x2="900" y2="500"/><line x1="960" y1="0" x2="960" y2="500"/><line x1="1020" y1="0" x2="1020" y2="500"/><line x1="1080" y1="0" x2="1080" y2="500"/><line x1="1140" y1="0" x2="1140" y2="500"/><line x1="1200" y1="0" x2="1200" y2="500"/><line x1="1260" y1="0" x2="1260" y2="500"/><line x1="1320" y1="0" x2="1320" y2="500"/><line x1="1380" y1="0" x2="1380" y2="500"/><line x1="1440" y1="0" x2="1440" y2="500"/><line x1="0" y1="60" x2="1500" y2="60"/><line x1="0" y1="120" x2="1500" y2="120"/><line x1="0" y1="180" x2="1500" y2="180"/><line x1="0" y1="240" x2="1500" y2="240"/><line x1="0" y1="300" x2="1500" y2="300"/><line x1="0" y1="360" x2="1500" y2="360"/><line x1="0" y1="420" x2="1500" y2="420"/><line x1="0" y1="480" x2="1500" y2="480"/></g>
<path d="M -80.0,120.2 C -70.0,123.8 -40.0,134.4 -20.0,142.0 C 0.0,149.6 20.0,158.5 40.0,165.8 C 60.0,173.1 80.0,180.5 100.0,185.6 C 120.0,190.6 140.0,194.7 160.0,196.1 C 180.0,197.6 200.0,197.1 220.0,194.5 C 240.0,192.0 260.0,186.9 280.0,180.8 C 300.0,174.7 320.0,166.2 340.0,157.8 C 360.0,149.5 380.0,139.4 400.0,130.8 C 420.0,122.1 440.0,112.8 460.0,105.8 C 480.0,98.8 500.0,92.4 520.0,88.5 C 540.0,84.7 560.0,82.6 580.0,82.7 C 600.0,82.9 620.0,85.4 640.0,89.4 C 660.0,93.4 680.0,99.9 700.0,106.6 C 720.0,113.3 740.0,122.0 760.0,129.7 C 780.0,137.4 800.0,146.2 820.0,152.9 C 840.0,159.6 860.0,166.1 880.0,170.1 C 900.0,174.0 920.0,176.6 940.0,176.8 C 960.0,176.9 980.0,174.8 1000.0,171.0 C 1020.0,167.1 1040.0,160.7 1060.0,153.7 C 1080.0,146.6 1100.0,137.4 1120.0,128.7 C 1140.0,120.0 1160.0,110.0 1180.0,101.6 C 1200.0,93.3 1220.0,84.8 1240.0,78.7 C 1260.0,72.6 1280.0,67.5 1300.0,64.9 C 1320.0,62.4 1340.0,61.8 1360.0,63.3 C 1380.0,64.8 1400.0,68.8 1420.0,73.9 C 1440.0,78.9 1460.0,86.4 1480.0,93.6 C 1500.0,100.9 1530.0,113.5 1540.0,117.5 " fill="none" stroke="url(#flow2)" stroke-width="2.2" stroke-opacity="0.95" stroke-linecap="round"/>
<path d="M -80.0,209.2 C -70.0,213.2 -40.0,226.2 -20.0,233.0 C 0.0,239.9 20.0,246.4 40.0,250.2 C 60.0,254.1 80.0,256.4 100.0,256.3 C 120.0,256.1 140.0,253.6 160.0,249.3 C 180.0,245.0 200.0,238.1 220.0,230.6 C 240.0,223.1 260.0,213.4 280.0,204.4 C 300.0,195.3 320.0,185.0 340.0,176.4 C 360.0,167.9 380.0,159.3 400.0,153.2 C 420.0,147.1 440.0,142.2 460.0,139.9 C 480.0,137.6 500.0,137.4 520.0,139.3 C 540.0,141.2 560.0,145.7 580.0,151.2 C 600.0,156.8 620.0,164.7 640.0,172.4 C 660.0,180.1 680.0,189.4 700.0,197.3 C 720.0,205.1 740.0,213.5 760.0,219.5 C 780.0,225.5 800.0,230.8 820.0,233.4 C 840.0,236.0 860.0,236.7 880.0,235.1 C 900.0,233.6 920.0,229.5 940.0,224.0 C 960.0,218.5 980.0,210.4 1000.0,202.2 C 1020.0,194.0 1040.0,183.7 1060.0,174.6 C 1080.0,165.6 1100.0,155.5 1120.0,147.6 C 1140.0,139.7 1160.0,132.2 1180.0,127.2 C 1200.0,122.3 1220.0,118.9 1240.0,118.0 C 1260.0,117.1 1280.0,118.5 1300.0,121.8 C 1320.0,125.0 1340.0,130.8 1360.0,137.2 C 1380.0,143.7 1400.0,152.3 1420.0,160.3 C 1440.0,168.3 1460.0,177.6 1480.0,185.0 C 1500.0,192.5 1530.0,201.7 1540.0,205.0 " fill="none" stroke="url(#flow2)" stroke-width="3.2" stroke-opacity="0.95" stroke-linecap="round"/>
<path d="M -80.0,299.8 C -70.0,302.1 -40.0,311.0 -20.0,313.4 C 0.0,315.8 20.0,316.2 40.0,314.2 C 60.0,312.3 80.0,307.7 100.0,301.7 C 120.0,295.8 140.0,287.2 160.0,278.5 C 180.0,269.9 200.0,259.2 220.0,249.8 C 240.0,240.4 260.0,230.2 280.0,222.2 C 300.0,214.2 320.0,206.6 340.0,201.8 C 360.0,197.0 380.0,193.9 400.0,193.3 C 420.0,192.8 440.0,194.7 460.0,198.3 C 480.0,202.0 500.0,208.4 520.0,215.2 C 540.0,222.1 560.0,231.3 580.0,239.6 C 600.0,247.9 620.0,257.5 640.0,265.1 C 660.0,272.8 680.0,280.4 700.0,285.3 C 720.0,290.3 740.0,293.9 760.0,294.9 C 780.0,295.9 800.0,294.6 820.0,291.2 C 840.0,287.8 860.0,281.7 880.0,274.7 C 900.0,267.6 920.0,258.1 940.0,249.0 C 960.0,239.8 980.0,229.0 1000.0,219.9 C 1020.0,210.7 1040.0,201.1 1060.0,194.0 C 1080.0,186.9 1100.0,180.7 1120.0,177.3 C 1140.0,173.8 1160.0,172.4 1180.0,173.2 C 1200.0,174.1 1220.0,177.7 1240.0,182.6 C 1260.0,187.4 1280.0,195.0 1300.0,202.6 C 1320.0,210.1 1340.0,219.7 1360.0,228.1 C 1380.0,236.4 1400.0,245.6 1420.0,252.5 C 1440.0,259.4 1460.0,265.9 1480.0,269.6 C 1500.0,273.4 1530.0,274.1 1540.0,274.9 " fill="none" stroke="url(#flow2)" stroke-width="2.6" stroke-opacity="0.95" stroke-linecap="round"/>
<path d="M -80.0,374.6 C -70.0,373.8 -40.0,373.5 -20.0,369.7 C 0.0,365.9 20.0,359.3 40.0,351.8 C 60.0,344.3 80.0,334.2 100.0,324.7 C 120.0,315.2 140.0,304.0 160.0,294.6 C 180.0,285.3 200.0,275.6 220.0,268.5 C 240.0,261.4 260.0,255.3 280.0,252.1 C 300.0,248.9 320.0,247.8 340.0,249.1 C 360.0,250.4 380.0,254.4 400.0,259.8 C 420.0,265.1 440.0,273.2 460.0,281.2 C 480.0,289.2 500.0,299.2 520.0,307.8 C 540.0,316.4 560.0,325.8 580.0,332.8 C 600.0,339.8 620.0,346.3 640.0,349.8 C 660.0,353.4 680.0,355.1 700.0,354.3 C 720.0,353.5 740.0,350.0 760.0,344.8 C 780.0,339.6 800.0,331.6 820.0,323.2 C 840.0,314.8 860.0,304.1 880.0,294.4 C 900.0,284.7 920.0,273.7 940.0,264.9 C 960.0,256.1 980.0,247.3 1000.0,241.4 C 1020.0,235.5 1040.0,231.0 1060.0,229.2 C 1080.0,227.5 1100.0,228.2 1120.0,230.9 C 1140.0,233.7 1160.0,239.2 1180.0,245.7 C 1200.0,252.1 1220.0,261.1 1240.0,269.6 C 1260.0,278.0 1280.0,288.1 1300.0,296.4 C 1320.0,304.7 1340.0,313.4 1360.0,319.4 C 1380.0,325.4 1400.0,330.4 1420.0,332.6 C 1440.0,334.7 1460.0,334.7 1480.0,332.4 C 1500.0,330.0 1530.0,320.8 1540.0,318.5 " fill="none" stroke="url(#flow2)" stroke-width="2.0" stroke-opacity="0.6" stroke-linecap="round"/>
<path d="M -80.0,412.7 C -70.0,408.9 -40.0,398.5 -20.0,389.7 C 0.0,380.8 20.0,369.6 40.0,359.6 C 60.0,349.5 80.0,338.3 100.0,329.4 C 120.0,320.4 140.0,311.7 160.0,305.9 C 180.0,300.0 200.0,295.8 220.0,294.4 C 240.0,293.0 260.0,294.1 280.0,297.3 C 300.0,300.5 320.0,306.7 340.0,313.6 C 360.0,320.5 380.0,330.0 400.0,338.8 C 420.0,347.7 440.0,358.1 460.0,366.6 C 480.0,375.1 500.0,383.8 520.0,389.8 C 540.0,395.8 560.0,400.6 580.0,402.5 C 600.0,404.4 620.0,404.0 640.0,401.3 C 660.0,398.5 680.0,392.8 700.0,385.9 C 720.0,379.0 740.0,369.3 760.0,359.8 C 780.0,350.3 800.0,338.8 820.0,328.9 C 840.0,319.0 860.0,308.3 880.0,300.2 C 900.0,292.1 920.0,284.7 940.0,280.3 C 960.0,275.8 980.0,273.3 1000.0,273.5 C 1020.0,273.6 1040.0,276.6 1060.0,281.1 C 1080.0,285.7 1100.0,293.2 1120.0,301.0 C 1140.0,308.8 1160.0,318.9 1180.0,327.9 C 1200.0,336.9 1220.0,347.0 1240.0,354.9 C 1260.0,362.8 1280.0,370.4 1300.0,375.2 C 1320.0,380.0 1340.0,383.1 1360.0,383.5 C 1380.0,383.8 1400.0,381.6 1420.0,377.3 C 1440.0,373.1 1460.0,365.9 1480.0,357.9 C 1500.0,349.9 1530.0,334.2 1540.0,329.5 " fill="none" stroke="url(#flow2)" stroke-width="1.5" stroke-opacity="0.6" stroke-linecap="round"/>
<rect x="28" y="28" width="12" height="12" fill="#F1EEEB"/>
<rect x="1460" y="28" width="12" height="12" fill="#F1EEEB"/>
<rect x="28" y="460" width="12" height="12" fill="#F1EEEB"/>
<rect x="1460" y="460" width="12" height="12" fill="#F1EEEB"/>
<g stroke="#F1EEEB" stroke-width="1.4"><line x1="1342" y1="250" x2="1358" y2="250"/><line x1="1350" y1="242" x2="1350" y2="258"/></g>
<rect x="1200" y="244" width="11" height="11" fill="#FF4F00"/>
<line x1="1211" y1="250" x2="1340" y2="250" stroke="#FF4F00" stroke-opacity="0.5" stroke-width="1.4"/>
<rect width="1500" height="500" fill="url(#v2)"/>
</svg>