<svg xmlns="http://www.w3.org/2000/svg" width="1500" height="500" viewBox="0 0 1500 500">
<defs>
<linearGradient id="field" x1="0" y1="0" x2="1" y2="0.28">
      <stop offset="0" stop-color="#33361F"/>
      <stop offset="0.22" stop-color="#202413"/>
      <stop offset="0.48" stop-color="#101108"/>
      <stop offset="1" stop-color="#08090A"/></linearGradient>
<radialGradient id="bloom" cx="0.14" cy="0.76" r="0.72">
      <stop offset="0" stop-color="#DCEAA0" stop-opacity="0.52"/>
      <stop offset="0.20" stop-color="#D3E0BC" stop-opacity="0.46"/>
      <stop offset="0.40" stop-color="#D4F24B" stop-opacity="0.28"/>
      <stop offset="0.64" stop-color="#D4F24B" stop-opacity="0.08"/>
      <stop offset="0.86" stop-color="#D4F24B" stop-opacity="0"/></radialGradient>
<radialGradient id="haze" cx="0.12" cy="0.30" r="0.6">
      <stop offset="0" stop-color="#9BBD1C" stop-opacity="0.10"/>
      <stop offset="1" stop-color="#9BBD1C" stop-opacity="0"/></radialGradient>
<linearGradient id="flow" x1="0" y1="0" x2="1" y2="0">
      <stop offset="0" stop-color="#56730D"/>
      <stop offset="0.34" stop-color="#9BBD1C"/>
      <stop offset="0.62" stop-color="#D4F24B"/>
      <stop offset="1" stop-color="#D4F24B"/></linearGradient>
<linearGradient id="flowsoft" x1="0" y1="0" x2="1" y2="0">
      <stop offset="0" stop-color="#56730D" stop-opacity="0.5"/>
      <stop offset="0.6" stop-color="#D4F24B" stop-opacity="0.55"/>
      <stop offset="1" stop-color="#D4F24B" stop-opacity="0.7"/></linearGradient>
<linearGradient id="vtop" x1="0" y1="0" x2="0" y2="1">
      <stop offset="0" stop-color="#08090A" stop-opacity="0.55"/>
      <stop offset="0.18" stop-color="#08090A" stop-opacity="0"/>
      <stop offset="0.82" stop-color="#08090A" stop-opacity="0"/>
      <stop offset="1" stop-color="#08090A" stop-opacity="0.5"/></linearGradient>
</defs>
<rect width="1500" height="500" fill="url(#field)"/>
<rect width="1500" height="500" fill="url(#bloom)"/>
<rect width="1500" height="500" fill="url(#haze)"/>
<g stroke="#D4F24B" stroke-opacity="0.05" stroke-width="1"><line x1="820" y1="0" x2="820" y2="500"/><line x1="880" y1="0" x2="880" y2="500"/><line x1="940" y1="0" x2="940" y2="500"/><line x1="1000" y1="0" x2="1000" y2="500"/><line x1="1060" y1="0" x2="1060" y2="500"/><line x1="1120" y1="0" x2="1120" y2="500"/><line x1="1180" y1="0" x2="1180" y2="500"/><line x1="1240" y1="0" x2="1240" y2="500"/><line x1="1300" y1="0" x2="1300" y2="500"/><line x1="1360" y1="0" x2="1360" y2="500"/><line x1="1420" y1="0" x2="1420" y2="500"/><line x1="1480" y1="0" x2="1480" y2="500"/><line x1="820" y1="60" x2="1500" y2="60"/><line x1="820" y1="120" x2="1500" y2="120"/><line x1="820" y1="180" x2="1500" y2="180"/><line x1="820" y1="240" x2="1500" y2="240"/><line x1="820" y1="300" x2="1500" y2="300"/><line x1="820" y1="360" x2="1500" y2="360"/><line x1="820" y1="420" x2="1500" y2="420"/><line x1="820" y1="480" x2="1500" y2="480"/></g>
<path d="M -80.0,108.4 C -70.0,110.8 -40.0,117.8 -20.0,122.8 C 0.0,127.8 20.0,133.5 40.0,138.3 C 60.0,143.1 80.0,148.0 100.0,151.6 C 120.0,155.2 140.0,158.2 160.0,159.7 C 180.0,161.2 200.0,161.6 220.0,160.6 C 240.0,159.5 260.0,157.0 280.0,153.5 C 300.0,149.9 320.0,144.8 340.0,139.1 C 360.0,133.5 380.0,126.5 400.0,119.6 C 420.0,112.7 440.0,104.9 460.0,97.8 C 480.0,90.7 500.0,83.3 520.0,77.2 C 540.0,71.0 560.0,65.2 580.0,60.8 C 600.0,56.5 620.0,53.1 640.0,51.2 C 660.0,49.3 680.0,48.7 700.0,49.4 C 720.0,50.1 740.0,52.3 760.0,55.2 C 780.0,58.2 800.0,62.6 820.0,67.1 C 840.0,71.6 860.0,77.2 880.0,82.2 C 900.0,87.3 920.0,92.9 940.0,97.4 C 960.0,101.9 980.0,106.3 1000.0,109.3 C 1020.0,112.2 1040.0,114.4 1060.0,115.1 C 1080.0,115.8 1100.0,115.2 1120.0,113.3 C 1140.0,111.4 1160.0,108.0 1180.0,103.7 C 1200.0,99.3 1220.0,93.5 1240.0,87.3 C 1260.0,81.1 1280.0,73.7 1300.0,66.7 C 1320.0,59.6 1340.0,51.8 1360.0,44.9 C 1380.0,38.0 1400.0,31.0 1420.0,25.3 C 1440.0,19.7 1460.0,14.6 1480.0,11.0 C 1500.0,7.4 1530.0,5.1 1540.0,3.9 " fill="none" stroke="url(#flow)" stroke-width="2.4" stroke-linecap="round"/>
<path d="M -80.0,182.5 C -70.0,185.1 -40.0,193.9 -20.0,198.6 C 0.0,203.4 20.0,207.9 40.0,210.9 C 60.0,213.9 80.0,216.0 100.0,216.5 C 120.0,217.0 140.0,216.1 160.0,213.8 C 180.0,211.5 200.0,207.6 220.0,202.8 C 240.0,198.0 260.0,191.6 280.0,184.9 C 300.0,178.2 320.0,170.3 340.0,162.7 C 360.0,155.2 380.0,147.0 400.0,139.8 C 420.0,132.6 440.0,125.4 460.0,119.6 C 480.0,113.9 500.0,108.8 520.0,105.3 C 540.0,101.9 560.0,99.6 580.0,98.9 C 600.0,98.2 620.0,99.0 640.0,101.0 C 660.0,102.9 680.0,106.5 700.0,110.6 C 720.0,114.7 740.0,120.2 760.0,125.5 C 780.0,130.7 800.0,137.0 820.0,142.3 C 840.0,147.7 860.0,153.3 880.0,157.5 C 900.0,161.8 920.0,165.6 940.0,167.9 C 960.0,170.1 980.0,171.2 1000.0,170.8 C 1020.0,170.4 1040.0,168.5 1060.0,165.3 C 1080.0,162.1 1100.0,157.3 1120.0,151.7 C 1140.0,146.2 1160.0,139.1 1180.0,132.1 C 1200.0,125.0 1220.0,116.8 1240.0,109.2 C 1260.0,101.7 1280.0,93.6 1300.0,86.8 C 1320.0,80.0 1340.0,73.4 1360.0,68.3 C 1380.0,63.2 1400.0,59.0 1420.0,56.5 C 1440.0,53.9 1460.0,52.7 1480.0,52.9 C 1500.0,53.1 1530.0,56.9 1540.0,57.7 " fill="none" stroke="url(#flow)" stroke-width="3.4" stroke-linecap="round"/>
<path d="M -80.0,259.2 C -70.0,260.9 -40.0,267.4 -20.0,269.5 C 0.0,271.7 20.0,272.6 40.0,271.9 C 60.0,271.1 80.0,268.8 100.0,265.2 C 120.0,261.5 140.0,256.2 160.0,250.1 C 180.0,244.0 200.0,236.4 220.0,228.8 C 240.0,221.2 260.0,212.5 280.0,204.6 C 300.0,196.6 320.0,188.2 340.0,181.2 C 360.0,174.2 380.0,167.4 400.0,162.4 C 420.0,157.4 440.0,153.3 460.0,151.0 C 480.0,148.6 500.0,147.8 520.0,148.4 C 540.0,149.0 560.0,151.4 580.0,154.6 C 600.0,157.9 620.0,162.8 640.0,167.9 C 660.0,173.0 680.0,179.5 700.0,185.3 C 720.0,191.2 740.0,197.8 760.0,203.2 C 780.0,208.6 800.0,213.9 820.0,217.6 C 840.0,221.4 860.0,224.3 880.0,225.5 C 900.0,226.7 920.0,226.6 940.0,224.9 C 960.0,223.2 980.0,219.8 1000.0,215.2 C 1020.0,210.7 1040.0,204.5 1060.0,197.8 C 1080.0,191.1 1100.0,182.9 1120.0,175.1 C 1140.0,167.3 1160.0,158.5 1180.0,150.7 C 1200.0,143.0 1220.0,135.0 1240.0,128.5 C 1260.0,122.0 1280.0,116.1 1300.0,111.9 C 1320.0,107.7 1340.0,104.7 1360.0,103.3 C 1380.0,102.0 1400.0,102.2 1420.0,103.8 C 1440.0,105.3 1460.0,108.6 1480.0,112.6 C 1500.0,116.6 1530.0,125.2 1540.0,127.7 " fill="none" stroke="url(#flow)" stroke-width="2.6" stroke-linecap="round"/>
<path d="M -80.0,327.1 C -70.0,326.8 -40.0,327.6 -20.0,325.5 C 0.0,323.4 20.0,319.4 40.0,314.4 C 60.0,309.4 80.0,302.5 100.0,295.3 C 120.0,288.1 140.0,279.3 160.0,271.0 C 180.0,262.7 200.0,253.5 220.0,245.4 C 240.0,237.4 260.0,229.2 280.0,222.6 C 300.0,216.0 320.0,210.1 340.0,206.0 C 360.0,202.0 380.0,199.2 400.0,198.2 C 420.0,197.2 440.0,197.9 460.0,199.9 C 480.0,202.0 500.0,205.9 520.0,210.4 C 540.0,214.9 560.0,221.1 580.0,227.1 C 600.0,233.1 620.0,240.2 640.0,246.5 C 660.0,252.7 680.0,259.3 700.0,264.4 C 720.0,269.5 740.0,274.3 760.0,277.2 C 780.0,280.1 800.0,281.9 820.0,281.8 C 840.0,281.8 860.0,280.2 880.0,277.0 C 900.0,273.9 920.0,268.9 940.0,263.0 C 960.0,257.2 980.0,249.6 1000.0,241.8 C 1020.0,234.1 1040.0,225.1 1060.0,216.7 C 1080.0,208.3 1100.0,199.3 1120.0,191.6 C 1140.0,183.9 1160.0,176.3 1180.0,170.5 C 1200.0,164.6 1220.0,159.7 1240.0,156.6 C 1260.0,153.5 1280.0,151.9 1300.0,152.0 C 1320.0,152.0 1340.0,153.8 1360.0,156.8 C 1380.0,159.7 1400.0,164.5 1420.0,169.7 C 1440.0,174.8 1460.0,181.5 1480.0,187.7 C 1500.0,193.9 1530.0,203.8 1540.0,207.0 " fill="none" stroke="url(#flowsoft)" stroke-width="2.0" stroke-linecap="round"/>
<path d="M -80.0,379.0 C -70.0,376.4 -40.0,369.8 -20.0,363.4 C 0.0,357.0 20.0,348.7 40.0,340.5 C 60.0,332.2 80.0,322.7 100.0,313.9 C 120.0,305.1 140.0,295.7 160.0,287.8 C 180.0,279.9 200.0,272.2 220.0,266.4 C 240.0,260.6 260.0,255.8 280.0,253.0 C 300.0,250.1 320.0,248.9 340.0,249.4 C 360.0,249.8 380.0,252.3 400.0,255.7 C 420.0,259.2 440.0,264.6 460.0,270.3 C 480.0,276.0 500.0,283.2 520.0,289.9 C 540.0,296.6 560.0,304.1 580.0,310.4 C 600.0,316.7 620.0,323.0 640.0,327.6 C 660.0,332.1 680.0,335.9 700.0,337.7 C 720.0,339.5 740.0,339.8 760.0,338.4 C 780.0,337.0 800.0,333.6 820.0,329.0 C 840.0,324.4 860.0,317.8 880.0,310.6 C 900.0,303.5 920.0,294.6 940.0,286.1 C 960.0,277.5 980.0,267.8 1000.0,259.1 C 1020.0,250.5 1040.0,241.5 1060.0,234.2 C 1080.0,226.8 1100.0,220.0 1120.0,215.1 C 1140.0,210.2 1160.0,206.6 1180.0,204.9 C 1200.0,203.1 1220.0,203.2 1240.0,204.7 C 1260.0,206.2 1280.0,209.7 1300.0,214.1 C 1320.0,218.4 1340.0,224.5 1360.0,230.7 C 1380.0,236.9 1400.0,244.4 1420.0,251.1 C 1440.0,257.8 1460.0,265.1 1480.0,270.9 C 1500.0,276.8 1530.0,283.6 1540.0,286.1 " fill="none" stroke="url(#flowsoft)" stroke-width="1.6" stroke-linecap="round"/>
<g><line x1="980" y1="360" x2="1060" y2="300" stroke="#D4F24B" stroke-opacity="0.073" stroke-width="1"/><line x1="1060" y1="300" x2="1180" y2="360" stroke="#D4F24B" stroke-opacity="0.023" stroke-width="1"/><line x1="1060" y1="300" x2="1120" y2="420" stroke="#D4F24B" stroke-opacity="0.023" stroke-width="1"/><line x1="1060" y1="300" x2="960" y2="200" stroke="#D4F24B" stroke-opacity="0.013" stroke-width="1"/><line x1="1180" y1="360" x2="1250" y2="250" stroke="#D4F24B" stroke-opacity="0.029" stroke-width="1"/><line x1="1180" y1="360" x2="1120" y2="420" stroke="#D4F24B" stroke-opacity="0.096" stroke-width="1"/><line x1="1250" y1="250" x2="1350" y2="330" stroke="#D4F24B" stroke-opacity="0.032" stroke-width="1"/><line x1="1250" y1="250" x2="1300" y2="180" stroke="#D4F24B" stroke-opacity="0.094" stroke-width="1"/><line x1="1250" y1="250" x2="1200" y2="140" stroke="#D4F24B" stroke-opacity="0.043" stroke-width="1"/><line x1="1350" y1="330" x2="1420" y2="260" stroke="#D4F24B" stroke-opacity="0.075" stroke-width="1"/><line x1="1300" y1="180" x2="1420" y2="260" stroke="#D4F24B" stroke-opacity="0.008" stroke-width="1"/><line x1="1300" y1="180" x2="1200" y2="140" stroke="#D4F24B" stroke-opacity="0.062" stroke-width="1"/><circle cx="980" cy="360" r="2.4" fill="#D4F24B" fill-opacity="0.6"/><circle cx="1060" cy="300" r="2.4" fill="#D4F24B" fill-opacity="0.6"/><circle cx="1180" cy="360" r="2.4" fill="#D4F24B" fill-opacity="0.6"/><circle cx="1250" cy="250" r="2.4" fill="#D4F24B" fill-opacity="0.6"/><circle cx="1350" cy="330" r="2.4" fill="#D4F24B" fill-opacity="0.6"/><circle cx="1120" cy="420" r="2.4" fill="#D4F24B" fill-opacity="0.6"/><circle cx="1300" cy="180" r="2.4" fill="#D4F24B" fill-opacity="0.6"/><circle cx="1420" cy="260" r="2.4" fill="#D4F24B" fill-opacity="0.6"/><circle cx="960" cy="200" r="2.4" fill="#D4F24B" fill-opacity="0.6"/><circle cx="1200" cy="140" r="2.4" fill="#D4F24B" fill-opacity="0.6"/></g>
<rect x="28" y="28" width="12" height="12" fill="#56730D"/>
<rect x="28" y="460" width="12" height="12" fill="#56730D"/>
<rect x="1460" y="28" width="12" height="12" fill="#F1EEEB"/>
<rect x="1460" y="460" width="12" height="12" fill="#F1EEEB"/>
<g stroke="#F1EEEB" stroke-width="1.4"><line x1="1342" y1="250" x2="1358" y2="250"/><line x1="1350" y1="242" x2="1350" y2="258"/></g>
<rect x="1200" y="244" width="11" height="11" fill="#FF4F00"/>
<line x1="1211" y1="250" x2="1340" y2="250" stroke="#FF4F00" stroke-opacity="0.5" stroke-width="1.4"/>
<rect width="1500" height="500" fill="url(#vtop)"/>
</svg>