<svg width="500" height="501" viewBox="0 0 500 501" fill="none" xmlns="http://www.w3.org/2000/svg">
<rect width="500" height="500" transform="translate(0 0.666626)" fill="#97B600"></rect>
<path d="M255.667 464.133C138.513 464.133 44.6666 380.713 44.6666 273.38C44.6666 213.887 125.633 189.347 230.513 189.347C309.64 189.347 364.227 218.787 364.227 259.887C364.227 286.873 309.98 315.087 267.047 315.087C247.687 315.087 240.327 307.727 240.327 298.527C240.327 275.833 290.007 253.753 290.007 231.053C290.007 220.627 280.807 215.72 264.247 215.72C201.073 215.72 75.3333 269.313 75.3333 308.953C75.3333 335.327 142.193 354.953 246.46 354.953C356.253 354.953 423.107 319.38 423.107 250.68C423.107 181.98 351.953 142.727 237.26 142.727C180.22 142.727 135.44 154.993 98.0267 174.007C79.0133 183.82 70.4266 179.527 70.4266 162.967C70.4266 94.8799 148.94 36 240.327 36C359.32 36 454.393 131.687 454.393 249.453C454.393 367.22 364.84 464.133 255.66 464.133H255.667Z" fill="#040303"></path>
</svg>