<svg width="657" height="284" viewBox="0 0 657 284" fill="none" xmlns="http://www.w3.org/2000/svg">
<path d="M249.572 33.5176C306.621 33.5176 330.896 66.5934 330.896 143.973C330.896 206.179 295.089 252 250.482 252C200.717 252 169.766 213.462 169.766 155.2C169.766 126.373 193.434 112.11 234.399 112.11C265.958 112.11 290.841 127.89 290.841 147.614C290.84 159.752 270.206 172.8 248.055 172.8C240.469 172.8 237.131 169.158 237.131 164.606C237.131 152.772 255.338 142.758 255.338 132.138C255.338 127.283 251.696 125.158 244.717 125.158C221.958 125.158 184.938 153.986 184.938 171.89C184.938 186.152 206.483 196.165 248.055 196.165C289.627 196.165 314.813 178.869 314.813 143.062C314.813 107.256 289.324 88.1377 247.448 88.1377C220.441 88.1377 203.145 94.5102 185.545 103.917C175.835 109.076 171.282 106.648 171.282 98.4551C171.282 61.7379 199.503 33.5176 249.572 33.5176Z" fill="black"></path>
<path d="M451.062 36.5518C468.965 36.5518 478.069 45.9586 478.069 65.6826C478.069 96.0274 467.145 114.842 439.531 131.835C422.538 142.152 416.469 149.738 416.469 158.538C416.469 167.338 422.538 173.104 432.855 173.104C451.972 173.103 456.221 150.952 466.538 150.952C471.393 150.952 474.124 153.379 475.034 162.482C477.158 189.186 484.745 209.214 496.579 230.151C500.22 236.827 502.345 241.38 502.345 244.414C502.345 248.966 498.399 252 492.938 252C453.793 252 391.89 173.71 391.89 127.89C391.89 120.303 394.924 116.055 400.689 116.055C408.883 116.055 412.828 123.642 423.752 123.642C432.855 123.641 439.228 117.875 439.228 109.379C439.227 96.3309 426.179 88.1377 405.545 88.1377C381.876 88.1377 369.738 100.883 369.738 126.979C369.738 153.076 380.965 181.297 401.903 210.124C412.524 224.69 418.29 234.704 418.29 241.986C418.29 246.538 415.559 248.966 410.097 248.966C397.959 248.966 387.945 246.538 373.683 246.538C360.938 246.538 350.924 248.966 339.696 248.966C335.448 248.966 333.021 246.538 333.021 241.683C333.021 225.296 353.959 189.186 353.959 137.297C353.959 97.2417 342.73 68.4138 342.73 47.7793C342.73 39.5864 346.979 36.5519 355.172 36.5518C368.22 36.5518 383.697 38.9795 404.635 38.9795C423.448 38.9795 434.372 36.5518 451.062 36.5518Z" fill="black"></path>
<path d="M618.565 32C622.51 32 624.635 34.428 624.635 39.2832C624.635 49.904 620.386 69.0208 614.924 82.6758C610.979 92.0827 606.124 96.3311 595.807 96.3311C578.814 96.331 561.517 89.3516 540.883 89.3516C522.069 89.3516 508.717 103.614 508.717 125.158C508.717 133.958 510.841 138.207 514.786 138.207C518.427 138.207 519.945 136.386 522.676 127.89C526.014 117.572 531.476 113.021 539.973 113.021C554.234 113.021 567.282 123.034 579.724 123.034C583.061 123.034 585.186 121.821 587.917 119.394C590.648 116.966 592.165 116.358 594.289 116.358C597.627 116.358 599.448 119.09 599.448 123.642C599.448 141.241 585.49 161.876 572.745 161.876C555.752 161.876 542.4 148.524 525.71 148.524C517.517 148.525 511.752 153.986 511.752 163.09C511.752 182.814 530.262 196.165 557.876 196.165C572.441 196.165 584.883 189.489 591.255 180.689C595.807 174.014 598.538 171.586 601.572 171.586C605.821 171.586 608.855 174.317 609.158 181.903C610.069 198.896 614.621 217.407 622.207 234.4C627.972 247.145 621.599 252 595.807 252C523.586 252 493.241 213.765 493.241 123.338C493.241 62.3449 508.414 36.5519 539.365 36.5518C558.482 36.5518 573.959 41.1035 593.076 41.1035C608.248 41.1033 610.372 32 618.565 32Z" fill="black"></path>
<path d="M142.759 36.5518C148.524 36.5518 150.951 38.6758 150.951 42.9238C150.951 50.8135 142.758 60.2209 116.055 84.1934C82.9791 113.628 67.8066 140.028 67.8066 169.766C67.8067 190.4 75.6964 198.29 98.1514 198.29C122.427 198.29 134.565 191.31 134.565 171.89C134.565 166.428 130.62 160.662 125.158 160.662C118.786 160.662 115.751 164.606 109.683 164.606C103.614 164.606 99.9727 159.752 99.9727 151.862C99.9727 132.745 119.089 106.649 131.834 106.648C136.386 106.648 138.51 109.379 139.117 116.055C143.365 163.393 152.165 200.414 167.034 226.207C171.586 234.097 173.71 237.434 173.71 241.683C173.71 246.538 170.676 248.966 164 248.966C143.669 248.966 125.159 246.538 99.6689 246.538C74.1794 246.538 57.4897 248.966 41.1035 248.966C34.7312 248.966 32 246.841 32 241.986C32 223.476 52.9375 181.6 52.9375 140.331C52.9375 96.0277 33.8204 63.8622 33.8203 45.6553C33.8203 40.1933 37.7653 36.5519 42.9238 36.5518C51.4204 36.5518 74.1794 38.9795 92.9932 38.9795C114.538 38.9795 130.621 36.5518 142.759 36.5518Z" fill="black"></path>
</svg>