<svg width="500" height="500" viewBox="0 0 500 500" fill="none" xmlns="http://www.w3.org/2000/svg">
<path d="M0 250C0 111.929 111.929 0 250 0V0C388.071 0 500 111.929 500 250V250C500 388.071 388.071 500 250 500V500C111.929 500 0 388.071 0 250V250Z" fill="#97B600"></path>
<path d="M255.667 463.467C138.513 463.467 44.6666 380.047 44.6666 272.713C44.6666 213.22 125.633 188.68 230.513 188.68C309.64 188.68 364.227 218.12 364.227 259.22C364.227 286.207 309.98 314.42 267.047 314.42C247.687 314.42 240.327 307.06 240.327 297.86C240.327 275.167 290.007 253.087 290.007 230.387C290.007 219.96 280.807 215.053 264.247 215.053C201.073 215.053 75.3333 268.647 75.3333 308.287C75.3333 334.66 142.193 354.287 246.46 354.287C356.253 354.287 423.107 318.713 423.107 250.013C423.107 181.313 351.953 142.06 237.26 142.06C180.22 142.06 135.44 154.327 98.0267 173.34C79.0133 183.153 70.4266 178.86 70.4266 162.3C70.4266 94.2133 148.94 35.3333 240.327 35.3333C359.32 35.3333 454.393 131.02 454.393 248.787C454.393 366.553 364.84 463.467 255.66 463.467H255.667Z" fill="black"></path>
</svg>