<svg width="24" height="24" viewBox="0 0 24 24" fill="none" xmlns="http://www.w3.org/2000/svg">
  <circle cx="12" cy="12" r="12" fill="#232F3E"/>
  <path d="M14.5 15.5c-1.5 1.1-3.7 1.7-5.5 1.7-2.6 0-5-.9-6.8-2.5-.1-.1 0-.3.2-.2 1.9 1.1 4.3 1.8 6.8 1.8 1.7 0 3.5-.3 5.1-1 .3-.1.5.2.2.2z" fill="#FF9900"/>
  <path d="M15.3 14.5c-.2-.3-.9-.1-1.3-.1-.1 0-.1-.1-.1-.1.3-.4.8-.5 1.2-.4.3.1.4.5.2.8-.2.4-.8 1-1.5.8-.1 0-.1-.1 0-.2.5-.3.7-.6.5-.8z" fill="#FF9900"/>
  <path d="M12.2 7v5.6c0 .2 0 .4-.1.5-.1.2-.3.3-.5.3H9.4c-.2 0-.4-.1-.5-.3-.1-.1-.1-.3-.1-.5V7c0-.3.2-.5.5-.5h2.4c.3 0 .5.2.5.5z" fill="#FF9900"/>
</svg>