<svg width="24" height="24" viewBox="0 0 24 24" fill="none" xmlns="http://www.w3.org/2000/svg">
  <circle cx="12" cy="12" r="12" fill="#F7931A"/>
  <path d="M16.14 10.27c.22-1.47-.9-2.26-2.43-2.79l.5-2-1.21-.3-.48 1.95c-.32-.08-.65-.15-.98-.23l.49-1.96-1.22-.3-.5 2c-.26-.06-.52-.12-.77-.19l-1.68-.42-.32 1.29s.9.21.88.22c.49.12.58.45.56.71l-.57 2.27c.03.01.08.02.13.04l-.13-.03-.79 3.18c-.06.15-.21.37-.55.29.01.02-.88-.22-.88-.22l-.6 1.38 1.59.4c.3.07.59.15.87.22l-.5 2.02 1.21.3.5-2c.33.09.65.17.97.25l-.5 1.99 1.22.3.5-2.02c2.07.39 3.62.23 4.28-1.64.53-1.5-.03-2.37-1.11-2.93.79-.18 1.38-.7 1.54-1.77zm-2.76 3.87c-.38 1.5-2.92.69-3.74.49l.67-2.68c.83.21 3.47.62 3.07 2.19zm.38-3.9c-.34 1.37-2.46.67-3.15.5l.6-2.43c.69.17 2.91.5 2.55 1.93z" fill="white"/>
</svg>