<svg width="24" height="24" viewBox="0 0 24 24" fill="none" xmlns="http://www.w3.org/2000/svg">
  <circle cx="12" cy="12" r="12" fill="white"/>
  <path d="M18.6 12.2c0-.5 0-.9-.1-1.4H12v2.6h3.7c-.2.9-.7 1.7-1.4 2.2v1.8h2.3c1.3-1.2 2-3 2-5.2z" fill="#4285F4"/>
  <path d="M12 19c1.9 0 3.5-.6 4.6-1.7l-2.3-1.8c-.6.4-1.4.7-2.4.7-1.8 0-3.4-1.2-3.9-2.9H5.7v1.9c1.2 2.3 3.6 3.8 6.3 3.8z" fill="#34A853"/>
  <path d="M8.1 13.3c-.3-.9-.3-1.7 0-2.6V8.8H5.7c-.9 1.8-.9 4 0 5.8l2.4-1.3z" fill="#FBBC05"/>
  <path d="M12 7.6c1 0 2 .4 2.7 1l2-2C15.4 5.4 13.8 4.9 12 5c-2.7 0-5.1 1.5-6.3 3.8l2.4 1.8c.5-1.6 2.1-2.8 3.9-3z" fill="#EA4335"/>
</svg>