<svg width="24" height="24" viewBox="0 0 24 24" fill="none" xmlns="http://www.w3.org/2000/svg">
  <circle cx="12" cy="12" r="12" fill="url(#jup_gradient)"/>
  <path d="M12 6c-3.3 0-6 2.7-6 6s2.7 6 6 6c1.5 0 2.9-.6 4-1.5l-2-2c-.6.4-1.3.6-2 .6-2 0-3.5-1.5-3.5-3.5S10 8.1 12 8.1c1.5 0 2.8 1 3.3 2.4h-2.8v2h5.3c.1-.4.2-.9.2-1.4 0-3.4-2.7-6.1-6-6.1z" fill="white"/>
  <defs>
    <linearGradient id="jup_gradient" x1="0" y1="0" x2="24" y2="24">
      <stop stop-color="#00D1B2"/>
      <stop offset="1" stop-color="#7B3FE4"/>
    </linearGradient>
  </defs>
</svg>