<svg width="24" height="24" viewBox="0 0 24 24" fill="none" xmlns="http://www.w3.org/2000/svg">
  <circle cx="12" cy="12" r="12" fill="url(#sol_gradient)"/>
  <path d="M7.5 15.5l1.2-1.2c.1-.1.2-.1.3-.1h8.5c.2 0 .3.2.1.3l-1.2 1.2c-.1.1-.2.1-.3.1H7.6c-.2 0-.2-.2-.1-.3z" fill="white"/>
  <path d="M7.5 8.5l1.2-1.2c.1-.1.2-.1.3-.1h8.5c.2 0 .3.2.1.3l-1.2 1.2c-.1.1-.2.1-.3.1H7.6c-.2 0-.2-.2-.1-.3z" fill="white"/>
  <path d="M16.5 12l-1.2-1.2c-.1-.1-.2-.1-.3-.1H6.5c-.2 0-.3.2-.1.3l1.2 1.2c.1.1.2.1.3.1h8.5c.2 0 .2-.2.1-.3z" fill="white"/>
  <defs>
    <linearGradient id="sol_gradient" x1="0" y1="24" x2="24" y2="0">
      <stop stop-color="#9945FF"/>
      <stop offset="0.5" stop-color="#14F195"/>
      <stop offset="1" stop-color="#00D1FF"/>
    </linearGradient>
  </defs>
</svg>