<svg width="24" height="24" viewBox="0 0 24 24" fill="none" xmlns="http://www.w3.org/2000/svg">
  <circle cx="12" cy="12" r="12" fill="#2775CA"/>
  <path d="M15.5 13.8c0-1.5-1-2.1-2.9-2.4-1.4-.2-1.7-.5-1.7-1.1 0-.5.4-.9 1.3-.9.8 0 1.2.3 1.4.9.1.1.1.2.2.2h.8c.1 0 .2-.1.2-.2-.2-1-.9-1.7-1.9-1.9V7.3c0-.1-.1-.2-.2-.2h-.8c-.1 0-.2.1-.2.2v1c-1.2.2-2 1-2 2.1 0 1.4 1 2 2.8 2.3 1.3.2 1.8.5 1.8 1.2 0 .7-.6 1.1-1.5 1.1-.9 0-1.5-.4-1.7-1.1 0-.1-.1-.2-.2-.2h-.9c-.1 0-.2.1-.2.2.2 1.2 1 1.9 2.2 2.1v1c0 .1.1.2.2.2h.8c.1 0 .2-.1.2-.2v-1c1.3-.2 2.1-1 2.1-2.2z" fill="white"/>
  <path d="M9.5 17.5c-3-1-4.5-4.3-3.4-7.2 1-3 4.3-4.5 7.2-3.4.5.2.9.4 1.3.6.1.1.1.2 0 .3l-.4.4c-.1.1-.2.1-.3 0-2.3-1.4-5.3-.6-6.7 1.7-1.4 2.3-.6 5.3 1.7 6.7.3.2.7.4 1 .5.1 0 .2.1.1.2l-.3.5c-.1.1-.1.2-.2.1-.3-.1-.7-.2-1-.4z" fill="white"/>
  <path d="M14.5 6.5c3 1 4.5 4.3 3.4 7.2-1 3-4.3 4.5-7.2 3.4-.5-.2-.9-.4-1.3-.6-.1-.1-.1-.2 0-.3l.4-.4c.1-.1.2-.1.3 0 2.3 1.4 5.3.6 6.7-1.7 1.4-2.3.6-5.3-1.7-6.7-.3-.2-.7-.4-1-.5-.1 0-.2-.1-.1-.2l.3-.5c.1-.1.1-.2.2-.1.3.1.7.2 1 .4z" fill="white"/>
</svg>