<svg xmlns="http://www.w3.org/2000/svg" viewBox="0 0 32 32"><circle cx="16" cy="16" r="16" fill="#E84142"></circle><path d="M19.6 21.9h2.77c.48 0 .72 0 .85-.1a.57.57 0 0 0 .27-.48c0-.16-.12-.37-.35-.78L18.3 12.1c-.24-.41-.37-.62-.53-.7a.57.57 0 0 0-.53 0c-.17.08-.29.29-.53.7l-.94 1.6v.03c-.28.5-.42.74-.48 1a1.65 1.65 0 0 0 0 .8c.06.27.2.53.48 1.04l2.45 4.34c.28.5.43.74.63.89.21.15.47.26.73.32.23 0 .5 0 1.02 0ZM11.8 21.9h3.94c.5 0 .73 0 .86-.1a.57.57 0 0 0 .28-.47c0-.17-.11-.38-.35-.75l-.07-.13-1.97-3.37-.03-.03c-.23-.37-.34-.55-.5-.62a.57.57 0 0 0-.5 0c-.16.07-.3.27-.53.68l-1.95 3.37c-.23.4-.35.6-.35.77.02.18.11.37.28.47.14.1.37.1.86.1Z" fill="#fff"></path></svg>