<svg xmlns="http://www.w3.org/2000/svg" viewBox="0 0 32 32"><circle cx="16" cy="16" r="16" fill="#FF0420"></circle><path d="M12.5 21c-1.2 0-2.1-.26-2.76-.8-.66-.53-.99-1.3-.99-2.3 0-.24.02-.5.06-.8.14-.83.34-1.83.58-3 .73-2.96 2.66-4.44 5.76-4.44.84 0 1.58.13 2.24.4.66.3 1.17.72 1.56 1.27.4.54.6 1.2.6 2 0 .24-.02.5-.07.8-.17.95-.37 1.94-.59 2.97-.37 1.47-1.02 2.58-1.96 3.3-.93.72-2.18 1.08-3.72 1.08Zm.23-2.31c.6 0 1.12-.17 1.54-.54.43-.36.73-.9.91-1.66.26-1.03.44-1.92.57-2.67.04-.22.06-.45.06-.68 0-.95-.5-1.42-1.48-1.42-.61 0-1.13.18-1.55.54-.42.36-.72.9-.9 1.66-.2.84-.4 1.74-.57 2.67-.05.22-.07.43-.07.66 0 .95.5 1.44 1.5 1.44Zm6.81 2.16c-.13 0-.22-.04-.27-.11a.33.33 0 0 1-.06-.29l2.16-10.22c.02-.13.08-.23.17-.31.1-.07.22-.1.34-.1h4.18c1.17 0 2.11.24 2.82.74s1.07 1.19 1.07 2.06c0 .26-.03.52-.1.8-.26 1.16-.77 2.01-1.54 2.56-.76.55-1.81.83-3.15.83h-2.11l-.7 3.32c-.03.13-.08.23-.17.31-.1.07-.22.11-.34.11h-2.3Z" fill="#fff"></path></svg>