<svg xmlns="http://www.w3.org/2000/svg" viewBox="0 0 32 32"><circle cx="16" cy="16" r="16" fill="#8247E5"></circle><path d="M20 14.2a.9.9 0 0 0-.88 0l-2.04 1.23-1.38.79-2.04 1.24a.9.9 0 0 1-.88 0l-1.6-.97a.9.9 0 0 1-.44-.8v-1.97c0-.34.17-.66.44-.83l1.6-.94a.9.9 0 0 1 .88 0l1.6.94c.27.17.44.49.44.83v1.23l1.38-.8V12.7c0-.34-.17-.66-.44-.82l-2.98-1.76a.9.9 0 0 0-.88 0l-3.04 1.76c-.27.17-.44.48-.44.82v3.47c0 .34.17.65.44.82l3.04 1.76a.9.9 0 0 0 .88 0l2.04-1.2 1.38-.83 2.04-1.22a.9.9 0 0 1 .88 0l1.6.95c.27.17.44.48.44.82v1.9c0 .34-.17.66-.44.82l-1.6.95a.9.9 0 0 1-.88 0l-1.6-.95a.95.95 0 0 1-.44-.82V18.2l-1.38.82v1.24c0 .34.17.65.44.82l3.04 1.76a.9.9 0 0 0 .88 0l3.04-1.76c.27-.17.44-.48.44-.82v-3.5c0-.34-.17-.66-.44-.83l-3-1.75Z" fill="#fff"></path></svg>