<svg xmlns="http://www.w3.org/2000/svg" viewBox="0 0 32 32"><circle cx="16" cy="16" r="16" fill="#000"></circle><defs><linearGradient id="sg" x1="8" y1="22" x2="24" y2="10" gradientUnits="userSpaceOnUse"><stop stop-color="#9945FF"></stop><stop offset=".5" stop-color="#19FB9B"></stop><stop offset="1" stop-color="#19FB9B"></stop></linearGradient></defs><path d="M11 21h10.3c.3 0 .4.35.2.55l-1.6 1.6a.5.5 0 0 1-.35.15H9.25c-.3 0-.45-.35-.25-.55l1.6-1.6A.5.5 0 0 1 11 21Zm0-10h10.3c.3 0 .45.35.25.55l-1.6 1.6a.5.5 0 0 1-.35.15H9.25c-.3 0-.45-.35-.25-.55l1.6-1.6A.5.5 0 0 1 11 11Zm10.3 5H11a.5.5 0 0 0-.35.15l-1.6 1.6c-.2.2-.05.55.25.55h10.3a.5.5 0 0 0 .35-.15l1.6-1.6c.2-.2.05-.55-.25-.55Z" fill="url(#sg)"></path></svg>