<svg xmlns="http://www.w3.org/2000/svg" viewBox="0 0 32 32"><circle cx="16" cy="16" r="16" fill="#F7931A"></circle><path d="M22.5 13.9c.3-2-1.3-3.2-3.4-3.9l.7-2.7-1.7-.4-.7 2.6-1.3-.3.7-2.6-1.7-.4-.7 2.7-1-.2-2.3-.6-.4 1.8s1.3.3 1.2.3c.7.2.8.6.8 1l-.8 3 .2.1-.2-.1L10.8 18c-.1.2-.3.4-.7.3l-1.2-.3-.8 2 2.2.6.9.2-.7 2.7 1.7.5.7-2.7 1.3.3-.7 2.7 1.7.4.7-2.7c2.9.5 5 .3 5.9-2.3.7-2.1-.1-3.3-1.6-4.1 1.1-.2 1.9-1 2.1-2.5ZM18.7 20c-.5 2-3.9 1-5 .7l.9-3.7c1.1.3 4.6.8 4.1 2.9Zm.5-6c-.5 1.8-3.3 1-4.2.7l.8-3.4c1 .2 3.9.7 3.4 2.6Z" fill="#fff"></path></svg>