<svg xmlns="http://www.w3.org/2000/svg" viewBox="0 0 32 32"><circle cx="16" cy="16" r="16" fill="#000"></circle><defs><linearGradient id="s" x1="6" y1="22" x2="26" y2="10" gradientUnits="userSpaceOnUse"><stop stop-color="#9945FF"></stop><stop offset=".5" stop-color="#8752F3"></stop><stop offset="1" stop-color="#19FB9B"></stop></linearGradient></defs><path d="M9.9 20.5h12.4c.3 0 .5.3.4.5l-2 2a.8.8 0 0 1-.6.2H7.7c-.3 0-.5-.3-.4-.5l2-2a.8.8 0 0 1 .6-.2Zm0-7.4h12.4c.3 0 .5.3.4.5l-2 2a.8.8 0 0 1-.6.2H7.7c-.3 0-.5-.3-.4-.5l2-2a.8.8 0 0 1 .6-.2Zm12.4-2.2H9.9a.8.8 0 0 0-.6.2l-2 2c-.1.2 0 .5.4.5h12.4a.8.8 0 0 0 .6-.2l2-2c.1-.2-.1-.5-.4-.5Z" fill="url(#s)"></path></svg>