<svg xmlns="http://www.w3.org/2000/svg" viewBox="0 0 32 32"><circle cx="16" cy="16" r="16" fill="#2775CA"></circle><path d="M20.5 18.2c0-2.4-1.4-3.2-4.3-3.5-2-.3-2.5-.8-2.5-1.8 0-1 .7-1.6 2.1-1.6 1.2 0 2 .4 2.4 1.5.07.2.28.33.49.33h1.1c.27 0 .47-.2.47-.48v-.07c-.26-1.5-1.48-2.67-3-2.8V8.4c0-.27-.2-.47-.53-.53h-1c-.27 0-.47.2-.53.53v1.33c-2 .27-3.27 1.6-3.27 3.27 0 2.27 1.4 3.13 4.27 3.47 1.87.33 2.47.73 2.47 1.87s-1 1.93-2.4 1.93c-1.87 0-2.53-.8-2.73-1.87-.07-.26-.27-.4-.47-.4h-1.2c-.27 0-.47.2-.47.47v.07c.27 1.73 1.4 2.93 3.6 3.27v1.33c0 .27.2.47.53.53h1c.27 0 .47-.2.53-.53v-1.33c2-.34 3.34-1.67 3.34-3.53Z" fill="#fff"></path><path d="M12.47 23.5c-3.93-1.4-6-5.8-4.54-9.67.8-2.2 2.47-3.87 4.54-4.67.26-.13.4-.33.4-.67v-.93c0-.27-.14-.47-.4-.53h-.07c-4.8 1.53-7.4 6.67-5.87 11.47.94 2.8 3.07 5 5.87 5.87.27.13.53-.07.53-.33v-.94c0-.2-.2-.46-.46-.6ZM19.6 7.1c-.27-.13-.54.07-.54.33v.94c0 .26.2.53.47.66 3.93 1.4 6 5.8 4.53 9.67-.8 2.2-2.47 3.87-4.53 4.67-.27.13-.4.33-.4.67v.93c0 .27.13.47.4.53h.06c4.8-1.53 7.4-6.67 5.87-11.47-.93-2.86-3.13-5-5.86-5.93Z" fill="#fff"></path></svg>