<svg xmlns="http://www.w3.org/2000/svg" viewBox="0 0 32 32"><circle cx="16" cy="16" r="16" fill="#26A17B"></circle><path d="M17.9 14.2V12h5v-3.3H9.1V12h5v2.2c-4.07.19-7.12 1-7.12 1.97s3.05 1.78 7.12 1.97V25h3.8v-6.86c4.06-.19 7.1-1 7.1-1.97s-3.04-1.78-7.1-1.97Zm0 3.34v-.01c-.1.01-.63.04-1.78.04-.93 0-1.58-.03-1.82-.04v.01C10.53 17.37 7.67 16.7 7.67 15.9c0-.8 2.86-1.47 6.63-1.64v2.62c.24.02.9.06 1.84.06 1.1 0 1.66-.04 1.76-.06v-2.62c3.76.17 6.6.85 6.6 1.64 0 .8-2.84 1.46-6.6 1.64Z" fill="#fff"></path></svg>