<svg width="15" height="18" viewBox="0 0 15 18" fill="none" xmlns="http://www.w3.org/2000/svg">
<path d="M14.5301 6.14118C13.3012 6.88235 12.5422 8.15294 12.5422 9.56471C12.5422 11.1529 13.5181 12.6 15 13.2C14.7108 14.1176 14.2771 14.9647 13.7349 15.7412C12.9398 16.8353 12.1084 17.9647 10.8795 17.9647C9.6506 17.9647 9.28916 17.2588 7.84337 17.2588C6.43374 17.2588 5.92771 18 4.77108 18C3.61446 18 2.81928 16.9765 1.91566 15.7059C0.722892 13.9412 0.0361446 11.8941 0 9.74118C0 6.24706 2.31325 4.37647 4.62651 4.37647C5.85542 4.37647 6.86747 5.15294 7.62651 5.15294C8.3494 5.15294 9.50602 4.34118 10.8795 4.34118C12.3253 4.30588 13.6988 4.97647 14.5301 6.14118ZM10.2289 2.85882C10.8434 2.15294 11.1687 1.27059 11.2048 0.352941C11.2048 0.247059 11.2048 0.105882 11.1687 0C10.1205 0.105882 9.14458 0.6 8.45783 1.37647C7.84337 2.04706 7.48193 2.89412 7.44578 3.81176C7.44578 3.91765 7.44578 4.02353 7.48193 4.12941C7.55422 4.12941 7.66265 4.16471 7.73494 4.16471C8.71084 4.09412 9.61446 3.6 10.2289 2.85882Z" fill="white"/>
</svg>
