<svg width="51" height="12" viewBox="0 0 51 12" fill="none" xmlns="http://www.w3.org/2000/svg">
<path d="M8.54942 11.6366H5.49919L5.27961 10.2358H3.29097L3.05023 11.6366H0L2.62559 0.600586H6.23507L8.54942 11.6366ZM4.93298 7.86985L4.74185 6.58331C4.73665 6.57863 4.72762 6.51419 4.71342 6.38999C4.70413 6.28571 4.65455 5.87093 4.56491 5.14682C4.55535 5.06567 4.54372 4.95494 4.52953 4.81433C4.51533 4.67372 4.49644 4.49594 4.47298 4.2815L4.38042 3.2384C4.37145 3.33857 4.35839 3.45047 4.34187 3.57437C4.32531 3.6983 4.30762 3.8339 4.28879 3.98183C4.2557 4.27712 4.23221 4.48217 4.21801 4.59641C4.20352 4.71035 4.19449 4.77977 4.18986 4.8038L3.9845 6.13982L3.68722 7.86985H4.93298ZM26.7797 11.6366V8.98511H24.2462V7.29797H26.5178V4.80389H24.2462V3.19571H26.7797V0.600703H21.2948V11.6365L26.7797 11.6366ZM32.5845 8.98511H30.3693V0.600703H27.4179V11.6365H32.5845V8.98511ZM41.6469 11.6366H38.597L38.3773 10.2358H36.3886L36.148 11.6366H33.0974L35.7233 0.600586H39.3328L41.6469 11.6366ZM38.0309 7.86989L37.8393 6.58334C37.8342 6.57866 37.8253 6.51422 37.8109 6.39002C37.802 6.28574 37.752 5.87096 37.6624 5.14685C37.6528 5.0657 37.6415 4.95497 37.6271 4.81436C37.6128 4.67375 37.5939 4.49597 37.5709 4.28153L37.4783 3.23843C37.469 3.3386 37.4559 3.4505 37.4394 3.5744C37.423 3.69833 37.4054 3.83393 37.3862 3.98186C37.3533 4.27715 37.3297 4.4822 37.3154 4.59644C37.3013 4.71038 37.2921 4.7798 37.2876 4.80383L37.082 6.13985L36.7846 7.86989H38.0309ZM50.0551 11.6366H46.8635L45.4059 7.70555C45.3915 7.63877 45.3661 7.5506 45.3308 7.44104C45.2956 7.33148 45.2519 7.20056 45.2002 7.04792L45.2212 7.77703V11.6366H42.2841V0.600586H45.3063C46.6369 0.600586 47.6322 0.865393 48.2933 1.39442C49.1325 2.07108 49.5527 3.03365 49.5527 4.2815C49.5527 5.61608 48.9887 6.53822 47.8611 7.04789L50.0551 11.6366ZM46.6226 4.31726C46.6226 3.49328 46.1955 3.08111 45.3416 3.08111H45.2355V5.71103H45.4337C45.7732 5.71103 46.0565 5.58038 46.2831 5.31791C46.5096 5.05634 46.6226 4.72268 46.6226 4.31726Z" fill="white"/>
<path d="M15.2294 5.05254L18.8564 1.38959L17.4805 0L14.5414 2.96814L11.6023 0L10.2263 1.38959L13.8534 5.05254C14.0434 5.24442 14.2924 5.34033 14.5414 5.34033C14.7904 5.34033 15.0394 5.24445 15.2294 5.05254ZM20.4801 8.96559L17.541 5.99748L20.4801 3.02928L19.1041 1.63969L15.477 5.30268C15.0971 5.68641 15.0971 6.30852 15.477 6.69225L19.1041 10.3552L20.4801 8.96559ZM14.5364 9.03186L17.4754 12L18.8514 10.6104L15.2243 6.94746C14.8443 6.56376 14.2283 6.56376 13.8484 6.94746L10.2213 10.6104L11.5973 12L14.5364 9.03186ZM13.6007 6.69735C13.7832 6.51309 13.8857 6.26316 13.8857 6.00255C13.8857 5.74197 13.7832 5.49204 13.6007 5.30778L9.97363 1.64481L8.59766 3.03441L11.5368 6.00252L8.59766 8.97072L9.97363 10.3603L13.6007 6.69735Z" fill="white"/>
</svg>
