<svg width="73" height="15" viewBox="0 0 73 15" fill="none" xmlns="http://www.w3.org/2000/svg">
<path d="M6.56855 14.0906C6.70459 14.0906 6.76289 14.0132 6.80176 13.8973L8.04552 10.1282L9.28929 13.8973C9.32815 14.0132 9.38646 14.0906 9.52249 14.0906H15.8773C16.0328 14.0906 16.1106 13.9939 16.0523 13.8393L11.3298 0.115972C11.3104 0.0386572 11.2327 0 11.1549 0H4.97498C4.87781 0 4.81951 0.0386572 4.78064 0.115972L0.019357 13.8393C-0.0389444 13.9939 0.0387908 14.0906 0.194261 14.0906H6.56855ZM30.8209 14.0906C30.9179 14.0906 30.9954 14.0132 30.9954 13.9166V8.176C30.9954 8.07936 30.9179 8.00205 30.8209 8.00205H27.5835C27.5642 8.00205 27.506 8.00205 27.4866 7.96339C27.4672 7.92473 27.4866 7.88608 27.506 7.84742L30.9566 0.367244C31.073 0.115972 30.9373 0 30.7822 0H17.251C17.1541 0 17.0766 0.0966431 17.0766 0.193286V5.93389C17.0766 6.03053 17.1541 6.10784 17.251 6.10784H20.5272C20.5466 6.10784 20.6047 6.10784 20.6241 6.1465C20.6435 6.18516 20.6241 6.22381 20.6047 6.26247L17.1153 13.7426C16.999 13.9746 17.1347 14.0906 17.2898 14.0906H30.8209ZM39.3576 14.0906C43.3051 14.0906 46.572 10.9787 46.572 7.0936V0.193286C46.572 0.0773145 46.4942 0 46.3775 0H40.0382C39.941 0 39.8632 0.0773145 39.8632 0.193286V6.97763C39.8632 7.26756 39.6298 7.48018 39.3576 7.48018C39.0853 7.48018 38.852 7.26756 38.852 6.97763V0.193286C38.852 0.0773145 38.7742 0 38.677 0H32.3377C32.221 0 32.1432 0.0773145 32.1432 0.193286V7.0936C32.1432 10.9787 35.4101 14.0906 39.3576 14.0906ZM54.6582 14.0906C54.7744 14.0906 54.8519 14.0132 54.8519 13.8973V9.27774H55.3943L57.3314 13.8973C57.3895 14.0132 57.4283 14.0906 57.5832 14.0906H64.1501C64.2857 14.0906 64.3244 14.0326 64.2469 13.8586L61.38 7.07427L64.2469 0.231943C64.3244 0.0579859 64.2857 0 64.1501 0H57.6026C57.4477 0 57.4089 0.0773145 57.3508 0.193286L55.3556 4.94813H54.8519V0.193286C54.8519 0.0966431 54.7744 0 54.6582 0H48.2657C48.1495 0 48.072 0.0579859 48.072 0.193286V13.8973C48.072 14.0132 48.1495 14.0906 48.2657 14.0906H54.6582ZM71.9498 14.0906C72.0467 14.0906 72.1437 14.0132 72.1437 13.8973V0.19318C72.1437 0.0965351 72.0467 0 71.9498 0H65.5518C65.4548 0 65.3579 0.0965351 65.3579 0.19318V13.8973C65.3579 14.0132 65.4548 14.0906 65.5518 14.0906H71.9498Z" fill="#040303"/>
</svg>
