<svg width="37" height="37" viewBox="0 0 37 37" fill="none" xmlns="http://www.w3.org/2000/svg">
<rect width="37" height="37" rx="3.33732" fill="#040303"/>
<g clip-path="url(#clip0_5609_31014)">
<rect width="27.1467" height="16.65" transform="translate(3.88672 8.70801)" fill="black"/>
<path d="M12.2332 22.0291L12.184 22.0742C11.4107 22.8182 10.5158 23.2112 9.59406 23.2112C7.66892 23.2112 6.27239 21.8475 6.27239 19.9664C6.27239 18.0883 7.66892 16.7223 9.59406 16.7223C10.5158 16.7223 11.4107 17.1176 12.184 17.8645L12.2332 17.9088L13.4713 16.4949L13.4382 16.4571C12.4087 15.3084 11.1729 14.7497 9.65407 14.7497C8.13135 14.7497 6.73713 15.2343 5.73378 16.1069C4.64118 17.0529 4.06641 18.3869 4.06641 19.9664C4.06641 21.546 4.64118 22.8828 5.73378 23.8288C6.73713 24.7065 8.13135 25.1875 9.65407 25.1875C11.1729 25.1875 12.4087 24.628 13.4382 23.4786L13.4713 23.4437L12.2332 22.0291Z" fill="white"/>
<path d="M14.7227 24.9946H16.9094V14.9128H14.7227V24.9946Z" fill="white"/>
<path d="M25.4739 22.803C24.8899 23.1387 24.3475 23.3079 23.8597 23.3079C23.1525 23.3079 22.8325 22.9548 22.8325 22.1701V16.8205H25.0615V14.9227H22.8325V11.7854L20.6896 12.8694V14.9227H18.8398V16.8205H20.6896V22.5109C20.6896 24.0607 21.6621 25.1214 23.1148 25.1491C24.1005 25.1672 24.6945 24.8897 25.0546 24.6862L25.0777 24.6724L25.6032 22.7281L25.4739 22.803Z" fill="white"/>
<path d="M27.2852 24.9946H29.475V14.9128H27.2852V24.9946Z" fill="white"/>
<path d="M30.752 13.1459C28.7537 10.4736 25.4359 8.8795 22.0604 8.8795C18.6856 8.8795 15.367 10.4736 13.3726 13.1459L13.2695 13.2832H15.7856L15.8133 13.2549C17.5253 11.5852 19.7613 10.7032 22.0604 10.7032C24.3595 10.7032 26.5939 11.5852 28.3098 13.2549L28.3375 13.2832H30.852L30.752 13.1459Z" fill="white"/>
</g>
<defs>
<clipPath id="clip0_5609_31014">
<rect width="27.1467" height="16.65" fill="white" transform="translate(3.88672 8.70801)"/>
</clipPath>
</defs>
</svg>
