<svg width="95" height="20" viewBox="0 0 95 20" fill="none" xmlns="http://www.w3.org/2000/svg">
<path d="M17.0164 2.71274H20.8389L20.0374 5.42551H19.3592V16.3998C19.6997 16.3998 19.9757 16.6759 19.9757 17.0164V17.7562H20.099C20.4395 17.7562 20.7156 18.0323 20.7156 18.3728V19.1126H13.8104V18.3728C13.8104 18.0323 14.0864 17.7562 14.4269 17.7562H14.5502V17.0164C14.5502 16.7181 14.7621 16.4693 15.0435 16.4122V10.3578H15.0241C14.8061 7.93817 12.7725 6.04203 10.2961 6.04203C7.81976 6.04203 5.78623 7.93817 5.56816 10.3578H5.54882V16.3998H5.67212C6.01262 16.3998 6.28866 16.6759 6.28867 17.0164V17.7562H6.41197C6.75247 17.7562 7.02849 18.0323 7.02849 18.3728V19.1126H0.123304V18.3728C0.123304 18.0323 0.399351 17.7562 0.739851 17.7562H0.863155V17.0164C0.86316 16.6759 1.13918 16.3998 1.47967 16.3998V5.42551H0.801517L0 2.71274H3.57592V0H17.0164V2.71274Z" fill="#040303"/>
<path fill-rule="evenodd" clip-rule="evenodd" d="M36.1886 6.57472C36.6039 6.57472 37.0176 6.62338 37.4296 6.72073C37.8413 6.81806 38.2175 6.97906 38.5582 7.20371C38.8989 7.42458 39.1722 7.72596 39.3783 8.10783C39.5878 8.48972 39.6926 8.96707 39.6926 9.53987V15.3129H37.7384V14.128H37.6709C37.5475 14.3676 37.3732 14.5922 37.1488 14.8019C36.928 15.0078 36.6488 15.1744 36.312 15.3017C35.9788 15.4252 35.5876 15.487 35.1382 15.487C34.5916 15.487 34.0994 15.3897 33.6614 15.195C33.2272 14.9966 32.8826 14.7045 32.6279 14.3189C32.3771 13.9333 32.2517 13.4578 32.2517 12.8925C32.2517 12.4058 32.3416 12.0034 32.5214 11.6851C32.7011 11.3669 32.9461 11.1123 33.2569 10.9214C33.5676 10.7304 33.9177 10.5863 34.3073 10.4889C34.7004 10.3879 35.1066 10.3148 35.5258 10.2699C36.0313 10.2175 36.4411 10.1707 36.7557 10.1295C37.07 10.0846 37.2986 10.0172 37.4407 9.92737C37.5869 9.83376 37.6598 9.68963 37.6598 9.49495V9.46124C37.6598 9.0382 37.5344 8.7106 37.2836 8.4785C37.0325 8.24636 36.6713 8.13029 36.1997 8.13029C35.7017 8.13029 35.3069 8.23886 35.0147 8.45601C34.7265 8.67316 34.5317 8.92961 34.4307 9.22539L32.5324 8.95584C32.6823 8.43169 32.9295 7.99366 33.2738 7.64173C33.6184 7.28605 34.0395 7.02023 34.5375 6.84428C35.0353 6.66458 35.5857 6.57472 36.1886 6.57472ZM37.6654 11.2022C37.6019 11.2546 37.4931 11.3032 37.3397 11.3482C37.1899 11.3931 37.0215 11.4324 36.8342 11.4661C36.6472 11.4998 36.4619 11.5297 36.2782 11.5559C36.0948 11.5822 35.9358 11.6046 35.801 11.6233C35.4977 11.6645 35.2261 11.7319 34.9867 11.8255C34.747 11.9191 34.5581 12.0501 34.4193 12.2186C34.2809 12.3833 34.2118 12.5967 34.2118 12.8588C34.2118 13.2332 34.3483 13.5159 34.6216 13.7068C34.8949 13.8977 35.2431 13.9932 35.6661 13.9932C36.0743 13.9932 36.428 13.9127 36.7276 13.7517C37.027 13.587 37.2573 13.3699 37.4182 13.1003C37.583 12.8307 37.6654 12.5368 37.6654 12.2186V11.2022Z" fill="#040303"/>
<path fill-rule="evenodd" clip-rule="evenodd" d="M60.3112 6.57472C60.7268 6.57472 61.1405 6.62338 61.5522 6.72073C61.9642 6.81806 62.3404 6.97906 62.6811 7.20371C63.0218 7.42458 63.2951 7.72596 63.501 8.10783C63.7107 8.48972 63.8153 8.96707 63.8153 9.53987V15.3129H61.861V14.128H61.7939C61.6701 14.3676 61.4962 14.5922 61.2714 14.8019C61.0506 15.0078 60.7718 15.1744 60.4347 15.3017C60.1015 15.4252 59.7103 15.487 59.2611 15.487C58.7143 15.487 58.2221 15.3897 57.784 15.195C57.3498 14.9966 57.0052 14.7045 56.7508 14.3189C56.5 13.9333 56.3743 13.4578 56.3743 12.8925C56.3743 12.4058 56.4642 12.0034 56.644 11.6851C56.8238 11.3669 57.0691 11.1123 57.3798 10.9214C57.6905 10.7304 58.0404 10.5863 58.4299 10.4889C58.823 10.3879 59.2292 10.3148 59.6484 10.2699C60.1539 10.2175 60.564 10.1707 60.8783 10.1295C61.1929 10.0846 61.4213 10.0172 61.5636 9.92737C61.7095 9.83376 61.7825 9.68963 61.7825 9.49495V9.46124C61.7825 9.03821 61.6571 8.7106 61.4063 8.4785C61.1555 8.24636 60.7942 8.13029 60.3223 8.13029C59.8246 8.13029 59.4295 8.23886 59.1374 8.45601C58.8491 8.67316 58.6546 8.92961 58.5534 9.22539L56.6554 8.95584C56.8049 8.4317 57.0521 7.99366 57.3964 7.64173C57.741 7.28605 58.1622 7.02023 58.6602 6.84428C59.1582 6.66458 59.7084 6.57472 60.3112 6.57472ZM61.788 11.2022C61.7245 11.2546 61.616 11.3032 61.4623 11.3482C61.3125 11.3931 61.1441 11.4324 60.9571 11.4661C60.7698 11.4998 60.5845 11.5297 60.4011 11.5559C60.2174 11.5822 60.0585 11.6046 59.9236 11.6233C59.6204 11.6645 59.3491 11.7319 59.1093 11.8255C58.8696 11.9191 58.6807 12.0501 58.5422 12.2186C58.4035 12.3833 58.3345 12.5967 58.3345 12.8588C58.3345 13.2332 58.471 13.5159 58.7442 13.7068C59.0175 13.8977 59.3657 13.9932 59.7888 13.9932C60.1969 13.9932 60.5507 13.9127 60.8503 13.7517C61.1499 13.587 61.3799 13.3699 61.5411 13.1003C61.7057 12.8307 61.788 12.5368 61.788 12.2186V11.2022Z" fill="#040303"/>
<path d="M51.4032 6.57472C52.1031 6.57472 52.7226 6.7039 53.262 6.96222C53.8047 7.2168 54.2372 7.57809 54.559 8.04608C54.8811 8.51032 55.0645 9.05314 55.1095 9.67463H53.1666C53.0878 9.25906 52.9005 8.91277 52.6047 8.63572C52.3129 8.35495 51.9217 8.21452 51.4312 8.21452C51.0156 8.21452 50.6504 8.32684 50.3361 8.55149C50.0215 8.77239 49.7762 9.09062 49.6003 9.50619C49.4281 9.92174 49.3421 10.4197 49.3421 11C49.3421 11.5878 49.4281 12.0932 49.6003 12.5162C49.7726 12.9356 50.014 13.2594 50.3247 13.4878C50.6394 13.7124 51.0081 13.8247 51.4312 13.8247C51.7305 13.8247 51.9983 13.7686 52.2341 13.6563C52.4738 13.5402 52.6741 13.3736 52.835 13.1564C52.9962 12.9393 53.1066 12.6754 53.1666 12.3646H55.1095C55.0609 12.9748 54.8811 13.5159 54.5704 13.9876C54.2597 14.4556 53.8366 14.8225 53.3011 15.0883C52.7659 15.3503 52.137 15.4814 51.4142 15.4814C50.5533 15.4814 49.8137 15.2923 49.1961 14.9142C48.5821 14.5361 48.1085 14.0138 47.7753 13.3474C47.4457 12.6772 47.2809 11.906 47.2809 11.0337C47.2809 10.1576 47.4496 9.38451 47.7864 8.71435C48.1235 8.04045 48.5988 7.51628 49.213 7.1419C49.8306 6.76378 50.5609 6.57472 51.4032 6.57472Z" fill="#040303"/>
<path d="M69.2065 6.57472C70.2175 6.57472 71.0129 6.78998 71.5933 7.22053C72.1774 7.65106 72.5386 8.23325 72.6773 8.96705L70.824 9.16923C70.7716 8.98204 70.6797 8.80607 70.5488 8.64136C70.4214 8.47661 70.2492 8.34372 70.0322 8.24262C69.815 8.14155 69.5492 8.09097 69.2346 8.09097C68.8117 8.09097 68.456 8.1827 68.1678 8.36614C67.8831 8.54961 67.7428 8.78733 67.7464 9.07936C67.7428 9.33019 67.8346 9.53426 68.0216 9.69149C68.2127 9.84874 68.5271 9.97789 68.9652 10.079L70.4364 10.3935C71.2527 10.5694 71.8592 10.8484 72.2559 11.2302C72.6565 11.6121 72.8588 12.1119 72.8624 12.7297C72.8588 13.2725 72.6995 13.7517 72.3852 14.1673C72.0744 14.5791 71.6419 14.9011 71.0879 15.1332C70.5338 15.3653 69.8974 15.4814 69.1785 15.4814C68.1229 15.4814 67.2728 15.2605 66.6288 14.8187C65.9849 14.3732 65.6012 13.7536 65.4777 12.9599L67.46 12.769C67.5499 13.1583 67.7408 13.4522 68.033 13.6507C68.3248 13.8491 68.7049 13.9483 69.173 13.9483C69.656 13.9483 70.0433 13.8491 70.3354 13.6507C70.6312 13.4522 70.7791 13.207 70.7791 12.9149C70.7791 12.6679 70.6836 12.4638 70.4927 12.3028C70.3055 12.1419 70.0133 12.0183 69.6166 11.9322L68.1453 11.6233C67.3177 11.4511 66.7057 11.1609 66.3089 10.7529C65.9119 10.3411 65.7155 9.82067 65.7191 9.19169C65.7155 8.66006 65.8595 8.19956 66.1516 7.8102C66.4474 7.4171 66.8574 7.11385 67.3815 6.90044C67.9092 6.68329 68.5177 6.57472 69.2065 6.57472Z" fill="#040303"/>
<path fill-rule="evenodd" clip-rule="evenodd" d="M84.1659 6.57472C84.6974 6.57472 85.1991 6.66083 85.6707 6.83303C86.1462 7.00152 86.5654 7.2636 86.9286 7.61924C87.2957 7.97492 87.5839 8.42794 87.7937 8.9783C88.0031 9.52488 88.108 10.1763 88.108 10.9326V11.5559H82.0995C82.1055 12.0361 82.1969 12.4497 82.3744 12.797C82.5578 13.1527 82.8142 13.426 83.1438 13.6169C83.4731 13.8041 83.8587 13.8977 84.3004 13.8977C84.5961 13.8977 84.8639 13.8566 85.1036 13.7742C85.343 13.6881 85.5508 13.5627 85.727 13.3979C85.9029 13.2332 86.0358 13.0292 86.1257 12.7858L88.0237 12.9992C87.9041 13.5009 87.6755 13.9389 87.3387 14.3133C87.0055 14.6839 86.5788 14.9722 86.0583 15.1781C85.5378 15.3803 84.9427 15.4814 84.2724 15.4814C83.4076 15.4814 82.6607 15.3017 82.0318 14.9423C81.4064 14.5791 80.9254 14.0662 80.5885 13.4035C80.2515 12.7371 80.083 11.9528 80.083 11.0505C80.083 10.1632 80.2515 9.38451 80.5885 8.71435C80.9292 8.04045 81.4045 7.51628 82.0148 7.1419C82.6252 6.76378 83.3421 6.57472 84.1659 6.57472ZM84.1939 8.15838C83.7783 8.15838 83.4132 8.25945 83.0988 8.46162C82.7842 8.66004 82.539 8.92211 82.3631 9.24783C82.2093 9.53512 82.1228 9.84774 82.1034 10.1857H86.1593C86.1556 9.79633 86.0713 9.45 85.9065 9.14677C85.742 8.83978 85.5117 8.59828 85.216 8.42233C84.9238 8.24635 84.5831 8.15838 84.1939 8.15838Z" fill="#040303"/>
<path d="M77.1447 6.68703H78.8462V8.25947H77.1447V12.7184C77.1447 12.9917 77.1857 13.2014 77.2681 13.3474C77.3541 13.4897 77.4665 13.587 77.6049 13.6394C77.7437 13.6918 77.8971 13.718 78.0655 13.718C78.1928 13.718 78.3088 13.7087 78.4137 13.69C78.5224 13.6712 78.6046 13.6544 78.6609 13.6394L79.0035 15.2287C78.8948 15.2661 78.7394 15.3073 78.5371 15.3522C78.3388 15.3972 78.0955 15.4234 77.8072 15.4309C77.2981 15.4458 76.8395 15.3691 76.4314 15.2006C76.0233 15.0284 75.6995 14.7626 75.4598 14.4032C75.2313 14.055 75.1153 13.6225 75.1116 13.1057V8.25947H73.8875V6.68703H75.1116V4.62042H77.1447V6.68703Z" fill="#040303"/>
<path d="M30.2286 3.27261C30.5807 3.27261 30.8931 3.30069 31.1666 3.35684C31.4399 3.41302 31.6419 3.46354 31.7731 3.50849L31.3686 5.08093C31.2826 5.05471 31.1741 5.02852 31.0429 5.00231C30.9119 4.97234 30.766 4.95738 30.6048 4.95738C30.2267 4.95738 29.9592 5.0491 29.8019 5.23255C29.6485 5.41225 29.5716 5.67057 29.5716 6.00751V6.68703H31.3575V8.25947H29.5716V15.3129H27.533V8.25947H26.2584V6.68703H27.533V5.87272C27.533 5.29243 27.6528 4.80946 27.8925 4.42385C28.1359 4.03824 28.4616 3.74995 28.8697 3.55902C29.2778 3.36808 29.7309 3.27261 30.2286 3.27261Z" fill="#040303"/>
<path d="M45.9262 6.56348C46.0386 6.56348 46.164 6.56912 46.3024 6.58033C46.4447 6.58782 46.5627 6.60094 46.6564 6.61964V8.48969C46.5701 8.45975 46.4336 8.43353 46.2464 8.41109C46.063 8.38487 45.8851 8.37177 45.7129 8.37177C45.3422 8.37177 45.009 8.45226 44.7132 8.61326C44.4214 8.77049 44.1911 8.98952 44.0224 9.27031C43.854 9.55111 43.7699 9.87493 43.7699 10.2418V15.3129H41.7368V6.68703H43.7081V8.12468H43.798C43.955 7.62676 44.2247 7.243 44.6064 6.97343C44.992 6.70016 45.4321 6.56348 45.9262 6.56348Z" fill="#040303"/>
<path d="M94.0172 6.56348C94.1296 6.56348 94.255 6.56912 94.3934 6.58033C94.5357 6.58782 94.6537 6.60094 94.7475 6.61964V8.48969C94.6612 8.45975 94.5247 8.43353 94.3374 8.41109C94.154 8.38487 93.9762 8.37177 93.8039 8.37177C93.4332 8.37177 93.1 8.45227 92.8043 8.61326C92.5121 8.77049 92.2821 8.98952 92.1134 9.27031C91.945 9.55111 91.8607 9.87493 91.8607 10.2418V15.3129H89.8279V6.68703H91.7991V8.12468H91.889C92.046 7.62676 92.3157 7.243 92.6974 6.97343C93.0831 6.70016 93.5231 6.56348 94.0172 6.56348Z" fill="#040303"/>
</svg>
