<svg width="36" height="10" viewBox="0 0 36 10" fill="none" xmlns="http://www.w3.org/2000/svg">
<path d="M10.4904 0H0.238419C0.175186 0 0.114544 0.0234116 0.0698309 0.0650847C0.0251188 0.106758 0 0.163279 0 0.222214V9.77736C0 9.8363 0.0251188 9.89288 0.0698309 9.93457C0.114544 9.97617 0.175186 9.99958 0.238419 9.99958H10.4904C10.5537 9.99958 10.6143 9.97617 10.659 9.93457C10.7037 9.89288 10.7289 9.8363 10.7289 9.77736V0.222214C10.7289 0.163279 10.7037 0.106758 10.659 0.0650847C10.6143 0.0234116 10.5537 0 10.4904 0ZM7.15256 6.4442C7.15256 6.50313 7.12744 6.55965 7.08272 6.60132C7.03801 6.64299 6.97737 6.6664 6.91414 6.6664H3.81469C3.75146 6.6664 3.69082 6.64299 3.64611 6.60132C3.6014 6.55965 3.57628 6.50313 3.57628 6.4442V3.55542C3.57628 3.49648 3.6014 3.43996 3.64611 3.39829C3.69082 3.35661 3.75146 3.3332 3.81469 3.3332H6.91414C6.97737 3.3332 7.03801 3.35661 7.08272 3.39829C7.12744 3.43996 7.15256 3.49648 7.15256 3.55542V6.4442Z" fill="white"/>
<path d="M31.9512 3.33398H28.8517C28.7201 3.33398 28.6133 3.43347 28.6133 3.5562V6.44497C28.6133 6.56769 28.7201 6.66719 28.8517 6.66719H31.9512C32.0829 6.66719 32.1896 6.56769 32.1896 6.44497V3.5562C32.1896 3.43347 32.0829 3.33398 31.9512 3.33398Z" fill="white"/>
<path d="M28.3808 0H25.2814C25.1497 0 25.043 0.0994887 25.043 0.222213V3.11099C25.043 3.23371 25.1497 3.33321 25.2814 3.33321H28.3808C28.5125 3.33321 28.6193 3.23371 28.6193 3.11099V0.222213C28.6193 0.0994887 28.5125 0 28.3808 0Z" fill="white"/>
<path d="M35.5332 0H32.4337C32.3021 0 32.1953 0.0994887 32.1953 0.222213V3.11099C32.1953 3.23371 32.3021 3.33321 32.4337 3.33321H35.5332C35.6649 3.33321 35.7716 3.23371 35.7716 3.11099V0.222213C35.7716 0.0994887 35.6649 0 35.5332 0Z" fill="white"/>
<path d="M28.3808 6.66748H25.2814C25.1497 6.66748 25.043 6.76696 25.043 6.88969V9.7785C25.043 9.90119 25.1497 10.0007 25.2814 10.0007H28.3808C28.5125 10.0007 28.6193 9.90119 28.6193 9.7785V6.88969C28.6193 6.76696 28.5125 6.66748 28.3808 6.66748Z" fill="white"/>
<path d="M35.5332 6.66748H32.4337C32.3021 6.66748 32.1953 6.76696 32.1953 6.88969V9.7785C32.1953 9.90119 32.3021 10.0007 32.4337 10.0007H35.5332C35.6649 10.0007 35.7716 9.90119 35.7716 9.7785V6.88969C35.7716 6.76696 35.6649 6.66748 35.5332 6.66748Z" fill="white"/>
<path d="M23.0059 0H19.9065C19.7748 0 19.668 0.0994887 19.668 0.222213V3.11099C19.668 3.23371 19.7748 3.33321 19.9065 3.33321H23.0059C23.1376 3.33321 23.2443 3.23371 23.2443 3.11099V0.222213C23.2443 0.0994887 23.1376 0 23.0059 0Z" fill="white"/>
<path d="M23.0059 6.66748H19.9065C19.7748 6.66748 19.668 6.76696 19.668 6.88969V9.7785C19.668 9.90119 19.7748 10.0007 19.9065 10.0007H23.0059C23.1376 10.0007 23.2443 9.90119 23.2443 9.7785V6.88969C23.2443 6.76696 23.1376 6.66748 23.0059 6.66748Z" fill="white"/>
<path d="M19.6682 3.55292C19.6682 3.49398 19.6431 3.43746 19.5984 3.39579C19.5537 3.35412 19.493 3.3307 19.4298 3.3307H16.0919V0.222214C16.0919 0.163279 16.0668 0.106758 16.0221 0.0650847C15.9774 0.0234116 15.9167 0 15.8535 0H12.7541C12.6908 0 12.6302 0.0234116 12.5855 0.0650847C12.5408 0.106758 12.5156 0.163279 12.5156 0.222214V9.7724C12.5156 9.83134 12.5408 9.88784 12.5855 9.92952C12.6302 9.97121 12.6908 9.99461 12.7541 9.99461H15.8535C15.9167 9.99461 15.9774 9.97121 16.0221 9.92952C16.0668 9.88784 16.0919 9.83134 16.0919 9.7724V6.66391H19.4298C19.493 6.66391 19.5537 6.64049 19.5984 6.59883C19.6431 6.55715 19.6682 6.50063 19.6682 6.44169V3.55292Z" fill="white"/>
</svg>
