<svg width="84" height="20" viewBox="0 0 84 20" fill="none" xmlns="http://www.w3.org/2000/svg">
<path d="M9.55636 4.29999C8.16229 4.29999 6.8253 4.85378 5.83954 5.83954C4.85378 6.8253 4.29999 8.16228 4.29999 9.55636C4.30001 10.9504 4.8538 12.2874 5.83954 13.2732C6.8253 14.2589 8.16232 14.8127 9.55636 14.8127C10.9504 14.8127 12.2874 14.2589 13.2732 13.2732C14.2589 12.2874 14.8127 10.9504 14.8127 9.55636H19.1125C19.1125 11.4464 18.5521 13.294 17.5021 14.8655C16.4521 16.437 14.9596 17.6619 13.2134 18.3852C11.4672 19.1085 9.54565 19.2977 7.69191 18.9289C5.83819 18.5602 4.13535 17.6501 2.79889 16.3136C1.46244 14.9772 0.552318 13.2743 0.18359 11.4206C-0.185132 9.56689 0.00422895 7.64549 0.727505 5.89932C1.45079 4.15317 2.67557 2.66066 4.24705 1.61061C5.81857 0.56055 7.66631 0 9.55636 0V4.29999Z" fill="#040303"/>
<path d="M27.0516 3.37119C28.1629 3.22034 29.2942 3.35174 30.3413 3.75326C31.3884 4.15477 32.3175 4.81348 33.0429 5.66863L31.1445 7.21865C30.6795 6.68613 30.0883 6.27882 29.4252 6.03379C28.762 5.78876 28.0479 5.71392 27.3483 5.81619C26.6488 5.91845 25.9861 6.19442 25.4209 6.61897C24.8556 7.04359 24.4057 7.60332 24.1126 8.24669C23.8195 8.89005 23.6925 9.59661 23.743 10.3018C23.7936 11.007 24.0202 11.6882 24.4021 12.2832C24.784 12.8782 25.3091 13.368 25.9292 13.7076C26.5492 14.0471 27.2445 14.2257 27.9514 14.2271C28.8467 14.2502 29.7226 13.9646 30.4321 13.4181C31.1415 12.8716 31.6413 12.0975 31.8474 11.2259H28.5308V8.77289L34.4343 8.76263C34.4735 9.46608 34.4633 10.1715 34.4035 10.8735C34.258 12.3458 33.6195 13.7259 32.5916 14.79C31.9842 15.3994 31.2597 15.8798 30.4621 16.2025C29.6644 16.5252 28.8098 16.6834 27.9494 16.6677C26.828 16.6676 25.7246 16.3852 24.7411 15.8464C23.7576 15.3076 22.9256 14.5298 22.3219 13.5848C21.7181 12.6398 21.3621 11.5579 21.2866 10.4391C21.211 9.32018 21.4184 8.20023 21.8897 7.18262C22.3609 6.16502 23.0809 5.28255 23.983 4.61643C24.8851 3.95032 25.9404 3.52204 27.0516 3.37119Z" fill="#040303"/>
<path fill-rule="evenodd" clip-rule="evenodd" d="M78.1013 5.36769C78.8088 5.36769 79.5094 5.50717 80.1629 5.77814C80.8164 6.04912 81.4101 6.44628 81.91 6.94689C82.4098 7.44754 82.8063 8.04186 83.0763 8.6958C83.3463 9.34971 83.4846 10.0505 83.4835 10.7579C83.4835 11.8224 83.1678 12.863 82.5765 13.748C81.9851 14.6331 81.1445 15.3231 80.1611 15.7305C79.1776 16.1378 78.0954 16.2443 77.0514 16.0366C76.0074 15.829 75.0484 15.3164 74.2957 14.5637C73.543 13.811 73.0303 12.8519 72.8226 11.8079C72.615 10.7639 72.7217 9.68182 73.129 8.69841C73.5364 7.71498 74.2262 6.8744 75.1112 6.283C75.9963 5.69162 77.0369 5.37596 78.1013 5.37594V5.36769ZM79.3192 7.81994C78.7384 7.57904 78.0993 7.51575 77.4825 7.63816C76.8659 7.76057 76.2993 8.06317 75.8546 8.50758C75.4099 8.95203 75.1068 9.51846 74.984 10.1351C74.8612 10.7517 74.9241 11.3909 75.1646 11.9718C75.4051 12.5527 75.8126 13.0492 76.3353 13.3986C76.8581 13.7479 77.4726 13.9344 78.1013 13.9345V13.9262C78.9427 13.9267 79.7501 13.5936 80.3461 12.9996C80.942 12.4056 81.2777 11.5993 81.2799 10.7579C81.2803 10.1292 81.0942 9.51447 80.7452 8.99151C80.3962 8.46854 79.9 8.06082 79.3192 7.81994Z" fill="#040303"/>
<path fill-rule="evenodd" clip-rule="evenodd" d="M59.4919 5.36346C60.2676 5.36376 61.034 5.53182 61.7388 5.85584C62.4436 6.17988 63.0702 6.65236 63.5755 7.24099C64.0807 7.82961 64.4527 8.52053 64.6661 9.26628C64.8795 10.0121 64.9294 10.7951 64.8121 11.5619H56.4102C56.571 12.1678 56.9075 12.7126 57.3772 13.1278C57.8469 13.543 58.4289 13.8101 59.05 13.8954C59.6711 13.9806 60.3036 13.8804 60.8678 13.6071C61.432 13.3339 61.9027 12.8998 62.2209 12.3597L64.2102 13.3263C63.7564 14.162 63.0892 14.8626 62.2767 15.3566C61.4642 15.8507 60.5352 16.1207 59.5845 16.1391C58.6337 16.1575 57.6951 15.9236 56.8641 15.4613C56.0331 14.9991 55.3393 14.325 54.8535 13.5075C54.3677 12.69 54.1074 11.7583 54.0986 10.8074C54.0899 9.85658 54.3331 8.92037 54.8038 8.09411C55.2745 7.26783 55.9558 6.5809 56.7781 6.10344C57.6005 5.626 58.5347 5.37503 59.4856 5.37594L59.4919 5.36346ZM59.4846 7.57757C58.8384 7.57757 58.2074 7.77472 57.6761 8.14262C57.1449 8.51053 56.7385 9.03176 56.5112 9.63668H62.458C62.2307 9.03175 61.8242 8.51053 61.2929 8.14262C60.7616 7.77474 60.1308 7.57758 59.4846 7.57757Z" fill="#040303"/>
<path fill-rule="evenodd" clip-rule="evenodd" d="M38.1727 5.95992C39.059 5.51032 40.0527 5.31502 41.0432 5.39567C42.0338 5.47633 42.9827 5.82983 43.7846 6.41687V5.67065H45.988V15.8432H43.7846V15.0992C42.9827 15.6862 42.0338 16.0397 41.0432 16.1204C40.0527 16.201 39.059 16.0057 38.1727 15.5561C37.2864 15.1065 36.5418 14.42 36.0218 13.5731C35.5018 12.7262 35.2265 11.7517 35.2265 10.7579C35.2265 9.7641 35.5018 8.78963 36.0218 7.94273C36.5418 7.09582 37.2864 6.40951 38.1727 5.95992ZM41.8237 7.81168C41.243 7.57083 40.6039 7.50753 39.9872 7.62991C39.3705 7.75232 38.8038 8.05489 38.3591 8.49933C37.9144 8.94377 37.6115 9.51021 37.4887 10.1268C37.3659 10.7435 37.4287 11.3826 37.6692 11.9635C37.9098 12.5444 38.3171 13.041 38.8398 13.3903C39.3626 13.7397 39.9773 13.9262 40.606 13.9262C41.0233 13.9265 41.4367 13.8445 41.8223 13.685C42.2079 13.5255 42.5582 13.2915 42.8533 12.9966C43.1485 12.7016 43.3828 12.3513 43.5426 11.9657C43.7023 11.5802 43.7846 11.1669 43.7846 10.7497C43.785 10.121 43.5989 9.50621 43.2499 8.98325C42.9009 8.46027 42.4045 8.05258 41.8237 7.81168Z" fill="#040303"/>
<path d="M50.7168 5.6789H53.4212V7.75874H50.7105V12.8192C50.7105 13.3469 50.8445 13.6603 51.098 13.8994C51.2321 14.0288 51.3931 14.127 51.5695 14.1869C51.7459 14.2467 51.9333 14.2667 52.1184 14.2457C52.5663 14.2373 53.0085 14.1435 53.4212 13.9695V15.6433C53.1455 15.7932 52.8527 15.9095 52.5492 15.9895C51.7853 16.175 50.9881 16.175 50.2242 15.9895C49.8876 15.8933 49.5777 15.7206 49.3191 15.4847C49.0503 15.2455 48.8443 14.9438 48.7193 14.6064C48.568 14.1537 48.4982 13.6778 48.5131 13.2007V7.75874H47.194V5.6789H48.5131V3.30838H50.7168V5.6789Z" fill="#040303"/>
<path d="M67.8628 15.8514H65.4923V13.4727H67.8628V15.8514Z" fill="#040303"/>
<path d="M71.4846 15.8514H69.1141V6.72184H71.4846V15.8514Z" fill="#040303"/>
<path d="M14.8127 4.29999V9.55636H9.55636V4.29999H14.8127Z" fill="#040303"/>
<path d="M71.4846 5.68715H69.1141V3.31663H71.4846V5.68715Z" fill="#040303"/>
</svg>
