<svg width="39" height="22" viewBox="0 0 39 22" fill="none" xmlns="http://www.w3.org/2000/svg">
<path d="M9.13492 0.171801V8.75879H6.62016V0.171801H9.13492ZM12.3244 8.13317L12.8151 8.75879H9.09812V8.13317H12.3244ZM13.318 5.91282L12.8519 8.75879H10.2022L10.6438 8.13317C11.0363 8.13317 11.4003 8.0473 11.7356 7.87556C12.079 7.69564 12.3775 7.44212 12.6311 7.11499C12.8846 6.77969 13.0727 6.37897 13.1953 5.91282H13.318ZM6.65696 7.86329V8.75879H5.67559V8.63612C5.67559 8.63612 5.70013 8.63612 5.7492 8.63612C5.80644 8.63612 5.83507 8.63612 5.83507 8.63612C6.0477 8.63612 6.22761 8.56252 6.37482 8.41531C6.5302 8.25993 6.61198 8.07592 6.62016 7.86329H6.65696ZM6.65696 1.0673H6.62016C6.61198 0.854671 6.5302 0.674753 6.37482 0.527548C6.22761 0.372164 6.0477 0.294472 5.83507 0.294472C5.83507 0.294472 5.80644 0.294472 5.7492 0.294472C5.70013 0.294472 5.67559 0.294472 5.67559 0.294472V0.171801H6.65696V1.0673ZM9.09812 1.0673V0.171801H10.0795V0.294472C10.0713 0.294472 10.0427 0.294472 9.99362 0.294472C9.94455 0.294472 9.92002 0.294472 9.92002 0.294472C9.70739 0.294472 9.52338 0.372164 9.368 0.527548C9.22079 0.674753 9.1431 0.854671 9.13492 1.0673H9.09812ZM22.6452 0.171801V8.75879H20.1305V0.171801H22.6452ZM16.8306 0.171801V8.75879H14.3159V0.171801H16.8306ZM20.2409 4.15862V4.77197H16.708V4.15862H20.2409ZM14.3527 7.86329V8.75879H13.3713V8.63612C13.3713 8.63612 13.3958 8.63612 13.4449 8.63612C13.5021 8.63612 13.5308 8.63612 13.5308 8.63612C13.7434 8.63612 13.9233 8.56252 14.0705 8.41531C14.2259 8.25993 14.3077 8.07592 14.3159 7.86329H14.3527ZM14.3527 1.0673H14.3159C14.3077 0.854671 14.2259 0.674753 14.0705 0.527548C13.9233 0.372164 13.7434 0.294472 13.5308 0.294472C13.5308 0.294472 13.5021 0.294472 13.4449 0.294472C13.3958 0.294472 13.3713 0.294472 13.3713 0.294472V0.171801H14.3527V1.0673ZM16.7938 7.86329H16.8306C16.8388 8.07592 16.9165 8.25993 17.0637 8.41531C17.2191 8.56252 17.4031 8.63612 17.6157 8.63612C17.6157 8.63612 17.6403 8.63612 17.6893 8.63612C17.7384 8.63612 17.767 8.63612 17.7752 8.63612V8.75879H16.7938V7.86329ZM16.7938 1.0673V0.171801H17.7752V0.294472C17.767 0.294472 17.7384 0.294472 17.6893 0.294472C17.6403 0.294472 17.6157 0.294472 17.6157 0.294472C17.4031 0.294472 17.2191 0.372164 17.0637 0.527548C16.9165 0.674753 16.8388 0.854671 16.8306 1.0673H16.7938ZM20.1673 7.86329V8.75879H19.1859V8.63612C19.1941 8.63612 19.2227 8.63612 19.2718 8.63612C19.3209 8.63612 19.3454 8.63612 19.3454 8.63612C19.558 8.63612 19.742 8.56252 19.8974 8.41531C20.0528 8.25993 20.1305 8.07592 20.1305 7.86329H20.1673ZM20.1673 1.0673H20.1305C20.1305 0.854671 20.0528 0.674753 19.8974 0.527548C19.742 0.372164 19.558 0.294472 19.3454 0.294472C19.3454 0.294472 19.3209 0.294472 19.2718 0.294472C19.2227 0.294472 19.1941 0.294472 19.1859 0.294472V0.171801H20.1673V1.0673ZM22.6084 7.86329H22.6452C22.6534 8.07592 22.7311 8.25993 22.8783 8.41531C23.0337 8.56252 23.2177 8.63612 23.4303 8.63612C23.4303 8.63612 23.4549 8.63612 23.5039 8.63612C23.5612 8.63612 23.5898 8.63612 23.5898 8.63612V8.75879H22.6084V7.86329ZM22.6084 1.0673V0.171801H23.5898V0.294472C23.5898 0.294472 23.5612 0.294472 23.5039 0.294472C23.4549 0.294472 23.4303 0.294472 23.4303 0.294472C23.2177 0.294472 23.0337 0.372164 22.8783 0.527548C22.7311 0.674753 22.6534 0.854671 22.6452 1.0673H22.6084ZM32.3491 5.17679L32.6435 7.40941C32.48 7.67928 32.251 7.92871 31.9566 8.1577C31.6703 8.38669 31.2982 8.57478 30.8403 8.72199C30.3905 8.86102 29.8425 8.93053 29.1965 8.93053C28.1006 8.92235 27.1479 8.74652 26.3382 8.40304C25.5368 8.05138 24.9193 7.54434 24.4859 6.88192C24.0524 6.21949 23.8357 5.40986 23.8357 4.45303C23.8357 3.52073 24.0484 2.72336 24.4736 2.06094C24.8989 1.39034 25.5122 0.879206 26.3137 0.527548C27.1151 0.17589 28.0802 6.11525e-05 29.2087 6.11525e-05C29.8957 6.11525e-05 30.505 0.0573077 31.0365 0.171801C31.5763 0.286294 32.0179 0.417143 32.3614 0.564349L32.2387 2.90737H32.1283C31.883 2.04049 31.5272 1.44349 31.0611 1.11637C30.5949 0.781068 30.047 0.613418 29.4173 0.613418C28.8121 0.613418 28.2928 0.764712 27.8593 1.0673C27.4341 1.36989 27.107 1.80333 26.878 2.36762C26.649 2.9319 26.5345 3.61477 26.5345 4.41623C26.5345 5.21768 26.6408 5.90873 26.8534 6.48937C27.0661 7.06184 27.3687 7.50754 27.7612 7.82649C28.1619 8.13725 28.6404 8.30082 29.1965 8.31717C29.8589 8.31717 30.3864 8.21904 30.7789 8.02276C31.1715 7.82649 31.4781 7.49936 31.699 7.04139C31.9198 6.57524 32.1038 5.95371 32.251 5.17679H32.3491ZM6.07989 19.2002L6.29018 20.7949C6.17335 20.9877 6.00979 21.1659 5.7995 21.3294C5.59504 21.493 5.32926 21.6274 5.00213 21.7325C4.68085 21.8318 4.28947 21.8815 3.82799 21.8815C3.04524 21.8756 2.3647 21.75 1.78639 21.5047C1.21393 21.2535 0.772896 20.8913 0.463297 20.4182C0.153698 19.945 -0.0011012 19.3667 -0.0011012 18.6832C-0.0011012 18.0173 0.150778 17.4478 0.454535 16.9746C0.758292 16.4956 1.1964 16.1305 1.76887 15.8793C2.34134 15.6281 3.03063 15.5026 3.83676 15.5026C4.32744 15.5026 4.76263 15.5434 5.14233 15.6252C5.52787 15.707 5.84331 15.8005 6.08865 15.9056L6.00103 17.5792H5.92217C5.74692 16.96 5.49282 16.5336 5.15985 16.2999C4.82689 16.0604 4.43551 15.9407 3.98571 15.9407C3.55344 15.9407 3.18251 16.0487 2.87291 16.2649C2.56915 16.481 2.33549 16.7906 2.17193 17.1937C2.00837 17.5967 1.92659 18.0845 1.92659 18.657C1.92659 19.2294 2.00253 19.723 2.15441 20.1378C2.30629 20.5467 2.52242 20.865 2.80281 21.0929C3.08905 21.3148 3.43077 21.4317 3.82799 21.4433C4.30115 21.4433 4.67793 21.3733 4.95832 21.2331C5.23871 21.0929 5.45777 20.8592 5.61549 20.5321C5.77321 20.1991 5.90464 19.7552 6.00979 19.2002H6.07989ZM9.49688 15.4149L12.5286 21.7062H10.4257L8.73457 17.6581L9.49688 15.4149ZM7.613 21.1191C7.56043 21.236 7.54875 21.3353 7.57796 21.4171C7.60716 21.4988 7.65682 21.5631 7.72691 21.6098C7.80285 21.6507 7.87587 21.6712 7.94597 21.6712H8.02483V21.7588H6.07085V21.6712C6.07085 21.6712 6.08546 21.6712 6.11466 21.6712C6.13803 21.6712 6.14971 21.6712 6.14971 21.6712C6.28407 21.6712 6.42134 21.6303 6.56154 21.5485C6.70757 21.4609 6.82732 21.3178 6.92079 21.1191H7.613ZM9.49688 15.4149V16.7818L7.34138 21.7325H6.63163L8.91858 16.7205C8.94778 16.6679 8.98575 16.5862 9.03249 16.4752C9.08506 16.3583 9.13763 16.2327 9.19021 16.0984C9.24862 15.964 9.29827 15.8355 9.33916 15.7128C9.3859 15.5902 9.41218 15.4909 9.41802 15.4149H9.49688ZM10.2154 19.8661V20.3043H7.73568V19.8661H10.2154ZM10.1716 21.1191H12.2395C12.3388 21.3178 12.4585 21.4609 12.5987 21.5485C12.7389 21.6303 12.8762 21.6712 13.0105 21.6712C13.0105 21.6712 13.0222 21.6712 13.0456 21.6712C13.069 21.6712 13.0806 21.6712 13.0806 21.6712V21.7588H9.75975V21.6712H9.83861C9.95544 21.6712 10.0577 21.6244 10.1453 21.531C10.2388 21.4317 10.2475 21.2944 10.1716 21.1191ZM15.1724 15.6252H16.1538C16.7379 15.6252 17.2023 15.7041 17.547 15.8618C17.8916 16.0137 18.1428 16.2152 18.3005 16.4664C18.4641 16.7176 18.5546 16.9951 18.5722 17.2988C18.5897 17.6201 18.54 17.9122 18.4232 18.175C18.3122 18.4379 18.1516 18.657 17.9413 18.8322C17.7368 19.0074 17.5032 19.133 17.2403 19.209C16.9774 19.2791 16.7029 19.2908 16.4167 19.244C16.1304 19.1915 15.8529 19.0688 15.5842 18.876V18.7884C15.5842 18.7884 15.6105 18.7855 15.6631 18.7796C15.7215 18.7679 15.7945 18.7446 15.8822 18.7095C15.9698 18.6745 16.0603 18.6219 16.1538 18.5518C16.2531 18.4817 16.3466 18.3824 16.4342 18.2539C16.5218 18.1195 16.589 17.9531 16.6357 17.7544C16.6591 17.6668 16.6737 17.5763 16.6795 17.4828C16.6912 17.3894 16.6941 17.3047 16.6883 17.2287C16.6766 16.8724 16.5744 16.5891 16.3816 16.3788C16.1947 16.1685 15.9318 16.0633 15.593 16.0633H15.26C15.26 16.0633 15.2513 16.0283 15.2337 15.9582C15.2221 15.8823 15.2075 15.8092 15.1899 15.7391C15.1783 15.6632 15.1724 15.6252 15.1724 15.6252ZM15.2863 15.6252V21.7588H13.4901V15.6252H15.2863ZM13.5164 21.1191V21.7588H12.8154V21.6712C12.8271 21.6712 12.8475 21.6712 12.8767 21.6712C12.9059 21.6712 12.9234 21.6712 12.9293 21.6712C13.0812 21.6712 13.2097 21.6186 13.3148 21.5134C13.4258 21.4025 13.4842 21.271 13.4901 21.1191H13.5164ZM13.5164 16.2649H13.4901C13.4901 16.113 13.4346 15.9845 13.3236 15.8793C13.2126 15.7683 13.0812 15.7128 12.9293 15.7128C12.9234 15.7128 12.9059 15.7128 12.8767 15.7128C12.8533 15.7128 12.8358 15.7128 12.8241 15.7128L12.8154 15.6252H13.5164V16.2649ZM15.26 21.1191H15.2863C15.2922 21.271 15.3477 21.4025 15.4528 21.5134C15.5638 21.6186 15.6952 21.6712 15.8471 21.6712C15.8588 21.6712 15.8792 21.6712 15.9084 21.6712C15.9376 21.6712 15.9552 21.6712 15.961 21.6712V21.7588H15.26V21.1191ZM21.2186 15.6252V21.7588H19.4224V15.6252H21.2186ZM19.4487 21.1191V21.7588H18.7477V21.6712C18.7477 21.6712 18.7652 21.6712 18.8003 21.6712C18.8411 21.6712 18.8616 21.6712 18.8616 21.6712C19.0135 21.6712 19.142 21.6186 19.2471 21.5134C19.3581 21.4025 19.4165 21.271 19.4224 21.1191H19.4487ZM19.4487 16.2649H19.4224C19.4165 16.113 19.3581 15.9845 19.2471 15.8793C19.142 15.7683 19.0135 15.7128 18.8616 15.7128C18.8616 15.7128 18.8411 15.7128 18.8003 15.7128C18.7652 15.7128 18.7477 15.7128 18.7477 15.7128V15.6252H19.4487V16.2649ZM21.1923 21.1191H21.2186C21.2245 21.271 21.28 21.4025 21.3851 21.5134C21.4961 21.6186 21.6275 21.6712 21.7794 21.6712C21.7794 21.6712 21.7969 21.6712 21.832 21.6712C21.867 21.6712 21.8875 21.6712 21.8933 21.6712V21.7588H21.1923V21.1191ZM21.1923 16.2649V15.6252H21.8933V15.7128C21.8875 15.7128 21.867 15.7128 21.832 15.7128C21.7969 15.7128 21.7794 15.7128 21.7794 15.7128C21.6275 15.7128 21.4961 15.7683 21.3851 15.8793C21.28 15.9845 21.2245 16.113 21.2186 16.2649H21.1923ZM25.8886 15.6515V21.7588H24.0924V15.6515H25.8886ZM27.9653 15.6165V16.0546H22.0157V15.6165H27.9653ZM27.9653 16.0283V17.2638L27.8777 17.255V17.1937C27.8777 16.8432 27.7783 16.5686 27.5797 16.37C27.3811 16.1656 27.1037 16.0604 26.7473 16.0546V16.0283H27.9653ZM27.9653 15.4587V15.7128L26.8963 15.6165C27.0248 15.6165 27.1591 15.6077 27.2993 15.5902C27.4454 15.5727 27.5797 15.5522 27.7024 15.5288C27.8251 15.5055 27.9127 15.4821 27.9653 15.4587ZM24.1187 21.1191V21.7588H23.4177V21.6712C23.4177 21.6712 23.4352 21.6712 23.4702 21.6712C23.5111 21.6712 23.5316 21.6712 23.5316 21.6712C23.6835 21.6712 23.812 21.6186 23.9171 21.5134C24.0281 21.4025 24.0865 21.271 24.0924 21.1191H24.1187ZM25.8623 21.1191H25.8886C25.8945 21.271 25.95 21.4025 26.0551 21.5134C26.1661 21.6186 26.2975 21.6712 26.4494 21.6712C26.4494 21.6712 26.4669 21.6712 26.502 21.6712C26.5429 21.6712 26.5633 21.6712 26.5633 21.6712V21.7588H25.8623V21.1191ZM23.2337 16.0283V16.0546C22.8773 16.0604 22.5999 16.1656 22.4013 16.37C22.2026 16.5686 22.1033 16.8432 22.1033 17.1937V17.255L22.0157 17.2638V16.0283H23.2337ZM22.0157 15.4587C22.0741 15.4821 22.1618 15.5055 22.2786 15.5288C22.4013 15.5522 22.5356 15.5727 22.6816 15.5902C22.8277 15.6077 22.962 15.6165 23.0847 15.6165L22.0157 15.7128V15.4587ZM30.0214 15.4149L33.0531 21.7062H30.9502L29.2591 17.6581L30.0214 15.4149ZM28.1375 21.1191C28.0849 21.236 28.0732 21.3353 28.1025 21.4171C28.1317 21.4988 28.1813 21.5631 28.2514 21.6098C28.3274 21.6507 28.4004 21.6712 28.4705 21.6712H28.5493V21.7588H26.5954V21.6712C26.5954 21.6712 26.61 21.6712 26.6392 21.6712C26.6625 21.6712 26.6742 21.6712 26.6742 21.6712C26.8086 21.6712 26.9458 21.6303 27.086 21.5485C27.2321 21.4609 27.3518 21.3178 27.4453 21.1191H28.1375ZM30.0214 15.4149V16.7818L27.8659 21.7325H27.1561L29.4431 16.7205C29.4723 16.6679 29.5103 16.5862 29.557 16.4752C29.6096 16.3583 29.6621 16.2327 29.7147 16.0984C29.7731 15.964 29.8228 15.8355 29.8637 15.7128C29.9104 15.5902 29.9367 15.4909 29.9425 15.4149H30.0214ZM30.7399 19.8661V20.3043H28.2602V19.8661H30.7399ZM30.6961 21.1191H32.764C32.8633 21.3178 32.983 21.4609 33.1232 21.5485C33.2634 21.6303 33.4007 21.6712 33.535 21.6712C33.535 21.6712 33.5467 21.6712 33.5701 21.6712C33.5935 21.6712 33.6051 21.6712 33.6051 21.6712V21.7588H30.2843V21.6712H30.3631C30.4799 21.6712 30.5822 21.6244 30.6698 21.531C30.7633 21.4317 30.772 21.2944 30.6961 21.1191ZM35.767 15.6252V21.7588H33.9708V15.6252H35.767ZM38.0452 21.3119L38.3957 21.7588H35.7407V21.3119H38.0452ZM38.7549 19.726L38.422 21.7588H36.5293L36.8448 21.3119C37.1252 21.3119 37.3851 21.2506 37.6246 21.1279C37.8699 20.9994 38.0832 20.8183 38.2642 20.5846C38.4453 20.3451 38.5797 20.0589 38.6673 19.726H38.7549ZM33.997 21.1191V21.7588H33.2961V21.6712C33.2961 21.6712 33.3136 21.6712 33.3486 21.6712C33.3895 21.6712 33.41 21.6712 33.41 21.6712C33.5619 21.6712 33.6904 21.6186 33.7955 21.5134C33.9065 21.4025 33.9649 21.271 33.9708 21.1191H33.997ZM33.997 16.2649H33.9708C33.9649 16.113 33.9065 15.9845 33.7955 15.8793C33.6904 15.7683 33.5619 15.7128 33.41 15.7128C33.41 15.7128 33.3895 15.7128 33.3486 15.7128C33.3136 15.7128 33.2961 15.7128 33.2961 15.7128V15.6252H33.997V16.2649ZM35.7407 16.2649V15.6252H36.4417V15.7128C36.4359 15.7128 36.4154 15.7128 36.3804 15.7128C36.3453 15.7128 36.3278 15.7128 36.3278 15.7128C36.1759 15.7128 36.0445 15.7683 35.9335 15.8793C35.8283 15.9845 35.7729 16.113 35.767 16.2649H35.7407Z" fill="white"/>
</svg>
