<svg class="Header_header__svg__LQqzb" fill="none" viewBox="0 0 118 22" xmlns="http://www.w3.org/2000/svg"><path d="M10.192 12.282l-9.06 5.883H5.84l7.168-4.654v6.619l3.025-1.965v-5.883h9.06l3.948-2.564H18.847l9.06-5.883H23.2l-7.168 4.654V1.87l-3.025 1.965v5.883h-9.06L0 12.282h10.192zM55.177 9.014c.613-1.107 1.72-1.72 3.222-1.72 2.57 0 3.617 1.66 3.617 4.19v6.682h-2.352v-6.108c0-1.423-.197-2.847-2.016-2.847-1.818 0-2.47 1.384-2.47 3.301v5.654h-2.353V4.208l2.352-.373v5.179zM110.001 11.8l3.933-4.269h2.827l-4.072 4.369 4.526 6.266h-2.747l-3.341-4.606-1.126 1.206v3.4h-2.352V3.835h2.352v7.966zM105.827 9.864c.356 0 .732.02 1.127.059V7.551a6.379 6.379 0 00-.613-.04c-1.284.02-2.312.732-2.886 1.918V7.53h-2.312v10.635h2.352V12.59c0-2.134.85-2.727 2.332-2.727z" fill="currentColor"></path><path clip-rule="evenodd" d="M97.347 8.954c-.633-1.047-1.74-1.66-3.163-1.66-2.668 0-4.625 2.135-4.625 5.554 0 3.42 1.957 5.574 4.625 5.574 1.424 0 2.53-.612 3.163-1.66v1.403h2.352V7.531h-2.352v1.423zm-2.649.257c1.522 0 2.748 1.186 2.748 3.637s-1.226 3.657-2.748 3.657c-1.74 0-2.688-1.364-2.688-3.657s.949-3.637 2.688-3.637zM84.474 7.294c-1.423 0-2.53.613-3.163 1.66V7.531H78.96v14.203l2.352-.372v-4.6c.633 1.048 1.74 1.66 3.163 1.66 2.609 0 4.566-2.154 4.566-5.574 0-3.38-1.957-5.554-4.566-5.554zm-3.262 5.554c0 2.451 1.186 3.657 2.748 3.657 1.66 0 2.629-1.364 2.629-3.657 0-2.273-.969-3.637-2.63-3.637-1.56 0-2.747 1.186-2.747 3.637z" fill="currentColor" fill-rule="evenodd"></path><path d="M77.883 10.437c-.435-2.135-2.333-3.143-4.408-3.143-2.293 0-4.329 1.206-4.329 3.083 0 1.957 1.403 2.728 3.202 3.104l1.601.316c1.048.217 1.838.593 1.838 1.463 0 .87-.889 1.383-2.134 1.383-1.404 0-2.175-.612-2.392-1.72h-2.293c.257 1.997 1.997 3.5 4.606 3.5 2.411 0 4.506-1.226 4.506-3.44 0-2.075-1.64-2.747-3.795-3.163l-1.502-.296c-.929-.178-1.423-.553-1.423-1.265 0-.712.949-1.166 1.977-1.166 1.185 0 2.075.375 2.332 1.344h2.214zM62.73 9.23l-.756-1.699h2.036V4.724h2.352v2.807h2.135v1.7h-2.135v5.792c0 1.087.257 1.344 1.265 1.344h.716l.8 1.798h-2.405c-2.273 0-2.728-.612-2.728-2.787V9.231h-1.28z" fill="currentColor"></path><path clip-rule="evenodd" d="M51.186 17.098c0 1.72-.435 2.965-1.285 3.756-.85.79-2.115 1.146-3.775 1.146-2.333 0-4.17-.929-4.546-3.261h2.332c.217 1.008.85 1.403 2.273 1.403 1.048 0 1.72-.296 2.115-.77.395-.456.534-1.108.534-1.8v-1.245c-.633 1.048-1.74 1.66-3.163 1.66-2.53 0-4.625-2.035-4.625-5.356 0-3.32 2.095-5.337 4.625-5.337 1.423 0 2.53.613 3.163 1.66V7.531h2.352v9.567zm-2.253-4.467c0-2.372-1.226-3.46-2.748-3.46-1.581 0-2.688 1.325-2.688 3.46 0 2.214 1.107 3.498 2.688 3.498 1.522 0 2.748-1.106 2.748-3.498z" fill="currentColor" fill-rule="evenodd"></path><path d="M35.93 18.166V3.835h-2.353v14.33h2.352zM39.92 3.835H37.57v2.372h2.352V3.835zM37.569 7.531h2.352v10.635h-2.352V7.53z" fill="currentColor"></path></svg>