<svg width="24" height="24" viewBox="0 0 24 24" fill="none" xmlns="http://www.w3.org/2000/svg">
<g clip-path="url(#clip0_359_24)">
<path d="M0 12C0 5.37258 5.37258 0 12 0C18.6274 0 24 5.37258 24 12C24 18.6274 18.6274 24 12 24C5.37258 24 0 18.6274 0 12Z" fill="#040303"/>
<path d="M12.2172 20.3306C7.64229 20.3306 3.75 17.4414 3.75 13.25C3.75 10.9268 7.13932 9.5 11.2349 9.5C14.3249 9.5 16.25 10.7497 16.25 12.3547C16.25 13.4085 14.3381 15.0103 12.6616 15.0103C11.9056 15.0103 11.6181 14.7229 11.6181 14.3636C11.6181 13.4774 12.5582 13.1152 12.5582 12.2287C12.5582 11.8216 12.1989 11.63 11.5522 11.63C9.08528 11.63 6.17509 12.7228 6.17509 14.2708C6.17509 15.3006 7.786 17 11.8577 17C16.1451 17 18.25 14.6779 18.25 11.9952C18.25 9.3124 15.9772 7.25 11.4984 7.25C9.27095 7.25 7.27228 7.75752 5.81127 8.5C5.06879 8.88321 4.73348 8.96659 4.73348 8.31992C4.73348 5.6611 8.04946 3.61182 11.6181 3.61182C16.2649 3.61182 20.25 7.34842 20.25 11.9473C20.25 16.5461 16.4807 20.3306 12.2172 20.3306Z" fill="black"/>
<path d="M15.75 12.355C15.75 11.7797 15.4109 11.2075 14.6465 10.7554C13.878 10.301 12.7198 10.0005 11.2354 10.0005C9.23691 10.0005 7.44455 10.3497 6.17188 10.9556C4.88583 11.5678 4.25 12.3728 4.25 13.2505C4.2503 17.0704 7.81274 19.8304 12.2168 19.8306C16.1899 19.8306 19.75 16.284 19.75 11.9468C19.7497 7.64488 16.0096 4.11183 11.6182 4.11182C9.92309 4.11182 8.29933 4.59956 7.11328 5.38525C5.95841 6.15033 5.27648 7.15293 5.23633 8.22021C5.33005 8.1798 5.44437 8.1272 5.58203 8.05615L5.58496 8.0542C7.12221 7.27302 9.19932 6.75054 11.498 6.75049C13.8074 6.75049 15.6133 7.28111 16.8545 8.21729C18.1088 9.16351 18.75 10.4987 18.75 11.9956C18.7499 13.4737 18.1668 14.8661 16.9883 15.8823C15.814 16.8949 14.0894 17.5005 11.8574 17.5005C9.75613 17.5005 8.23977 17.0615 7.23047 16.4487C6.24219 15.8487 5.67492 15.0314 5.6748 14.271C5.6748 13.7159 5.93816 13.2389 6.30957 12.8569C6.67901 12.4771 7.18029 12.1628 7.7334 11.9136C8.83981 11.4152 10.2548 11.1304 11.5518 11.1304C11.9088 11.1304 12.2649 11.1805 12.5479 11.3442C12.8701 11.5308 13.0586 11.8438 13.0586 12.229C13.0585 12.8619 12.7103 13.301 12.4873 13.5972C12.2404 13.9251 12.1182 14.1106 12.1182 14.3638C12.1182 14.3749 12.1192 14.3821 12.1201 14.3862C12.1208 14.3894 12.1218 14.3914 12.1221 14.3921C12.1222 14.3924 12.1228 14.3944 12.125 14.397C12.1274 14.3997 12.133 14.4052 12.1436 14.4126C12.1918 14.4465 12.3351 14.5102 12.6611 14.5103C13.3545 14.5103 14.1469 14.1708 14.7783 13.6821C15.0894 13.4414 15.3428 13.1783 15.5137 12.9302C15.6897 12.6743 15.7499 12.4764 15.75 12.355ZM20.75 11.9468C20.75 16.8073 16.7707 20.8306 12.2168 20.8306C7.47177 20.8304 3.2503 17.8126 3.25 13.2505C3.25 11.8051 4.30888 10.7342 5.74121 10.0522C7.18709 9.36393 9.13826 9.00049 11.2354 9.00049C12.84 9.00054 14.1889 9.32361 15.1553 9.89502C16.1259 10.469 16.75 11.3253 16.75 12.355C16.7499 12.7602 16.5712 13.1573 16.3369 13.4976C16.0969 13.8461 15.7671 14.1818 15.3906 14.4731C14.6469 15.0488 13.6443 15.5103 12.6611 15.5103C12.2318 15.5102 11.8537 15.4305 11.5693 15.231C11.2603 15.014 11.1182 14.6944 11.1182 14.3638C11.1182 13.7309 11.4655 13.2918 11.6885 12.9956C11.9354 12.6677 12.0585 12.4822 12.0586 12.229C12.0586 12.2238 12.0569 12.2195 12.0566 12.2163C12.0541 12.2146 12.051 12.2119 12.0469 12.2095C11.9884 12.1757 11.8411 12.1304 11.5518 12.1304C10.3822 12.1304 9.10866 12.3909 8.14355 12.8257C7.66091 13.0432 7.27963 13.2928 7.02637 13.5532C6.77524 13.8114 6.6748 14.0523 6.6748 14.271C6.67495 14.5405 6.91428 15.0874 7.74902 15.5942C8.56303 16.0885 9.8875 16.5005 11.8574 16.5005C13.9129 16.5005 15.385 15.9437 16.335 15.1245C17.2804 14.3092 17.7499 13.1999 17.75 11.9956C17.75 10.8099 17.2544 9.77176 16.2529 9.01611C15.238 8.25053 13.6673 7.75049 11.498 7.75049C9.34238 7.75054 7.42267 8.24221 6.03809 8.9458L6.03711 8.94482C5.84928 9.04171 5.66958 9.13008 5.50684 9.19189C5.35372 9.25003 5.15919 9.309 4.95996 9.29541C4.71616 9.27872 4.49202 9.15444 4.36035 8.91846C4.25408 8.7279 4.2334 8.5068 4.2334 8.31982C4.23344 6.76558 5.20226 5.4527 6.56152 4.55225C7.92563 3.6486 9.74455 3.11182 11.6182 3.11182C16.5198 3.11183 20.7497 7.05145 20.75 11.9468Z" fill="#c2aa84"/>
<path d="M23 12C23 5.92487 18.0751 1 12 1C5.92487 1 1 5.92487 1 12C1 18.0751 5.92487 23 12 23V24C5.37258 24 0 18.6274 0 12C0 5.37258 5.37258 0 12 0C18.6274 0 24 5.37258 24 12C24 18.6274 18.6274 24 12 24V23C18.0751 23 23 18.0751 23 12Z" fill="#c2aa84"/>
</g>
<defs>
<clipPath id="clip0_359_24">
<rect width="24" height="24" fill="white"/>
</clipPath>
</defs>
</svg>
