<svg width="85" height="14" viewBox="0 0 85 14" fill="none" xmlns="http://www.w3.org/2000/svg">
<path fill-rule="evenodd" clip-rule="evenodd" d="M42.7117 0C46.1586 0 47.5712 1.72302 47.5714 3.75762V10.078C47.5714 10.6524 47.8353 10.9398 48.314 10.9398C48.7207 10.9397 48.9604 10.844 49.1758 10.7004V12.4478C48.8407 12.7351 48.2657 12.9264 47.5714 12.9264C46.566 12.9264 45.7046 12.2797 45.4892 11.2265C44.9147 12.0404 43.7175 13.0465 41.4913 13.0466C39.0018 13.0466 37.1822 11.7057 37.1822 9.3836C37.1822 7.06159 38.8343 6.00871 40.7733 5.64963L43.7892 5.07448C44.8184 4.88299 45.4171 4.6199 45.4173 3.68664C45.4173 2.60939 44.5074 1.8911 42.688 1.8911C41.2039 1.8911 39.9116 2.48959 39.744 3.85409H37.5171C37.6607 1.43637 39.8631 9.55947e-05 42.7117 0ZM45.4173 6.29577C45.1779 6.55908 44.4356 6.77435 43.5499 6.94191L41.5386 7.32505C40.1026 7.58841 39.4082 8.21068 39.4082 9.3117C39.4082 10.5565 40.4621 11.1555 41.8744 11.1555C43.8613 11.1554 45.4173 10.0298 45.4173 8.28243V6.29577Z" fill="#040303"/>
<path fill-rule="evenodd" clip-rule="evenodd" d="M66.5024 0C70.0452 9.92844e-05 72.5343 2.39392 72.5343 5.81708C72.5343 6.79829 72.5347 7.01407 72.4869 7.22949H62.7202C62.864 9.64693 64.3715 11.1307 66.7172 11.1309C68.369 11.1309 69.518 10.4126 70.0926 9.09602H72.3195C71.6732 11.5617 69.59 13.0466 66.6935 13.0466C62.8874 13.0465 60.4697 10.4848 60.4696 6.46322C60.4696 2.6091 62.9355 0 66.5024 0ZM66.5024 1.8911C64.3718 1.8911 62.9596 3.20744 62.7202 5.45761H70.2609C70.1651 3.25535 68.7285 1.89119 66.5024 1.8911Z" fill="#040303"/>
<path d="M8.19597 0C12.7247 0 16.3965 3.71763 16.3965 8.30336V11.8608C16.3965 12.5153 15.8725 13.0457 15.2262 13.0457C14.5778 13.0456 14.054 12.5153 14.054 11.8608V8.30336C14.054 7.64701 13.5308 7.11597 12.8846 7.11573C12.2344 7.11573 11.7106 7.64686 11.7106 8.30336V11.8608C11.7106 12.5153 11.1866 13.0456 10.5403 13.0457C9.89382 13.0457 9.36994 12.5153 9.36994 11.8608V8.30336C9.36994 7.64686 8.8443 7.11573 8.19597 7.11573C7.54967 7.11588 7.02655 7.64696 7.02655 8.30336V11.8608C7.02655 12.5153 6.50263 13.0456 5.85439 13.0457C5.20797 13.0457 4.68406 12.5153 4.68406 11.8608V8.30336C4.68406 7.64686 4.16015 7.11573 3.51373 7.11573C2.86554 7.1159 2.34431 7.64697 2.34431 8.30336V11.8608C2.34431 12.5152 1.81663 13.0455 1.17033 13.0457C0.523914 13.0457 0 12.5153 0 11.8608V8.30336C0 3.71772 3.66927 0.000146944 8.19597 0Z" fill="#040303"/>
<path d="M21.2125 6.0082L26.934 0.358562H29.7115L24.7317 5.24193L29.9745 12.6871H27.461L23.272 6.72623L21.2125 8.68922V12.6871H19.0584V0.358562H21.2125V6.0082Z" fill="#040303"/>
<path d="M36.192 0.095556C36.5509 0.0955948 36.9097 0.16691 37.1012 0.214773V2.41711C36.9096 2.36925 36.5031 2.29795 36.0965 2.29789C33.9899 2.29789 32.8641 3.94941 32.864 6.58244V12.6871H30.7099V0.358562H32.8166V2.41711C33.4151 0.957102 34.4926 0.095556 36.192 0.095556Z" fill="#040303"/>
<path d="M52.3283 6.0082L58.0498 0.358562H60.8264L55.8475 5.24193L61.0894 12.6871H58.5758L54.3868 6.72623L52.3283 8.68922V12.6871H50.1742V0.358562H52.3283V6.0082Z" fill="#040303"/>
<path d="M80.0277 0C82.7327 0 84.6962 1.43595 84.6963 5.14637V12.6871H82.5412V5.45761C82.5412 3.15954 81.4161 2.03489 79.549 2.03489C77.4424 2.03495 76.2691 3.47082 76.2691 5.52951V12.6871H74.115V0.358562H76.2218V1.93842C76.9161 0.741706 78.3761 4.89757e-05 80.0277 0Z" fill="#040303"/>
</svg>
