<svg width="74" height="24" viewBox="0 0 74 24" fill="none" xmlns="http://www.w3.org/2000/svg">
<path d="M21.2027 4.73063C22.1538 6.00063 22.8392 7.44927 23.218 8.99006C21.6848 6.92838 19.4496 4.94434 16.6742 3.33199C13.8988 1.71965 11.0688 0.762543 8.5192 0.450524C10.0453 0.0164538 11.6433 -0.105633 13.2176 0.0915549C14.792 0.288743 16.3105 0.801161 17.6824 1.59821C19.0543 2.39526 20.2516 3.46059 21.2027 4.73063Z" fill="#040303"/>
<path d="M9.02032 16.016C6.04094 14.285 2.81623 13.8439 0.508865 14.6232C0.731613 15.3594 1.02538 16.0722 1.38603 16.7515C3.39074 16.7051 5.57953 17.2496 7.61623 18.4325C9.65292 19.6155 11.2107 21.2481 12.1639 23.0129C12.9331 22.9893 13.6983 22.8914 14.4486 22.7204C13.9822 20.3304 11.9989 17.7473 9.02032 16.016Z" fill="#040303"/>
<path d="M2.22274 18.0987C3.19497 19.451 4.44211 20.5826 5.88233 21.4191C7.32255 22.2557 8.92335 22.7783 10.5797 22.9529C9.72754 21.6705 8.48881 20.4907 6.94238 19.5924C5.39594 18.6942 3.75824 18.2036 2.22274 18.0987Z" fill="#040303"/>
<path d="M19.5086 14.6408C18.2035 12.4734 15.968 10.3981 13.214 8.79826C10.4601 7.1984 7.5505 6.2846 5.02355 6.22413C2.80042 6.17148 1.13191 6.81776 0.44703 7.99678C0.444848 8.00071 0.442177 8.00451 0.439495 8.00833C0.437385 8.01134 0.435267 8.01435 0.433378 8.01744C0.371756 8.23858 0.318714 8.46014 0.270351 8.68243C1.22668 8.30491 2.33474 8.09467 3.56683 8.07127C6.30673 8.0198 9.37306 8.89618 12.2027 10.5401C15.0323 12.1841 17.3143 14.4146 18.6264 16.8195C19.2145 17.9029 19.5815 18.9697 19.727 19.9888C19.8963 19.8375 20.0624 19.681 20.2235 19.5184C20.2278 19.511 20.2305 19.5032 20.2348 19.4954C20.9197 18.3152 20.6549 16.5461 19.5086 14.6408Z" fill="#040303"/>
<path d="M0 11.2803C2.24107 9.5704 6.90143 9.95417 11.1187 12.4043C15.3372 14.8548 17.9796 18.7133 17.6044 21.5074C17.137 21.7683 16.6523 21.9973 16.1539 22.1927C16.0017 21.5209 15.7746 20.8683 15.4769 20.2472C14.3996 17.98 12.4245 15.9262 9.91902 14.4698C7.41352 13.0135 4.65258 12.3158 2.14824 12.5041C1.46115 12.5537 0.781709 12.6795 0.122466 12.8793C0.0453184 12.3497 0.00440176 11.8154 0 11.2803Z" fill="#040303"/>
<path d="M21.6777 11.0131C20.3579 8.84812 18.1028 6.76696 15.3293 5.15658C12.5559 3.54618 9.63501 2.61793 7.09987 2.54344C5.16731 2.48767 3.6704 2.95609 2.89427 3.84104C6.117 3.29501 10.3679 4.21273 14.488 6.60629C18.6082 8.99984 21.5123 12.2386 22.6333 15.3084C23.0174 14.1965 22.6832 12.6641 21.6777 11.0131Z" fill="#040303"/>
<path d="M35.5262 7.12598H33.5589V13.6903C33.5589 13.9906 33.5145 14.2434 33.4254 14.4488C33.3367 14.6541 33.2063 14.8104 33.0348 14.9176C32.8663 15.0218 32.6594 15.0739 32.4142 15.0739C32.1814 15.0739 31.9789 15.028 31.8074 14.936C31.6389 14.841 31.5055 14.7062 31.4074 14.5315C31.3124 14.3538 31.262 14.1408 31.2557 13.8926H29.2746C29.2713 14.5177 29.4048 15.0372 29.6743 15.4509C29.9442 15.8615 30.3088 16.168 30.7685 16.3702C31.2313 16.5694 31.746 16.6691 32.3131 16.6691C32.9504 16.6691 33.5098 16.548 33.9909 16.3059C34.472 16.0638 34.8473 15.719 35.1172 15.2716C35.3898 14.8242 35.5262 14.2971 35.5262 13.6903V7.12598Z" fill="#040303"/>
<path d="M41.663 13.534V9.47954H43.6213V16.5403H41.7414V15.2578H41.6677C41.5082 15.6715 41.2433 16.004 40.8723 16.2553C40.5047 16.5066 40.0557 16.6322 39.5255 16.6322C39.0535 16.6322 38.6385 16.525 38.2798 16.3105C37.9212 16.096 37.641 15.791 37.4385 15.3957C37.2393 15.0004 37.1382 14.5269 37.1352 13.9753V9.47954H39.0935V13.6259C39.0965 14.0427 39.2083 14.3721 39.4291 14.6142C39.6496 14.8563 39.9453 14.9774 40.3162 14.9774C40.5521 14.9774 40.7729 14.9238 40.9781 14.8165C41.1836 14.7062 41.349 14.5437 41.4745 14.3292C41.6033 14.1147 41.666 13.8496 41.663 13.534Z" fill="#040303"/>
<path fill-rule="evenodd" clip-rule="evenodd" d="M45.1878 9.47972V19.1883H47.1461V15.4097H47.2058C47.2946 15.6058 47.4234 15.8004 47.5919 15.9935C47.7603 16.1835 47.9765 16.3413 48.24 16.4669C48.5066 16.5926 48.8299 16.6554 49.2099 16.6554C49.7463 16.6554 50.2304 16.5175 50.6627 16.2417C51.0978 15.9628 51.441 15.5537 51.6923 15.0143C51.9468 14.4719 52.0739 13.8069 52.0739 13.0193C52.0739 12.2102 51.9435 11.5376 51.6832 11.0013C51.4227 10.4619 51.0747 10.0589 50.6397 9.79231C50.2044 9.52262 49.7293 9.38777 49.2145 9.38777C48.8192 9.38777 48.4883 9.4552 48.2217 9.59004C47.9581 9.72182 47.7436 9.88732 47.5782 10.0865C47.4157 10.2826 47.2916 10.4757 47.2058 10.6657H47.1184V9.47972H45.1878ZM47.2793 14.1088C47.1628 13.7962 47.1047 13.43 47.1047 13.0101C47.1047 12.5903 47.1628 12.2256 47.2793 11.9161C47.3957 11.6065 47.5628 11.3675 47.7803 11.1989C48.0011 11.0304 48.2707 10.9461 48.5893 10.9461C48.9113 10.9461 49.1825 11.0335 49.403 11.2081C49.6238 11.3828 49.7907 11.6249 49.9041 11.9345C50.0175 12.244 50.0742 12.6025 50.0742 13.0101C50.0742 13.4208 50.0159 13.7839 49.8994 14.0995C49.786 14.4121 49.6192 14.6573 49.3984 14.8351C49.1778 15.0097 48.9082 15.0971 48.5893 15.0971C48.2737 15.0971 48.0055 15.0113 47.785 14.8397C47.5642 14.665 47.3957 14.4213 47.2793 14.1088Z" fill="#040303"/>
<path d="M53.3793 16.5404V9.47962H55.3376V16.5404H53.3793Z" fill="#040303"/>
<path d="M54.3631 8.56946C54.0718 8.56946 53.822 8.47292 53.6138 8.27985C53.4083 8.08372 53.3058 7.84927 53.3058 7.57654C53.3058 7.30685 53.4083 7.07546 53.6138 6.8824C53.822 6.68627 54.0718 6.58822 54.3631 6.58822C54.654 6.58822 54.9025 6.68627 55.1077 6.8824C55.3162 7.07546 55.4203 7.30685 55.4203 7.57654C55.4203 7.84927 55.3162 8.08372 55.1077 8.27985C54.9025 8.47292 54.654 8.56946 54.3631 8.56946Z" fill="#040303"/>
<path d="M60.6618 10.9505V9.47951H59.3333V7.78787H57.375V9.47951H56.4099V10.9505H57.375V14.628C57.372 15.0907 57.4685 15.4738 57.6646 15.7772C57.8608 16.0806 58.135 16.3043 58.4876 16.4484C58.8429 16.5924 59.2569 16.6552 59.7287 16.6368C59.9832 16.6276 60.199 16.6016 60.3769 16.5587C60.5547 16.5188 60.6925 16.4836 60.7905 16.4529L60.4826 14.9958C60.4336 15.0049 60.3632 15.0187 60.2711 15.0371C60.1793 15.0524 60.0873 15.0601 59.9952 15.0601C59.8634 15.0601 59.747 15.0402 59.6459 15.0003C59.5478 14.9605 59.4714 14.8915 59.4161 14.7935C59.361 14.6923 59.3333 14.5514 59.3333 14.3706V10.9505H60.6618Z" fill="#040303"/>
<path fill-rule="evenodd" clip-rule="evenodd" d="M65.0794 16.6784C64.3531 16.6784 63.7279 16.5313 63.2038 16.2371C62.683 15.9398 62.2814 15.52 61.9995 14.9775C61.7176 14.4321 61.5765 13.787 61.5765 13.0423C61.5765 12.316 61.7176 11.6785 61.9995 11.13C62.2814 10.5814 62.6784 10.1539 63.1901 9.84746C63.7049 9.541 64.3087 9.38777 65.0013 9.38777C65.467 9.38777 65.9007 9.46287 66.3021 9.61303C66.7067 9.76012 67.0591 9.9823 67.3596 10.2796C67.6629 10.5768 67.8988 10.9507 68.0675 11.4012C68.236 11.8486 68.3201 12.3727 68.3201 12.9733V13.5112H63.5118V13.5158C63.5118 13.8651 63.5762 14.167 63.7049 14.4213C63.8367 14.6757 64.0222 14.8718 64.2611 15.0097C64.5002 15.1476 64.7838 15.2166 65.1117 15.2166C65.3292 15.2166 65.5284 15.186 65.7092 15.1247C65.8901 15.0634 66.0448 14.9714 66.1736 14.8488C66.3021 14.7263 66.4002 14.5761 66.4676 14.3984L68.2787 14.5179C68.187 14.9531 67.9985 15.333 67.7135 15.6579C67.4314 15.9797 67.0667 16.231 66.6193 16.4118C66.175 16.5895 65.6616 16.6784 65.0794 16.6784ZM63.7096 11.6035C63.5908 11.8127 63.5256 12.044 63.5137 12.2976H66.4769C66.4769 12.0157 66.4155 11.7659 66.293 11.5483C66.1703 11.3307 66.0005 11.1606 65.7827 11.038C65.5681 10.9124 65.3186 10.8496 65.0334 10.8496C64.7361 10.8496 64.4726 10.9185 64.2427 11.0565C64.0161 11.1913 63.8383 11.3736 63.7096 11.6035Z" fill="#040303"/>
<path d="M69.5981 9.47953V16.5403H71.5564V12.5456C71.5564 12.2576 71.6207 12.0032 71.7495 11.7826C71.8813 11.5619 72.0588 11.3903 72.2826 11.2677C72.5095 11.1421 72.7667 11.0793 73.0549 11.0793C73.1897 11.0793 73.3385 11.09 73.5007 11.1114C73.6631 11.1329 73.7905 11.1574 73.8823 11.185V9.44737C73.7966 9.42592 73.6968 9.40904 73.5834 9.39679C73.4703 9.38455 73.3645 9.37841 73.2664 9.37841C72.8711 9.37841 72.5218 9.4918 72.2183 9.71856C71.915 9.94228 71.6988 10.2733 71.5701 10.7115H71.4966V9.47953H69.5981Z" fill="#040303"/>
</svg>
