<svg width="128" height="111" viewBox="0 0 128 111" fill="none" xmlns="http://www.w3.org/2000/svg">
<path d="M97.2287 28.3012C97.0376 28.3328 96.8464 28.3644 96.6551 28.3962C96.6308 28.4003 96.5406 28.4199 96.4073 28.4489C95.7628 28.5891 94.1115 28.9484 94.0398 28.8321C95.4856 31.2364 107.078 34.8528 110.385 34.9814C110.056 35.0236 109.728 35.0662 109.399 35.1088C107.024 35.4166 104.653 35.724 102.261 35.9001C102.177 35.9062 102.093 35.9124 102.009 35.9186C98.9439 36.1446 95.6047 36.3908 92.6127 35.595C87.2606 34.1714 89.223 34.7049 89.223 34.7049C89.4098 34.755 89.7996 35.5146 90.0806 36.0621C90.2067 36.3078 90.3109 36.5108 90.365 36.5879C91.2656 37.8731 92.3216 39.06 93.5828 40.0015C96.4943 42.1708 99.5707 44.2081 102.959 45.5605C103.067 45.6037 103.158 45.6405 103.205 45.7399C102.798 46.0101 102.054 45.9453 101.476 45.8949C101.328 45.882 101.192 45.8701 101.074 45.8649C95.997 45.6376 91.8845 43.7119 87.5697 41.241C87.4179 41.1545 87.2554 41.0687 87.0891 40.9809C86.5815 40.7128 86.0386 40.4261 85.6552 40.0436L85.1199 39.5094C85.9643 41.0868 86.5809 42.8236 87.0496 44.5436C87.9174 47.7263 87.7967 50.9531 87.6746 54.2186C87.6718 54.2935 87.669 54.3685 87.6662 54.4436C87.6437 55.0495 87.6375 55.6578 87.6313 56.2657C87.6293 56.4645 87.6273 56.6633 87.6247 56.8619C87.6233 56.9684 87.6137 57.0742 87.604 57.18C87.5936 57.2948 87.5832 57.4096 87.5832 57.5258C87.1473 56.925 86.8165 56.167 86.4948 55.4298C86.34 55.0748 86.1871 54.7247 86.0257 54.3991C85.5091 53.3577 84.9831 52.3163 84.439 51.2866C84.2973 51.0184 84.1563 50.7434 84.0137 50.4653C83.3598 49.1902 82.6722 47.8493 81.7314 46.8058C80.1254 45.0257 79.0554 43.7803 79.0554 43.7803C79.0554 43.7803 78.8771 54.2805 77.8071 57.6619L76.737 61.0434C76.7293 60.7685 76.7224 60.4919 76.7153 60.2141C76.6428 57.3411 76.5668 54.3327 75.6833 51.6033C75.1339 49.9067 74.1381 48.299 73.1697 46.8053C72.6636 48.0857 72.1996 49.3866 71.7964 50.7045C71.0816 53.034 71.313 54.9672 71.8834 57.3107C71.9131 57.4324 71.9427 57.555 71.9725 57.6782C72.2755 58.9324 72.5939 60.2509 73.1697 61.3993C73.8827 62.8229 70.6719 59.4415 70.1372 58.5514C69.6019 57.6619 67.2817 53.2128 67.4612 51.255C67.6412 49.2978 66.2134 51.0773 65.8569 52.501C65.8467 52.542 65.8361 52.5838 65.8253 52.6266C65.4616 54.0696 64.8428 56.5241 66.7488 60.1539C68.7112 63.8912 75.311 71.01 75.311 71.01L70.4949 67.8068L73.5274 76.5269L67.9971 70.1205L70.6731 80.2648C70.6731 80.2648 66.4343 73.3143 66.2134 72.4336C66.0592 71.8194 64.4432 82.873 64.0043 85.9091C63.5649 82.873 61.949 71.8194 61.7953 72.4336C61.5743 73.3143 57.335 80.2648 57.335 80.2648L60.011 70.1205L54.4813 76.5269L57.5138 67.8068L52.6977 71.01C52.6977 71.01 59.2969 63.8901 61.2588 60.1527C63.1628 56.5261 62.5457 54.072 62.1828 52.629C62.1718 52.5852 62.1611 52.5423 62.1506 52.5004C61.7953 51.0762 60.3681 49.2972 60.5464 51.2544C60.7246 53.2116 58.4057 57.6608 57.8709 58.5508C57.3356 59.4403 54.1248 62.8218 54.8384 61.3981C55.4186 60.2398 55.739 58.9085 56.0432 57.6446C56.0703 57.5323 56.0972 57.4206 56.1241 57.3095C56.6951 54.966 56.9253 53.0328 56.2112 50.7033C55.8079 49.3872 55.3439 48.0845 54.8384 46.8047C53.8694 48.2979 52.8742 49.9079 52.3242 51.6027C51.4407 54.3317 51.3647 57.34 51.2922 60.213C51.2852 60.4908 51.2782 60.7673 51.2705 61.0422L50.2005 57.6608C49.1304 54.2799 48.9521 43.7797 48.9521 43.7797C48.9521 43.7797 47.8809 45.0251 46.2767 46.8047C45.335 47.8481 44.6472 49.1899 43.9931 50.4659C43.8507 50.7436 43.7099 51.0182 43.5685 51.286C43.0238 52.3157 42.5008 53.3554 41.9818 54.398C41.8212 54.7225 41.669 55.0714 41.5148 55.425C41.1927 56.1635 40.8616 56.9227 40.4249 57.5246C40.4249 57.4098 40.4145 57.2959 40.4041 57.1821C40.3943 57.0752 40.3846 56.9683 40.3834 56.8607C40.3808 56.6622 40.3788 56.4635 40.3768 56.2648C40.3706 55.6572 40.3644 55.0488 40.3419 54.4424C40.3392 54.3691 40.3365 54.2959 40.3337 54.2227C40.2109 50.9554 40.0897 47.7268 40.9579 44.5424C41.4249 42.8225 42.0443 41.0862 42.8877 39.5088L42.3529 40.0424C41.9729 40.4211 41.4359 40.7053 40.9329 40.9714C40.7614 41.0622 40.5938 41.1508 40.4378 41.2405C36.1231 43.7114 32.0105 45.6364 26.9331 45.8638C26.8163 45.8691 26.6807 45.8809 26.5346 45.8937C25.9556 45.9443 25.2105 46.0095 24.8028 45.7393C24.8519 45.6399 24.9406 45.6025 25.0491 45.5593C28.4369 44.2075 31.5137 42.1691 34.4249 40.0003C35.6859 39.0612 36.7419 37.8725 37.6425 36.5873C37.6968 36.5102 37.8015 36.3064 37.9281 36.0598C38.2092 35.5125 38.5983 34.7547 38.7845 34.7043C38.7845 34.7043 40.7464 34.1702 35.3949 35.5938C32.4029 36.3896 29.0634 36.1434 25.998 35.9174C25.9141 35.9112 25.8304 35.905 25.7469 35.8989C23.3676 35.7242 21.0091 35.4189 18.6467 35.1129C18.3055 35.0688 17.9643 35.0246 17.6229 34.9808C20.9286 34.8516 32.5206 31.2353 33.9663 28.831C33.8959 28.9482 32.245 28.589 31.6008 28.4489C31.4677 28.4199 31.3775 28.4003 31.3533 28.3962C31.161 28.3642 30.9689 28.3325 30.7769 28.3007C26.8534 27.6522 22.9808 27.012 19.3984 25.1842C17.3068 24.1184 15.2689 22.8126 13.5194 21.2389C13.4968 21.2192 13.4746 21.199 13.4524 21.1782C13.4524 21.1782 14.8797 21.889 16.6628 22.6022C18.0377 23.151 19.6246 23.3293 21.1091 23.4962C21.2788 23.5153 21.4472 23.5342 21.6137 23.5535C25.0836 23.9574 28.7747 24.2752 31.8256 22.2463C31.6655 22.3538 30.0571 21.3121 29.3508 20.8547C29.1848 20.7472 29.0687 20.672 29.0328 20.6515C25.4313 18.5996 21.8558 16.3834 20.0524 12.4579C20.0524 12.4579 22.1931 13.8819 24.3338 14.7716C26.4745 15.6613 30.7588 16.7298 30.7588 16.7298C30.7588 16.7298 27.5456 12.9931 26.6538 11.2128C25.7621 9.43253 23.9781 4.80524 24.3347 5.517C24.5305 5.90745 24.8873 6.19095 25.4052 6.60237C25.8313 6.94089 26.3665 7.366 27.0106 8.00854C28.4373 9.43206 32.5404 11.2119 32.362 10.856C32.022 10.1775 31.6466 9.50935 31.2705 8.83971C30.4493 7.37789 29.6241 5.90904 29.1536 4.31001C28.9692 3.68349 28.8122 2.97459 28.6571 2.27454C28.4756 1.45557 28.2969 0.648697 28.0801 0C28.1674 0.261196 28.5536 0.692579 29.0925 1.29453C29.655 1.92279 30.3837 2.73686 31.1126 3.73716C32.5399 5.69583 35.0355 7.65409 35.0355 7.65409V5.34045C35.0355 5.34045 35.2143 3.20476 36.8197 2.493C38.4245 1.78124 40.3869 4.27284 40.3869 4.27284C40.3869 4.27284 38.068 4.45079 37.8897 5.34045C37.7115 6.23016 39.8522 8.18789 39.8522 8.18789L39.1386 9.78838C39.1386 9.78838 39.1392 20.2886 47.1673 23.314C54.1633 25.9506 54.9269 27.3705 55.48 28.399C55.5615 28.5506 55.6385 28.6937 55.7302 28.831C56.3308 29.7303 56.191 30.8278 56.0521 31.9174C55.9273 32.8962 55.8033 33.8687 56.2176 34.6856C56.3432 34.9346 56.5022 35.1748 56.7254 35.3419C57.7458 36.1087 59.2156 35.4758 59.869 34.508C59.893 34.4314 59.914 34.359 59.9304 34.2929C60.0046 33.9943 60.0479 33.7418 60.0479 33.5577V32.0225C60.0479 32.0225 58.5091 33.338 58.5091 33.996C58.5091 34.6541 58.0696 31.8033 58.5091 29.3908L58.9492 26.9791C58.9492 26.9791 57.8499 27.8565 57.8499 28.7334C57.8499 28.7434 57.8505 28.7544 57.8511 28.7653C57.8535 28.8067 57.8558 28.8465 57.823 28.8234C57.3514 26.9513 57.2824 25.0077 58.2806 23.289C58.6897 22.5829 59.7749 21.0591 60.7082 21.0591C60.3936 21.0594 60.067 21.0439 59.7342 21.0282C58.3462 20.9625 56.8493 20.8916 55.6525 21.9361L53.8916 23.4721C53.8916 23.4721 55.8699 19.7444 58.7271 19.7444H62.683C61.7023 19.1994 60.6253 18.8484 59.5114 18.7106C58.8558 18.6293 58.2332 18.6941 57.61 18.7589C57.202 18.8013 56.7938 18.8438 56.376 18.8453C56.816 18.287 57.8171 17.9942 58.4992 17.853C60.2851 17.4882 62.1477 17.9335 63.7887 18.6457C68.8439 20.8384 70.3827 21.7158 70.603 22.3734C70.6421 22.4904 70.6951 22.6144 70.7522 22.7477C71.0159 23.3639 71.3656 24.1811 70.8227 25.4431L70.1617 26.9781C70.1617 26.9781 70.1617 24.7855 68.8433 25.0048C67.5243 25.2242 64.6671 26.5399 64.6671 26.5399C64.6671 26.5399 66.816 31.1891 67.9567 33.7418C68.225 34.3426 68.4915 34.875 68.8901 35.2414C69.6142 35.7242 70.5621 35.8843 71.2862 35.3408C71.5112 35.1725 71.6684 34.9329 71.794 34.6839C72.2083 33.8673 72.0843 32.8949 71.9596 31.9162C71.8207 30.8266 71.6808 29.7291 72.2814 28.8298C72.3733 28.6924 72.4504 28.5491 72.5321 28.3972C73.0854 27.3689 73.8496 25.9486 80.8443 23.3125C88.8718 20.2872 88.8718 9.78697 88.8718 9.78697L88.1582 8.18649C88.1582 8.18649 90.299 6.2287 90.1207 5.33905C89.9425 4.44939 87.6229 4.27143 87.6229 4.27143C87.6229 4.27143 89.5848 1.77984 91.1908 2.4916C92.7962 3.20336 92.9744 5.33905 92.9744 5.33905V7.65269C92.9744 7.65269 95.471 5.69443 96.8993 3.73716C97.6271 2.73987 98.3542 1.92723 98.9161 1.29938C99.4569 0.694984 99.8445 0.261821 99.9319 0C99.7152 0.648503 99.5365 1.45508 99.3551 2.27381C99.2 2.9741 99.0429 3.68327 98.8583 4.31001C98.3877 5.9079 97.5632 7.37579 96.7428 8.83659C96.3661 9.50727 95.9902 10.1765 95.6499 10.856C95.4716 11.2119 99.5748 9.43252 101.001 8.00854C101.646 7.3654 102.181 6.94005 102.608 6.60141C103.125 6.1903 103.482 5.907 103.677 5.517C104.034 4.80571 102.253 9.43299 101.358 11.2128C100.464 12.9927 97.2535 16.7298 97.2535 16.7298C97.2535 16.7298 101.534 15.6618 103.675 14.772C105.816 13.8824 107.956 12.4584 107.956 12.4584C106.153 16.3839 102.58 18.6 98.9758 20.652C98.9394 20.6727 98.8211 20.7493 98.6525 20.8586C97.9437 21.3179 96.3443 22.3544 96.1829 22.2468C99.2341 24.2756 102.925 23.9574 106.394 23.554C106.564 23.5343 106.736 23.5149 106.91 23.4954C108.391 23.3287 109.974 23.1505 111.346 22.6027C113.129 21.8905 114.556 21.1787 114.556 21.1787C114.544 21.1897 114.532 21.2006 114.52 21.2116C114.51 21.2209 114.499 21.2301 114.489 21.2394C112.74 22.8131 110.702 24.1184 108.61 25.1851C105.027 27.012 101.153 27.6524 97.2287 28.3012Z" fill="white"/>
<path d="M11.8344 103.588L10.9753 95.6456L7.36364 105.814H7.24091L3.4013 95.593L2.54221 103.465C2.50714 103.746 2.48961 104.044 2.48961 104.254C2.48961 105.236 2.89286 105.429 4.47078 105.481V105.779C4.35498 105.777 4.24116 105.775 4.12918 105.773C3.35952 105.758 2.6766 105.744 2.03377 105.744C1.2974 105.744 0.648701 105.762 0 105.779V105.499C1.26234 105.464 1.59545 104.938 1.77078 103.64L2.7 96.4345C2.71753 96.2242 2.73506 96.0138 2.73506 95.8209C2.73506 94.804 2.41948 94.3307 1.06948 94.3307V94.0326C1.75325 94.0501 2.68247 94.0501 3.57662 94.0501C4.47078 94.0501 5.32987 94.0326 5.90844 94.0151L8.45065 101.151L10.9052 94.0151C11.4487 94.0326 12.3078 94.0501 13.3773 94.0501C14.0435 94.0501 14.7974 94.0501 15.6214 94.0326V94.3307C14.2013 94.3307 13.9383 94.804 13.9383 95.8209C13.9383 95.9962 13.9558 96.2592 13.9734 96.4345L14.7623 103.588C14.9201 104.99 15.0779 105.429 16.4455 105.481V105.779C15.674 105.762 14.4994 105.744 13.3597 105.744C12.2201 105.744 11.1156 105.762 10.4494 105.779V105.481C11.6591 105.446 11.887 105.183 11.887 104.412C11.887 104.184 11.8695 103.903 11.8344 103.588Z" fill="white"/>
<path d="M24.9954 104.973V105.148C24.7389 105.212 24.4394 105.283 24.1239 105.358C23.3177 105.549 22.4066 105.766 21.8396 105.955L21.7694 105.92C21.822 105.604 21.8571 105.218 21.8746 104.727C21.1558 105.324 20.0337 105.955 19.1746 105.955C17.9824 105.955 17.2811 104.955 17.2811 103.658V99.2397C17.2811 98.9417 17.2285 98.6612 16.7376 98.5209L16.5623 98.4683V98.2579C17.6844 98.1703 18.9642 97.8897 19.8584 97.6092L19.9285 97.6443C19.8934 98.2229 19.8584 99.0995 19.8584 100.958V102.308C19.8584 103.938 20.1214 104.605 21.2434 104.605C21.3662 104.605 21.6818 104.605 21.8746 104.57V99.2397C21.8746 98.9417 21.822 98.6612 21.3311 98.5209L21.1558 98.4683V98.2579C22.2779 98.1703 23.5402 97.8897 24.4344 97.6092L24.5045 97.6443C24.4694 98.2229 24.4344 99.0995 24.4344 100.958V104.201C24.4344 104.71 24.522 104.903 24.8727 104.955L24.9954 104.973Z" fill="white"/>
<path d="M29.3773 105.499L29.4825 105.516V105.779C29.0968 105.762 28.3604 105.744 27.6065 105.744C26.8701 105.744 26.1162 105.762 25.7305 105.779V105.516L25.8357 105.499C26.3266 105.411 26.3266 105.324 26.3266 103.956V95.2423C26.3266 95.0144 26.3266 94.7865 26.1162 94.4884L25.6604 93.8397V93.7521C26.537 93.5592 28.1149 93.0683 28.8864 92.7703L28.974 92.8053C28.939 93.1735 28.8864 94.3657 28.8864 95.8034V103.956C28.8864 105.324 28.8864 105.411 29.3773 105.499Z" fill="white"/>
<path d="M36.1161 103.991C35.5024 105.025 34.3806 105.955 33.0306 105.955C31.6981 105.955 30.7163 105.236 30.7163 104.166C30.7163 101.992 30.7163 100.292 30.7338 99.4326L30.015 98.5384V98.4683C30.9793 97.8897 32.4345 96.8027 33.276 95.9787L33.3812 96.0313C33.3462 96.3294 33.276 97.2761 33.276 97.8021L35.9407 97.7144C35.9407 98.0125 35.6252 98.6261 35.4148 98.8014L33.276 98.7664V103.448C33.276 104.166 33.9072 104.272 34.626 104.272C35.0816 104.272 35.5375 104.201 36.0459 103.903L36.1161 103.991Z" fill="white"/>
<path d="M38.5127 93.5417C39.2666 93.5417 39.9153 94.1378 39.9153 94.9618C39.9153 95.7859 39.2666 96.3819 38.5127 96.3819C37.7589 96.3819 37.1102 95.7859 37.1102 94.9618C37.1102 94.1378 37.7589 93.5417 38.5127 93.5417Z" fill="white"/>
<path d="M40.1959 105.499L40.3011 105.516V105.779C39.9153 105.762 39.179 105.744 38.4251 105.744C37.6887 105.744 36.9348 105.762 36.5491 105.779V105.516L36.6543 105.499C37.1452 105.411 37.1452 105.324 37.1452 103.956V100.151C37.1452 99.9235 37.1452 99.7307 36.9348 99.3975L36.5667 98.7664V98.6787C37.4433 98.4157 38.9511 97.8371 39.6874 97.4865L39.7751 97.5216C39.74 97.8897 39.705 98.7488 39.705 100.186V103.956C39.705 105.324 39.705 105.411 40.1959 105.499Z" fill="white"/>
<path d="M44.7584 105.955C42.5493 105.955 40.9539 104.412 40.9539 102.098C40.9539 99.4151 43.2331 97.5391 45.5824 97.5391C46.6519 97.5391 47.9844 97.9949 47.9844 98.9943C47.9844 99.5027 47.511 99.906 47.0376 99.906C46.3525 99.906 46.1497 99.3935 45.9612 98.9172C45.7976 98.5038 45.6448 98.1177 45.1967 98.1177C44.2149 98.1177 43.461 99.3099 43.461 100.818C43.461 102.922 44.5655 104.236 46.3013 104.236C46.9324 104.236 47.5811 103.991 48.072 103.377L48.1597 103.43C47.6688 104.938 46.1961 105.955 44.7584 105.955Z" fill="white"/>
<path fill-rule="evenodd" clip-rule="evenodd" d="M48.6646 101.799C48.6646 99.2923 50.8211 97.5391 53.153 97.5391C55.5023 97.5391 57.6588 99.2222 57.6588 101.694C57.6588 104.201 55.5023 105.955 53.153 105.955C50.8211 105.955 48.6646 104.272 48.6646 101.799ZM51.5224 101.589C51.5224 103.781 52.0835 105.569 53.153 105.569C54.24 105.569 54.801 104.201 54.801 101.905C54.801 99.7131 54.24 97.9248 53.153 97.9248C52.0835 97.9248 51.5224 99.2923 51.5224 101.589Z" fill="white"/>
<path d="M60.3781 93.5417C61.132 93.5417 61.7807 94.1378 61.7807 94.9618C61.7807 95.7859 61.132 96.3819 60.3781 96.3819C59.6242 96.3819 58.9755 95.7859 58.9755 94.9618C58.9755 94.1378 59.6242 93.5417 60.3781 93.5417Z" fill="white"/>
<path d="M62.0612 105.499L62.1664 105.516V105.779C61.7807 105.762 61.0443 105.744 60.2904 105.744C59.5541 105.744 58.8002 105.762 58.4144 105.779V105.516L58.5196 105.499C59.0105 105.411 59.0105 105.324 59.0105 103.956V100.151C59.0105 99.9235 59.0105 99.7307 58.8002 99.3975L58.432 98.7664V98.6787C59.3086 98.4157 60.8164 97.8371 61.5527 97.4865L61.6404 97.5216C61.6054 97.8897 61.5703 98.7488 61.5703 100.186V103.956C61.5703 105.324 61.5703 105.411 62.0612 105.499Z" fill="white"/>
<path d="M71.2698 105.499L71.375 105.516V105.779C70.9893 105.762 70.2529 105.744 69.499 105.744C68.7627 105.744 68.0088 105.762 67.6231 105.779V105.516L67.7283 105.499C68.2192 105.411 68.2192 105.324 68.2192 103.956V101.607C68.2192 100.046 67.8335 99.0294 66.764 99.0294C66.5887 99.0294 66.3081 99.0469 66.0452 99.1521V103.956C66.0452 105.324 66.0452 105.411 66.5361 105.499L66.6413 105.516V105.779C66.2555 105.762 65.5192 105.744 64.7653 105.744C64.0289 105.744 63.275 105.762 62.8893 105.779V105.516L62.9945 105.499C63.4854 105.411 63.4854 105.324 63.4854 103.956V100.151C63.4854 99.9235 63.4854 99.7307 63.275 99.3975L62.9068 98.7664V98.6787C63.7835 98.4157 65.2913 97.8371 66.0276 97.4865L66.1153 97.5216C66.0882 97.7649 66.0716 98.2169 66.0574 98.604C66.0532 98.7188 66.0492 98.8279 66.0452 98.9242C66.7815 98.3456 67.8861 97.5391 68.7977 97.5391C69.9198 97.5391 70.7789 98.5034 70.7789 99.8358V103.956C70.7789 105.324 70.7789 105.411 71.2698 105.499Z" fill="white"/>
<path d="M78.7106 99.2573C78.7106 102.361 80.569 104.394 82.9535 104.394C84.5664 104.394 85.8113 103.711 86.6178 102.062L86.8106 102.15L86.0742 104.236C84.9522 105.341 83.3742 105.955 81.7437 105.955C78.5528 105.955 75.5898 103.781 75.5898 100.134C75.5898 96.2592 78.8333 93.8573 82.3574 93.8573C83.7074 93.8573 84.7243 94.1729 85.8639 94.7339L86.2671 97.7319L86.0918 97.8371C85.7762 96.9781 85.3379 96.1365 84.847 95.593C84.2859 94.9443 83.5145 94.506 82.4626 94.506C80.3762 94.506 78.7106 96.2767 78.7106 99.2573Z" fill="white"/>
<path fill-rule="evenodd" clip-rule="evenodd" d="M89.2657 105.885C88.1787 105.885 87.4073 105.148 87.4073 104.009C87.4073 103.097 87.9683 102.834 88.8976 102.431L91.2469 101.431V100.011C91.2469 99.4326 90.8261 98.7664 89.7917 98.7664C89.2833 98.7664 89.0729 99.0118 89.0729 99.5027C89.0729 99.8884 89.143 100.327 89.2307 100.642C88.9852 100.712 87.9333 100.923 87.6703 100.923C87.6002 100.923 87.5476 100.87 87.5476 100.73C87.5476 99.5553 89.4761 97.5391 91.2644 97.5391C92.2638 97.5391 93.8066 97.9774 93.8066 99.3274C93.8066 99.9622 93.7832 100.794 93.7606 101.597C93.7394 102.347 93.719 103.071 93.719 103.588C93.719 104.149 93.9294 104.377 94.3852 104.377C94.6482 104.377 94.8235 104.272 94.9638 104.166L95.0164 104.201C94.9287 104.99 94.1573 105.902 93.1755 105.902C92.1411 105.902 91.5274 105.376 91.2118 104.605C90.8086 105.113 90.195 105.885 89.2657 105.885ZM91.2118 104.412L91.2294 101.729L90.493 102.29C90.1599 102.536 89.9144 102.816 89.9144 103.342C89.9144 104.096 90.3177 104.464 90.8963 104.464C91.019 104.464 91.1066 104.447 91.2118 104.412Z" fill="white"/>
<path fill-rule="evenodd" clip-rule="evenodd" d="M99.0903 109.759L99.8442 109.812V110.11C99.2832 110.092 98.2488 110.075 97.4072 110.075C96.5657 110.075 95.9345 110.092 95.4436 110.11V109.847L95.5488 109.829C96.0397 109.742 96.0397 109.654 96.0397 108.286V100.151C96.0397 99.9235 96.0397 99.7307 95.8293 99.3975L95.4611 98.7664V98.6787C96.3378 98.4333 97.8455 97.8371 98.5819 97.4865L98.6696 97.5216C98.6345 97.8547 98.5994 98.591 98.5994 98.9592C98.6305 98.9328 98.6629 98.9052 98.6965 98.8765C99.288 98.3711 100.262 97.5391 101.44 97.5391C103.316 97.5391 104.596 99.0118 104.596 101.186C104.596 104.272 102.299 105.955 100.107 105.955C99.5462 105.955 99.1429 105.867 98.5994 105.674V108.269C98.5994 109.636 98.617 109.724 99.0903 109.759ZM98.5994 99.117V103.079C98.5994 104.815 99.1079 105.429 99.967 105.429C101.089 105.429 101.825 104.201 101.825 102.185C101.825 100.327 100.879 99.0294 99.441 99.0294C99.178 99.0294 98.8624 99.0469 98.5994 99.117Z" fill="white"/>
<path d="M107.311 93.5417C108.065 93.5417 108.714 94.1378 108.714 94.9618C108.714 95.7859 108.065 96.3819 107.311 96.3819C106.557 96.3819 105.909 95.7859 105.909 94.9618C105.909 94.1378 106.557 93.5417 107.311 93.5417Z" fill="white"/>
<path d="M108.994 105.499L109.1 105.516V105.779C108.714 105.762 107.978 105.744 107.224 105.744C106.487 105.744 105.733 105.762 105.348 105.779V105.516L105.453 105.499C105.944 105.411 105.944 105.324 105.944 103.956V100.151C105.944 99.9235 105.944 99.7307 105.733 99.3975L105.365 98.7664V98.6787C106.242 98.4157 107.75 97.8371 108.486 97.4865L108.574 97.5216C108.539 97.8897 108.504 98.7488 108.504 100.186V103.956C108.504 105.324 108.504 105.411 108.994 105.499Z" fill="white"/>
<path d="M115.731 103.991C115.117 105.025 113.995 105.955 112.645 105.955C111.313 105.955 110.331 105.236 110.331 104.166C110.331 101.992 110.331 100.292 110.349 99.4326L109.63 98.5384V98.4683C110.594 97.8897 112.049 96.8027 112.891 95.9787L112.996 96.0313C112.961 96.3294 112.891 97.2761 112.891 97.8021L115.556 97.7144C115.556 98.0125 115.24 98.6261 115.03 98.8014L112.891 98.7664V103.448C112.891 104.166 113.522 104.272 114.241 104.272C114.697 104.272 115.152 104.201 115.661 103.903L115.731 103.991Z" fill="white"/>
<path fill-rule="evenodd" clip-rule="evenodd" d="M118.038 105.885C116.951 105.885 116.179 105.148 116.179 104.009C116.179 103.097 116.74 102.834 117.669 102.431L120.019 101.431V100.011C120.019 99.4326 119.598 98.7664 118.564 98.7664C118.055 98.7664 117.845 99.0118 117.845 99.5027C117.845 99.8884 117.915 100.327 118.003 100.642C117.757 100.712 116.705 100.923 116.442 100.923C116.372 100.923 116.319 100.87 116.319 100.73C116.319 99.5553 118.248 97.5391 120.036 97.5391C121.036 97.5391 122.579 97.9774 122.579 99.3274C122.579 99.9622 122.555 100.794 122.533 101.597C122.511 102.347 122.491 103.071 122.491 103.588C122.491 104.149 122.701 104.377 123.157 104.377C123.42 104.377 123.595 104.272 123.736 104.166L123.788 104.201C123.701 104.99 122.929 105.902 121.947 105.902C120.913 105.902 120.299 105.376 119.984 104.605C119.581 105.113 118.967 105.885 118.038 105.885ZM119.984 104.412L120.001 101.729L119.265 102.29C118.932 102.536 118.686 102.816 118.686 103.342C118.686 104.096 119.09 104.464 119.668 104.464C119.791 104.464 119.879 104.447 119.984 104.412Z" fill="white"/>
<path d="M127.827 105.499L127.932 105.516V105.779C127.546 105.762 126.81 105.744 126.056 105.744C125.32 105.744 124.566 105.762 124.18 105.779V105.516L124.285 105.499C124.776 105.411 124.776 105.324 124.776 103.956V95.2423C124.776 95.0144 124.776 94.7865 124.566 94.4884L124.11 93.8397V93.7521C124.986 93.5592 126.564 93.0683 127.336 92.7703L127.423 92.8053C127.388 93.1735 127.336 94.3657 127.336 95.8034V103.956C127.336 105.324 127.336 105.411 127.827 105.499Z" fill="white"/>
</svg>
