<svg width="73" height="14" viewBox="0 0 73 14" fill="none" xmlns="http://www.w3.org/2000/svg">
<path fill-rule="evenodd" clip-rule="evenodd" d="M6.79217 0C8.75369 0 13.5843 4.85472 13.5843 6.82592C13.5843 8.79715 8.75359 13.6518 6.79217 13.6518C4.83073 13.6518 6.91256e-05 8.79722 0 6.82592C0 4.85465 4.83072 7.11584e-05 6.79217 0ZM7.85081 2.9226C7.02372 2.69606 3.13386 4.93102 2.90843 5.76229C2.68312 6.59363 4.90684 10.5028 5.73396 10.7292C6.56146 10.9554 10.4509 8.72072 10.6763 7.88955C10.9015 7.05807 8.678 3.1493 7.85081 2.9226Z" fill="#040303"/>
<path d="M43.1061 1.26611C43.1061 1.112 43.2941 1.03786 43.3982 1.15071L49.8004 8.07495V1.76647C49.8004 1.67281 49.8757 1.59651 49.9687 1.59649H51.5023C51.5957 1.59649 51.6714 1.6728 51.6714 1.76647V12.3882C51.6714 12.5425 51.4827 12.6168 51.3786 12.5036L44.9913 5.56606V11.8879C44.9913 11.9814 44.916 12.0577 44.8226 12.0578H43.2753C43.1818 12.0578 43.1061 11.9815 43.1061 11.8879V1.26611Z" fill="#040303"/>
<path fill-rule="evenodd" clip-rule="evenodd" d="M35.9402 1.38277C38.9937 1.38277 41.3859 3.77306 41.3859 6.82634C41.3858 9.87952 38.9936 12.2707 35.9402 12.2707C32.879 12.2707 30.4809 9.87886 30.4808 6.82634C30.4808 3.77372 32.8789 1.38279 35.9402 1.38277ZM35.9402 3.20548C33.9439 3.20551 32.3798 4.79547 32.3798 6.82634C32.3799 8.8571 33.944 10.448 35.9402 10.448C37.9286 10.448 39.4868 8.85644 39.4869 6.82634C39.4869 4.79614 37.9287 3.20548 35.9402 3.20548Z" fill="#040303"/>
<path d="M27.4508 1.18279C27.5268 1.04211 27.7368 1.07607 27.7653 1.23362L29.6872 11.8579C29.7059 11.9619 29.6262 12.0578 29.5209 12.0578H28.034C27.9524 12.0578 27.8824 11.9989 27.8678 11.9183L26.7487 5.71937L23.7403 11.4833C23.6771 11.6044 23.5044 11.6044 23.4412 11.4833L20.4328 5.71937L19.3133 11.9183C19.2987 11.9989 19.229 12.0578 19.1475 12.0578H17.6602C17.555 12.0578 17.4756 11.9619 17.4943 11.8579L19.4162 1.23362C19.4447 1.07605 19.6548 1.04204 19.7308 1.18279L23.5899 8.33659V8.33909L27.4508 1.18279Z" fill="#040303"/>
<path fill-rule="evenodd" clip-rule="evenodd" d="M58.2674 1.19279C58.3288 1.06504 58.5101 1.06506 58.5715 1.19279L63.6789 11.8141C63.733 11.9267 63.6509 12.0574 63.5268 12.0574H61.7237C61.6576 12.0574 61.5973 12.0185 61.5699 11.9579L60.353 9.24982H56.3726L55.1273 11.9591C55.0996 12.0191 55.04 12.0574 54.9744 12.0574H53.3121C53.188 12.0573 53.1063 11.9267 53.1604 11.8141L58.2674 1.19279ZM57.1525 7.56876H59.6035L58.3899 4.87072L57.1525 7.56876Z" fill="#040303"/>
<path fill-rule="evenodd" clip-rule="evenodd" d="M67.7118 1.59649C70.8777 1.59649 72.8454 3.59943 72.8454 6.82634C72.8454 10.0532 70.8777 12.0574 67.7118 12.0574H65.1587C65.0653 12.0574 64.9896 11.9816 64.9896 11.8879V1.76606C64.9896 1.67241 65.0653 1.59649 65.1587 1.59649H67.7118ZM66.8885 3.37713V10.2626H67.7118C69.7672 10.2626 70.946 9.01021 70.946 6.82634C70.946 4.6345 69.7672 3.37713 67.7118 3.37713H66.8885Z" fill="#040303"/>
</svg>
