<svg width="127" height="26" viewBox="0 0 127 26" fill="none" xmlns="http://www.w3.org/2000/svg">
<path d="M65.8291 5.46305C65.829 5.47121 65.8313 5.4792 65.8359 5.486C65.8404 5.49279 65.8468 5.49806 65.8544 5.50113C65.862 5.50419 65.8703 5.50491 65.8782 5.50319C65.8862 5.50147 65.8935 5.49738 65.8991 5.49147C66.6264 4.74452 67.529 4.39981 68.6068 4.45731C69.9809 4.53039 70.9707 5.16908 71.5763 6.37339C71.9345 7.08583 72.0249 7.98805 72.0218 8.92884C72.0184 10.4308 72.0191 12.0773 72.0238 13.8682C72.0238 13.8843 72.0207 13.9003 72.0145 13.9152C72.0083 13.9301 71.9993 13.9436 71.9879 13.955C71.9765 13.9665 71.9629 13.9755 71.948 13.9817C71.9331 13.9878 71.9172 13.991 71.901 13.991H69.3527C69.3148 13.991 69.2784 13.9759 69.2515 13.9491C69.2247 13.9223 69.2096 13.8859 69.2096 13.8479C69.217 11.7877 69.2164 10.1497 69.2076 8.93391C69.1995 7.6907 68.4779 6.65248 67.0926 7.11831C66.3274 7.37608 65.9153 8.189 65.8514 8.94609C65.8358 9.12471 65.8287 9.47213 65.8301 9.98836C65.8308 10.5641 65.8314 11.8611 65.8321 13.8794C65.8321 13.8942 65.8292 13.9088 65.8235 13.9225C65.8179 13.9362 65.8096 13.9486 65.7991 13.959C65.7887 13.9695 65.7762 13.9778 65.7626 13.9835C65.7489 13.9891 65.7343 13.992 65.7195 13.992H63.097C63.0874 13.992 63.0779 13.9901 63.0691 13.9864C63.0602 13.9827 63.0521 13.9772 63.0454 13.9703C63.0386 13.9635 63.0332 13.9553 63.0295 13.9463C63.0259 13.9373 63.024 13.9277 63.024 13.9179V0.0629215C63.024 0.0462334 63.0306 0.0302297 63.0424 0.0184295C63.0542 0.00662943 63.0702 0 63.0869 0H65.7398C65.7635 0 65.7862 0.00930227 65.8029 0.0258604C65.8197 0.0424185 65.8291 0.0648766 65.8291 0.0882933V5.46305Z" fill="white"/>
<path d="M90.6782 0.00203172H93.3047C93.3551 0.00203172 93.396 0.0429256 93.396 0.0933703V13.8997C93.396 13.9501 93.3551 13.991 93.3047 13.991H90.6782C90.6277 13.991 90.5868 13.9501 90.5868 13.8997V0.0933703C90.5868 0.0429256 90.6277 0.00203172 90.6782 0.00203172Z" fill="white"/>
<path fill-rule="evenodd" clip-rule="evenodd" d="M123.28 13.171C123.28 13.1631 123.277 13.1555 123.273 13.1491C123.268 13.1427 123.262 13.1379 123.254 13.1353C123.247 13.1326 123.239 13.1323 123.231 13.1343C123.229 13.135 123.226 13.136 123.224 13.1372C123.222 13.138 123.221 13.1388 123.22 13.1397C123.218 13.1409 123.216 13.1422 123.215 13.1437L123.213 13.145L123.213 13.1459L123.212 13.1466C122.886 13.5269 122.475 13.8029 121.978 13.9748C119.34 14.8882 116.97 12.829 116.543 10.303C116.296 8.84088 116.566 7.51647 117.351 6.32975C118.04 5.28646 119.176 4.58316 120.444 4.46746C121.475 4.37274 122.406 4.7063 123.236 5.46813C123.241 5.47203 123.246 5.47459 123.252 5.4755C123.258 5.47642 123.263 5.47566 123.269 5.4733C123.274 5.47095 123.279 5.4671 123.282 5.46223C123.285 5.45735 123.287 5.45165 123.287 5.4458V0.0882933C123.287 0.0766984 123.289 0.0652173 123.294 0.054505C123.298 0.0437928 123.305 0.0340593 123.313 0.0258604C123.321 0.0176615 123.331 0.0111582 123.341 0.0067208C123.352 0.00228337 123.364 0 123.375 0H126.022C126.047 0 126.07 0.00972967 126.087 0.0270497C126.105 0.0443697 126.114 0.0678592 126.114 0.0923529V13.8753C126.114 13.8902 126.111 13.905 126.106 13.9188C126.1 13.9326 126.092 13.9451 126.081 13.9557C126.071 13.9663 126.058 13.9746 126.044 13.9803C126.03 13.986 126.016 13.989 126.001 13.989H123.419C123.382 13.989 123.347 13.9743 123.321 13.9483C123.295 13.9222 123.28 13.8868 123.28 13.8499V13.171ZM121.407 11.6527C121.688 11.6518 121.966 11.5905 122.226 11.4725C122.485 11.3545 122.72 11.1821 122.918 10.965C123.116 10.7479 123.272 10.4905 123.379 10.2074C123.485 9.92433 123.54 9.62114 123.539 9.31514C123.538 9.00914 123.481 8.70634 123.373 8.42401C123.264 8.14168 123.106 7.88535 122.906 7.66967C122.707 7.454 122.47 7.28318 122.211 7.16699C121.951 7.05079 121.672 6.99149 121.391 6.99247C121.11 6.99345 120.832 7.05469 120.573 7.1727C120.314 7.29071 120.079 7.46317 119.881 7.68023C119.683 7.8973 119.526 8.15472 119.42 8.4378C119.313 8.72088 119.259 9.02408 119.26 9.33008C119.261 9.63608 119.317 9.93888 119.426 10.2212C119.534 10.5035 119.693 10.7599 119.892 10.9755C120.092 11.1912 120.328 11.362 120.588 11.4782C120.848 11.5944 121.127 11.6537 121.407 11.6527Z" fill="white"/>
<path d="M31.7403 8.77968C31.7301 8.77991 31.7201 8.77745 31.7111 8.77254C31.7084 8.77119 31.6986 8.76002 31.6817 8.73905C30.4334 7.189 28.4625 4.67009 25.769 1.18232C25.6858 1.07474 25.5678 0.960737 25.4149 0.840306C25.3432 0.78379 25.2546 0.753044 25.1632 0.753027H22.9193C22.9077 0.753027 22.8962 0.75531 22.8855 0.759747C22.8748 0.764185 22.865 0.770688 22.8569 0.778887C22.8487 0.787086 22.8421 0.796819 22.8377 0.807532C22.8333 0.818244 22.831 0.829726 22.831 0.841321V13.8733C22.831 13.9045 22.8434 13.9345 22.8655 13.9565C22.8875 13.9786 22.9175 13.991 22.9487 13.991H25.6939C25.7209 13.991 25.7467 13.9803 25.7657 13.9613C25.7847 13.9423 25.7954 13.9164 25.7954 13.8895C25.7941 9.05062 25.7941 6.4177 25.7954 5.99078C25.7961 5.94274 25.8123 5.91399 25.8441 5.90451C25.8513 5.90237 25.8591 5.90248 25.8663 5.90483C25.8735 5.90718 25.88 5.91167 25.8847 5.91771L32.2043 13.9514C32.2132 13.9628 32.2244 13.972 32.2372 13.9783C32.2501 13.9847 32.2642 13.988 32.2784 13.988H34.6959C34.7072 13.988 34.7184 13.9857 34.7289 13.9814C34.7393 13.9771 34.7488 13.9707 34.7569 13.9627C34.7649 13.9547 34.7712 13.9452 34.7756 13.9347C34.7799 13.9242 34.7821 13.913 34.7821 13.9017V0.873797C34.7821 0.858336 34.7791 0.843028 34.7732 0.828745C34.7672 0.814462 34.7586 0.801485 34.7476 0.790552C34.7367 0.77962 34.7237 0.770949 34.7094 0.765033C34.6952 0.759116 34.6799 0.756071 34.6644 0.756071H31.8644C31.8479 0.756071 31.8322 0.762594 31.8206 0.774203C31.809 0.785813 31.8025 0.80156 31.8025 0.817978L31.7984 8.71977C31.7983 8.73013 31.7956 8.74031 31.7905 8.74933C31.7854 8.75835 31.7781 8.76589 31.7693 8.77121C31.7605 8.77653 31.7505 8.77945 31.7403 8.77968Z" fill="white"/>
<path d="M79.3228 0.75709H76.5725C76.512 0.75709 76.4629 0.806163 76.4629 0.866696V13.8814C76.4629 13.9419 76.512 13.991 76.5725 13.991H79.3228C79.3833 13.991 79.4324 13.9419 79.4324 13.8814V0.866696C79.4324 0.806163 79.3833 0.75709 79.3228 0.75709Z" fill="white"/>
<path fill-rule="evenodd" clip-rule="evenodd" d="M2.6381 12.1419C2.94798 12.4545 3.20643 12.7512 3.41347 13.0319C3.42983 13.0541 3.43735 13.0816 3.43453 13.109C3.43171 13.1364 3.41878 13.1617 3.39824 13.1801C3.08905 13.4575 2.75177 13.7846 2.38642 14.1615C1.653 14.9179 0.912485 15.6736 0.164863 16.4287C0.0342829 16.5613 0.0204124 16.6767 0.123253 16.7748C0.266011 16.9121 0.407417 17.0512 0.547469 17.1919C5.28557 21.951 7.92288 24.6001 8.45941 25.1394C8.62483 25.3058 8.76387 25.3626 8.93843 25.1789C9.53044 24.5538 10.4171 23.6475 11.5984 22.4601C13.2181 20.8329 15.0517 18.9946 17.099 16.9453C17.2726 16.7717 17.442 16.5475 17.2147 16.3546C17.032 16.2004 16.8822 16.063 16.7651 15.9426C15.8578 15.0048 14.9268 14.0702 13.9722 13.1385C13.9577 13.1243 13.9461 13.1074 13.9382 13.0887C13.9303 13.07 13.9261 13.0499 13.9261 13.0296C13.926 13.0093 13.9299 12.9892 13.9376 12.9704C13.9454 12.9517 13.9568 12.9346 13.9712 12.9203L17.2827 9.60878C17.318 9.57338 17.3379 9.5255 17.3381 9.47553C17.3382 9.42556 17.3187 9.37753 17.2837 9.34187C14.3731 6.39942 11.8281 3.84228 9.64884 1.67045C9.26116 1.28345 9.02368 1.03108 8.9364 0.913359C8.80243 0.732713 8.6705 0.714444 8.50914 0.874794C6.20808 3.15825 3.38268 6.00598 0.0329295 9.41798C0.0217403 9.42937 0.0130528 9.44298 0.00741444 9.45794C0.00177532 9.4729 -0.000691552 9.48889 0.000166356 9.5049C0.00102426 9.52092 0.00518915 9.53661 0.0124001 9.551C0.0196102 9.56538 0.0297108 9.57814 0.0420637 9.58848C0.46153 9.93803 1.00413 10.4878 1.85486 11.3499C2.0909 11.589 2.35067 11.8523 2.6381 12.1419ZM14.0838 9.53368L12.255 11.3625C12.2483 11.3692 12.2401 11.3744 12.2312 11.3777C12.2222 11.381 12.2127 11.3824 12.2032 11.3817C12.1937 11.381 12.1844 11.3783 12.176 11.3738C12.1676 11.3692 12.1603 11.363 12.1546 11.3554C12.0524 11.2221 11.9868 11.1402 11.9577 11.1098C11.0578 10.193 10.254 9.3872 9.54633 8.69235C9.44725 8.59542 9.35401 8.48989 9.2619 8.38563C9.13701 8.24428 9.01417 8.10524 8.88159 7.9931C8.72936 7.86421 8.568 7.97585 8.44723 8.09662C7.95197 8.58917 6.86775 9.66832 5.19457 11.3341C5.17761 11.3508 5.15466 11.3601 5.13071 11.3599C5.10677 11.3597 5.08376 11.35 5.06669 11.333L3.27747 9.54383C3.25461 9.52092 3.24178 9.48985 3.24178 9.45735C3.24178 9.42485 3.25461 9.39356 3.27747 9.37028L8.55988 4.08788C8.59136 4.05633 8.63413 4.03862 8.67883 4.03862C8.72353 4.03862 8.76652 4.05633 8.79837 4.08788L14.0838 9.37434C14.0943 9.38486 14.1027 9.39735 14.1084 9.41107C14.1141 9.4248 14.117 9.4395 14.117 9.45431C14.117 9.46912 14.1141 9.48377 14.1084 9.49739C14.1027 9.51101 14.0943 9.52334 14.0838 9.53368ZM8.68964 11.1737C8.7327 11.1738 8.77397 11.191 8.80437 11.2215L10.4936 12.9166C10.5086 12.9317 10.5206 12.9496 10.5287 12.9693C10.5368 12.989 10.541 13.0101 10.5409 13.0315C10.5409 13.0528 10.5367 13.0739 10.5285 13.0936C10.5203 13.1133 10.5083 13.1312 10.4932 13.1462L8.78656 14.8469C8.75605 14.8773 8.71472 14.8943 8.67166 14.8942C8.6286 14.8942 8.58732 14.877 8.55693 14.8465L6.86772 13.1514C6.85267 13.1363 6.84074 13.1183 6.83262 13.0986C6.82449 13.0789 6.82033 13.0578 6.82036 13.0365C6.8204 13.0151 6.82464 12.994 6.83283 12.9743C6.84103 12.9547 6.85302 12.9368 6.86813 12.9217L8.57474 11.2211C8.60524 11.1907 8.64657 11.1736 8.68964 11.1737ZM8.80345 22.0024C8.773 22.0328 8.7341 22.0481 8.68674 22.0481C8.6387 22.0481 8.5998 22.0328 8.57003 22.0024C6.70605 20.1188 4.95945 18.3617 3.33025 16.7311C3.29554 16.696 3.27608 16.6486 3.27608 16.5992C3.27608 16.5498 3.29554 16.5024 3.33025 16.4673L5.00681 14.7938C5.04144 14.7592 5.08833 14.7399 5.13723 14.7399C5.18612 14.7399 5.23301 14.7592 5.26764 14.7938C6.32919 15.8567 7.42424 16.9625 8.55278 18.1114C8.59608 18.1553 8.64107 18.1773 8.68775 18.1773C8.73444 18.1773 8.77943 18.1553 8.82273 18.1114C9.95194 16.9632 11.048 15.8584 12.1109 14.7968C12.1455 14.7623 12.1924 14.7429 12.2413 14.7429C12.2902 14.7429 12.3371 14.7623 12.3717 14.7968L14.0463 16.4713C14.081 16.5065 14.1004 16.5539 14.1004 16.6033C14.1004 16.6527 14.081 16.7001 14.0463 16.7352C12.4157 18.3644 10.6681 20.1201 8.80345 22.0024Z" fill="white"/>
<path d="M55.9341 7.10406H54.2687C54.2401 7.10406 54.2128 7.09272 54.1926 7.07255C54.1724 7.05237 54.1611 7.02501 54.1611 6.99648V4.72013C54.1611 4.70532 54.167 4.69112 54.1774 4.68066C54.1879 4.67019 54.2021 4.66431 54.2169 4.66431H55.9686C55.9826 4.66431 55.996 4.65885 56.0059 4.64915C56.0158 4.63944 56.0213 4.62628 56.0213 4.61255V2.16874C56.0213 2.14075 56.0325 2.1139 56.0523 2.09411C56.0721 2.07431 56.0989 2.06319 56.1269 2.06319H58.73C58.7567 2.06319 58.7822 2.07388 58.8011 2.09292C58.8199 2.11195 58.8305 2.13776 58.8305 2.16468V4.56383C58.8305 4.59048 58.8411 4.61604 58.8599 4.63488C58.8788 4.65372 58.9043 4.66431 58.931 4.66431H61.3626C61.3828 4.66431 61.4022 4.67233 61.4164 4.6866C61.4307 4.70088 61.4387 4.72024 61.4387 4.74042V6.99039C61.4387 7.01919 61.4274 7.04681 61.4072 7.06718C61.387 7.08754 61.3597 7.09898 61.3312 7.09898H58.9249C58.9115 7.09898 58.8982 7.10162 58.8858 7.10673C58.8734 7.11184 58.8622 7.11934 58.8528 7.12877C58.8433 7.13821 58.8359 7.14941 58.8308 7.16171C58.8258 7.17402 58.8233 7.18719 58.8234 7.20047C58.8329 8.61723 58.8342 9.48224 58.8275 9.7955C58.8122 10.4785 58.9432 11.2823 59.6881 11.4741C60.2415 11.6162 60.8004 11.603 61.3646 11.4345C61.3742 11.4317 61.3843 11.431 61.394 11.4327C61.4038 11.4344 61.4131 11.4383 61.4211 11.4441C61.4291 11.4499 61.4356 11.4575 61.44 11.4662C61.4445 11.4749 61.4468 11.4846 61.4468 11.4944V13.8661C61.4468 13.881 61.4418 13.8953 61.4326 13.9069C61.4233 13.9185 61.4105 13.9267 61.3961 13.9301C59.7246 14.3208 57.4838 14.1483 56.5024 12.4951C56.0863 11.7948 56.0122 11.0539 56.0203 10.2288C56.0325 8.89395 56.0298 7.87773 56.0122 7.18017C56.0117 7.1598 56.0032 7.14044 55.9886 7.12622C55.974 7.11201 55.9544 7.10405 55.9341 7.10406Z" fill="white"/>
<path fill-rule="evenodd" clip-rule="evenodd" d="M44.5889 12.5313C45.4423 11.5557 45.8722 10.2822 45.7842 8.99077C45.6962 7.69938 45.0973 6.49594 44.1195 5.64521C43.1416 4.79448 41.8647 4.36613 40.5699 4.45441C39.275 4.54269 38.0681 5.14035 37.2147 6.11593C36.3614 7.0915 35.9314 8.36507 36.0194 9.65647C36.1075 10.9479 36.7063 12.1513 37.6842 13.002C38.6621 13.8528 39.9389 14.2811 41.2338 14.1928C42.5287 14.1046 43.7355 13.5069 44.5889 12.5313ZM42.376 10.9117C41.9858 11.3329 41.4566 11.5695 40.9049 11.5695C40.3531 11.5695 39.8239 11.3329 39.4337 10.9117C39.0436 10.4905 38.8244 9.91927 38.8244 9.32362C38.8244 8.72797 39.0436 8.15671 39.4337 7.73552C39.8239 7.31433 40.3531 7.07771 40.9049 7.07771C41.4566 7.07771 41.9858 7.31433 42.376 7.73552C42.7662 8.15671 42.9853 8.72797 42.9853 9.32362C42.9853 9.91927 42.7662 10.4905 42.376 10.9117Z" fill="white"/>
<path d="M80.7304 11.0225C80.7299 11.0128 80.7313 11.0032 80.7346 10.9941C80.7379 10.985 80.7431 10.9767 80.7497 10.9696C80.7564 10.9626 80.7644 10.957 80.7733 10.9532C80.7822 10.9494 80.7918 10.9474 80.8015 10.9474H83.6127C83.634 10.9473 83.6547 10.9553 83.6706 10.9697C83.6866 10.9841 83.6966 11.004 83.6989 11.0256C83.7476 11.4992 84.0169 11.8124 84.5068 11.9653C84.9513 12.1044 85.7276 12.1571 86.0443 11.7887C86.3071 11.4822 86.1752 11.1392 85.8687 10.9576C85.7246 10.8716 85.4212 10.7678 84.9584 10.646C84.7168 10.5817 84.2828 10.4704 83.6563 10.3121C83.0602 10.1619 82.6374 10.0191 82.3877 9.88382C81.4899 9.39872 80.9933 8.61557 80.8979 7.5344C80.7659 6.02935 81.8437 5.01447 83.1773 4.65622C85.3511 4.07267 88.347 4.64404 88.6251 7.3913C88.6265 7.40444 88.6252 7.41772 88.6211 7.4303C88.6171 7.44288 88.6105 7.45447 88.6017 7.46432C88.5929 7.47418 88.5821 7.48207 88.57 7.4875C88.558 7.49293 88.545 7.49577 88.5317 7.49583H85.9225C85.8974 7.49578 85.8729 7.48845 85.852 7.47475C85.8311 7.46105 85.8147 7.44157 85.8048 7.4187C85.7882 7.38128 85.7719 7.33625 85.7548 7.28891L85.7547 7.28863C85.7185 7.18841 85.6785 7.07794 85.6241 7.00768C85.2436 6.51547 84.4499 6.49212 83.9953 6.82805C83.5254 7.17412 83.8593 7.65009 84.3018 7.80131C84.5846 7.89806 85.2997 8.09596 86.4472 8.39501C87.731 8.72992 88.8078 9.37233 89.0097 10.8063C89.2645 12.6118 88.0263 13.7099 86.4056 14.0499C84.7564 14.3949 82.8738 14.1585 81.6347 12.965C81.0738 12.4251 80.7724 11.7776 80.7304 11.0225Z" fill="white"/>
<path fill-rule="evenodd" clip-rule="evenodd" d="M104.245 13.9118C104.242 13.4186 104.24 11.8902 104.241 9.32664C104.242 6.7624 104.244 5.23366 104.247 4.74043C104.247 4.72977 104.245 4.71921 104.241 4.70936C104.237 4.69951 104.231 4.69056 104.224 4.68302C104.216 4.67548 104.207 4.6695 104.198 4.66542C104.188 4.66134 104.177 4.65924 104.167 4.65924L101.55 4.65823C101.518 4.65823 101.488 4.67085 101.466 4.69331C101.443 4.71576 101.431 4.74622 101.431 4.77799V5.39401C101.431 5.40672 101.427 5.41917 101.42 5.42992C101.414 5.44066 101.404 5.44924 101.392 5.45467C101.381 5.4601 101.368 5.46214 101.355 5.46057C101.343 5.45899 101.331 5.45386 101.321 5.44577C101.263 5.39909 101.205 5.34539 101.143 5.28914C101.014 5.17174 100.874 5.04321 100.704 4.94442C100.072 4.57839 99.3943 4.41771 98.6724 4.46236C96.1575 4.61662 94.5906 6.97721 94.5895 9.32359C94.5895 11.67 96.1545 14.0316 98.6693 14.1879C99.3919 14.2325 100.07 14.0718 100.702 13.7058C100.872 13.6074 101.013 13.4788 101.142 13.3612L101.142 13.3611L101.142 13.361L101.142 13.3609L101.142 13.3607L101.143 13.3603C101.204 13.3047 101.262 13.2517 101.319 13.2055C101.329 13.1974 101.341 13.1923 101.353 13.1907C101.366 13.1891 101.379 13.1912 101.39 13.1966C101.402 13.202 101.412 13.2106 101.418 13.2213C101.425 13.2321 101.429 13.2445 101.429 13.2572V13.8733C101.429 13.889 101.432 13.9046 101.438 13.9191C101.444 13.9336 101.453 13.9468 101.464 13.9579C101.475 13.9691 101.488 13.9779 101.502 13.9839C101.516 13.9899 101.532 13.993 101.547 13.993H104.165C104.167 13.993 104.169 13.9929 104.171 13.9928C104.173 13.9926 104.176 13.9923 104.178 13.992L104.18 13.9916C104.181 13.9914 104.182 13.9912 104.183 13.991C104.187 13.99 104.191 13.9886 104.196 13.9868C104.205 13.9828 104.214 13.9768 104.222 13.9692C104.229 13.9617 104.235 13.9527 104.239 13.9429C104.241 13.9381 104.242 13.9331 104.243 13.928C104.244 13.9227 104.245 13.9173 104.245 13.9118ZM101.07 10.957C100.672 11.3974 100.129 11.6477 99.5614 11.6526C99.2802 11.6551 99.0013 11.5972 98.7404 11.4824C98.4796 11.3676 98.2421 11.198 98.0414 10.9834C97.8406 10.7688 97.6806 10.5133 97.5706 10.2315C97.4605 9.94976 97.4025 9.64725 97.3998 9.34126C97.3944 8.72329 97.6148 8.12867 98.0126 7.6882C98.4103 7.24772 98.9529 6.99748 99.5208 6.99253C99.802 6.99007 100.081 7.04791 100.342 7.16274C100.603 7.27757 100.84 7.44714 101.041 7.66177C101.242 7.8764 101.402 8.13189 101.512 8.41364C101.622 8.6954 101.68 8.99791 101.682 9.3039C101.688 9.92186 101.467 10.5165 101.07 10.957Z" fill="white"/>
<path d="M109.176 5.47521C109.176 5.48251 109.178 5.48965 109.182 5.49571C109.185 5.49902 109.187 5.50193 109.191 5.50433C109.193 5.50632 109.196 5.50796 109.199 5.50919C109.206 5.51192 109.213 5.51256 109.22 5.51103C109.228 5.50949 109.234 5.50585 109.239 5.50058C109.988 4.72454 110.924 4.37881 112.046 4.46338C113.392 4.56487 114.354 5.21033 114.934 6.39976C115.301 7.15482 115.387 8.04791 115.383 8.98666C115.38 9.68016 115.38 11.3199 115.383 13.9057C115.383 13.9167 115.381 13.9275 115.377 13.9376C115.374 13.9433 115.371 13.9487 115.368 13.9538C115.365 13.9576 115.362 13.9612 115.359 13.9646C115.354 13.9692 115.349 13.9733 115.343 13.9767C115.34 13.979 115.336 13.981 115.332 13.9826C115.322 13.9868 115.311 13.989 115.3 13.989H112.665C112.652 13.989 112.639 13.9864 112.627 13.9814C112.615 13.9765 112.605 13.9692 112.595 13.9601C112.586 13.9509 112.579 13.9401 112.574 13.9281C112.569 13.9162 112.567 13.9034 112.567 13.8905C112.571 11.6422 112.57 10.0661 112.565 9.16224C112.558 8.13011 112.271 7.0168 111.043 7.01071C109.62 7.00462 109.171 8.33917 109.168 9.53266C109.165 11.032 109.166 12.4826 109.172 13.8844C109.172 13.8984 109.17 13.9122 109.165 13.9251C109.159 13.9381 109.152 13.9498 109.142 13.9597C109.132 13.9696 109.121 13.9775 109.108 13.9829C109.095 13.9882 109.081 13.991 109.068 13.991H106.455C106.452 13.991 106.448 13.9908 106.445 13.9904C106.436 13.9894 106.427 13.9871 106.419 13.9837C106.407 13.9788 106.397 13.9717 106.388 13.9628C106.379 13.9538 106.372 13.9432 106.367 13.9315C106.362 13.9198 106.36 13.9072 106.36 13.8946V4.72826C106.36 4.71157 106.366 4.69557 106.378 4.68377C106.39 4.67197 106.405 4.66534 106.422 4.66534H109.085C109.109 4.66534 109.132 4.67496 109.149 4.69209C109.167 4.70922 109.176 4.73245 109.176 4.75668V5.47521Z" fill="white"/>
<path d="M50.1533 5.87968C50.1469 5.87174 50.1434 5.86189 50.1432 5.85171V4.80436C50.1432 4.76721 50.1286 4.73159 50.1025 4.70533C50.0764 4.67906 50.0411 4.66431 50.0042 4.66431H47.4153C47.3951 4.66431 47.3757 4.67233 47.3614 4.6866C47.3472 4.70087 47.3391 4.72023 47.3391 4.74042V13.8875C47.3391 13.9149 47.3501 13.9412 47.3695 13.9607C47.3889 13.9801 47.4152 13.991 47.4427 13.991H50.0306C50.0599 13.991 50.0881 13.9794 50.1088 13.9589C50.1295 13.9383 50.1412 13.9104 50.1412 13.8814C50.1439 11.2481 50.1449 9.83575 50.1442 9.64428C50.1412 8.92778 50.3239 8.10675 50.9074 7.66528C51.5712 7.16495 52.4439 7.21265 53.2112 7.50696C53.2191 7.51012 53.2276 7.51125 53.236 7.51025C53.2445 7.50926 53.2526 7.50617 53.2596 7.50126C53.2666 7.49635 53.2723 7.48977 53.2763 7.48209C53.2802 7.47441 53.2823 7.46587 53.2822 7.45723V4.72317C53.2823 4.70361 53.2757 4.68466 53.2637 4.6695C53.2517 4.65435 53.235 4.64391 53.2163 4.63995C52.0096 4.38217 50.8141 4.70794 50.2295 5.872C50.2248 5.88106 50.2173 5.8883 50.208 5.89256C50.1988 5.89683 50.1884 5.89788 50.1784 5.89554C50.1685 5.89321 50.1597 5.88763 50.1533 5.87968Z" fill="white"/>
<path d="M26.788 23.5024L29.4368 17.263C29.4468 17.2392 29.4636 17.2189 29.4851 17.2046C29.5066 17.1904 29.5318 17.1828 29.5576 17.1828H30.4415C30.4617 17.1827 30.4816 17.1876 30.4994 17.1971C30.5172 17.2066 30.5324 17.2204 30.5435 17.2372C30.5547 17.254 30.5615 17.2733 30.5634 17.2934C30.5652 17.3135 30.5621 17.3337 30.5542 17.3523L27.2102 25.2297C27.2032 25.2458 27.1918 25.2596 27.1773 25.2694C27.1627 25.2793 27.1456 25.2849 27.128 25.2855L26.4399 25.3007C26.4258 25.3014 26.412 25.299 26.3993 25.2936C26.3066 25.2571 26.2288 25.1637 26.1659 25.0135C25.6787 23.8559 24.5844 21.2849 22.8827 17.3005C22.877 17.2872 22.8747 17.2727 22.876 17.2583C22.8772 17.2439 22.8821 17.2301 22.89 17.218C22.898 17.2059 22.9088 17.196 22.9215 17.1892C22.9342 17.1823 22.9485 17.1787 22.9629 17.1787H23.9676C23.9836 17.1788 23.9991 17.1834 24.0123 17.1921C24.0255 17.2008 24.0357 17.2131 24.0417 17.2274L26.7037 23.5014C26.7071 23.5097 26.7129 23.5169 26.7203 23.522C26.7278 23.527 26.7365 23.5298 26.7455 23.5299C26.7545 23.53 26.7634 23.5275 26.7709 23.5226C26.7785 23.5177 26.7844 23.5107 26.788 23.5024Z" fill="white"/>
<path d="M44.5523 23.5247C44.5347 22.384 44.5313 21.3887 44.5421 20.5389C44.5424 20.5176 44.5512 20.4972 44.5665 20.4822C44.5819 20.4672 44.6027 20.4587 44.6243 20.4588H46.0685C46.0989 20.4588 46.1281 20.4466 46.1496 20.4249C46.1711 20.4032 46.1832 20.3737 46.1832 20.3431V19.6996C46.1832 19.6671 46.1702 19.6358 46.1472 19.6128C46.1242 19.5898 46.0929 19.5768 46.0604 19.5768H44.6314C44.6059 19.5768 44.5813 19.5667 44.5632 19.5486C44.5452 19.5305 44.535 19.506 44.535 19.4804V18.1073C44.535 18.0718 44.521 18.0377 44.4961 18.0126C44.4711 17.9874 44.4373 17.9733 44.4021 17.9733H43.6977C43.6815 17.9733 43.6654 17.9765 43.6504 17.9828C43.6353 17.989 43.6217 17.9981 43.6102 18.0096C43.5987 18.0211 43.5896 18.0347 43.5833 18.0498C43.5771 18.0648 43.5739 18.0809 43.5739 18.0971V19.5098C43.5739 19.5174 43.5724 19.525 43.5695 19.532C43.5666 19.539 43.5623 19.5454 43.557 19.5508L43.5562 19.5515L43.5547 19.5529L43.5536 19.5539L43.5524 19.5548C43.5481 19.5583 43.5433 19.5612 43.5382 19.5633L43.5372 19.5637C43.5367 19.5639 43.5362 19.5641 43.5357 19.5642L43.5351 19.5645C43.5342 19.5648 43.5333 19.5651 43.5323 19.5654C43.5309 19.5658 43.5294 19.5661 43.528 19.5665C43.5241 19.5673 43.5201 19.5677 43.5161 19.5677H42.418C42.397 19.5677 42.3769 19.576 42.362 19.5909C42.3472 19.6057 42.3388 19.6259 42.3388 19.6469V20.4009C42.3388 20.4195 42.3462 20.4373 42.3593 20.4504C42.3725 20.4636 42.3903 20.4709 42.4088 20.4709H43.5039C43.5079 20.4709 43.5119 20.4713 43.5158 20.4721C43.5168 20.4723 43.5178 20.4725 43.5188 20.4727C43.5196 20.4729 43.5203 20.4731 43.5211 20.4734C43.5234 20.474 43.5256 20.4748 43.5278 20.4757C43.5354 20.4789 43.5423 20.4836 43.548 20.4894C43.5538 20.4953 43.5583 20.5022 43.5614 20.5098C43.5644 20.5175 43.5659 20.5256 43.5658 20.5339C43.553 22.1969 43.5509 23.1932 43.5597 23.5226C43.5678 23.8183 43.5881 24.0277 43.6206 24.1509C43.9301 25.3322 45.0424 25.4793 46.0857 25.253C46.1141 25.247 46.1396 25.2313 46.1579 25.2085C46.1762 25.1858 46.1862 25.1575 46.1862 25.1282V24.4442C46.1862 24.4316 46.1835 24.4192 46.1782 24.4078C46.173 24.3964 46.1653 24.3863 46.1557 24.3782C46.1462 24.3701 46.135 24.3642 46.1229 24.3608C46.1108 24.3575 46.0981 24.3568 46.0857 24.3589C45.3408 24.4787 44.5685 24.5629 44.5523 23.5247Z" fill="white"/>
<path fill-rule="evenodd" clip-rule="evenodd" d="M30.9185 22.6844C30.9106 22.6844 30.9029 22.6859 30.8956 22.689C30.8884 22.6921 30.8819 22.6967 30.8765 22.7024C30.8711 22.7081 30.8669 22.7148 30.8641 22.7222C30.8614 22.7296 30.8602 22.7374 30.8606 22.7453C30.8918 23.317 31.1347 23.7747 31.5893 24.1184C32.388 24.7232 33.6992 24.638 34.2351 23.7723C34.2819 23.697 34.347 23.6348 34.4243 23.5917C34.5015 23.5485 34.5883 23.5258 34.6766 23.5257H35.1495C35.1848 23.5256 35.2196 23.5346 35.2503 23.552C35.2811 23.5693 35.3069 23.5944 35.3252 23.6247C35.3434 23.655 35.3536 23.6896 35.3546 23.7251C35.3557 23.7605 35.3476 23.7957 35.3312 23.8271C34.754 24.9266 33.841 25.4482 32.592 25.392C28.7599 25.2205 28.9872 19.2054 32.9756 19.4622C34.6329 19.5687 35.5666 21.0017 35.5077 22.6012C35.507 22.6238 35.4974 22.6452 35.4811 22.6609C35.4648 22.6766 35.4431 22.6854 35.4205 22.6854L30.9185 22.6844ZM32.6681 21.9171C33.4875 21.9144 34.0528 21.9151 34.364 21.9192C34.3738 21.9192 34.3835 21.917 34.3924 21.9129C34.4012 21.9088 34.4091 21.9027 34.4153 21.8953C34.4215 21.8878 34.426 21.879 34.4283 21.8696C34.4307 21.8602 34.4309 21.8505 34.4289 21.841C34.2422 20.9266 33.6262 20.342 32.6631 20.3441C31.6999 20.3471 31.088 20.9368 30.9063 21.8512C30.9043 21.8607 30.9046 21.8706 30.907 21.88C30.9094 21.8895 30.9139 21.8983 30.9203 21.9058C30.9266 21.9133 30.9346 21.9193 30.9436 21.9234C30.9526 21.9275 30.9624 21.9295 30.9723 21.9293C31.2835 21.9239 31.8488 21.9198 32.6681 21.9171Z" fill="white"/>
<path d="M39.0274 19.4703C38.4841 19.5346 38.0094 19.8126 37.6035 20.3045C37.5992 20.3099 37.5933 20.3137 37.5866 20.3155C37.58 20.3173 37.5729 20.317 37.5664 20.3145C37.5598 20.3121 37.5541 20.3077 37.5501 20.3019C37.546 20.2961 37.5438 20.2892 37.5436 20.2822V19.6925C37.5436 19.6578 37.5297 19.6245 37.505 19.6C37.4802 19.5754 37.4467 19.5616 37.4117 19.5616H36.7094C36.6674 19.5616 36.6271 19.5783 36.5975 19.608C36.5678 19.6377 36.5511 19.6779 36.5511 19.7199V25.1231C36.5511 25.1442 36.5552 25.165 36.5633 25.1845C36.5713 25.2039 36.5832 25.2216 36.598 25.2365C36.6129 25.2514 36.6306 25.2632 36.6501 25.2713C36.6695 25.2793 36.6904 25.2835 36.7114 25.2835H37.3924C37.4122 25.2835 37.4318 25.2795 37.4501 25.2719C37.4684 25.2643 37.485 25.2532 37.499 25.2391C37.5129 25.2251 37.524 25.2084 37.5315 25.19C37.539 25.1717 37.5427 25.1521 37.5426 25.1322C37.5392 23.4895 37.5443 22.4976 37.5578 22.1566C37.5815 21.5606 37.8129 21.0745 38.252 20.6983C38.7077 20.3086 39.5947 20.2355 40.0493 20.6709C40.3565 20.9659 40.5158 21.3417 40.5273 21.7984C40.5341 22.0731 40.5361 23.1962 40.5334 25.1678C40.5334 25.2006 40.5464 25.2321 40.5694 25.2553C40.5924 25.2785 40.6237 25.2916 40.6562 25.2916H41.3839C41.4116 25.2916 41.4382 25.2805 41.4578 25.2607C41.4774 25.2409 41.4884 25.214 41.4884 25.186C41.4884 24.5162 41.4915 23.4969 41.4976 22.1282C41.5003 21.5308 41.4597 21.113 41.3758 20.8749C41.0094 19.8336 40.1041 19.3434 39.0274 19.4703Z" fill="white"/>
<path fill-rule="evenodd" clip-rule="evenodd" d="M58.2216 22.7453C58.2527 23.317 58.4956 23.7747 58.9503 24.1184C59.75 24.7233 61.0612 24.638 61.597 23.7713C61.644 23.6959 61.7092 23.6336 61.7866 23.5905C61.8641 23.5473 61.9511 23.5247 62.0395 23.5247H62.5125C62.5478 23.5246 62.5825 23.5337 62.6133 23.551C62.6441 23.5684 62.6699 23.5934 62.6881 23.6237C62.7064 23.654 62.7166 23.6886 62.7176 23.7241C62.7187 23.7595 62.7106 23.7947 62.6941 23.8261C62.117 24.9263 61.2036 25.4482 59.954 25.3921C56.1208 25.2216 56.3461 19.2044 60.3366 19.4602C61.9939 19.5667 62.9286 20.9997 62.8707 22.6002C62.8699 22.6228 62.8604 22.6442 62.8441 22.6599C62.8278 22.6756 62.8061 22.6844 62.7834 22.6844H58.2794C58.2716 22.6844 58.2638 22.686 58.2566 22.6891C58.254 22.6902 58.2515 22.6915 58.2492 22.6929C58.2478 22.6937 58.2464 22.6946 58.2451 22.6956C58.2424 22.6976 58.2398 22.6999 58.2374 22.7024C58.232 22.7081 58.2278 22.7148 58.2251 22.7222C58.2236 22.7262 58.2226 22.7303 58.222 22.7344C58.2219 22.7351 58.2219 22.7359 58.2218 22.7366C58.2215 22.7395 58.2214 22.7424 58.2216 22.7453ZM60.0352 21.9202C60.8545 21.9209 61.4198 21.9236 61.731 21.9283C61.7409 21.9285 61.7507 21.9265 61.7597 21.9224C61.7687 21.9183 61.7767 21.9123 61.783 21.9048C61.7894 21.8973 61.7939 21.8885 61.7963 21.879C61.7987 21.8696 61.799 21.8597 61.797 21.8502C61.6123 20.9348 60.9983 20.3472 60.0352 20.3472C59.071 20.3472 58.457 20.9348 58.2723 21.8492C58.2704 21.8587 58.2706 21.8686 58.273 21.878C58.2754 21.8875 58.28 21.8963 58.2863 21.9038C58.2926 21.9113 58.3006 21.9173 58.3096 21.9214C58.3186 21.9255 58.3284 21.9275 58.3383 21.9273C58.6495 21.9226 59.2151 21.9202 60.0352 21.9202Z" fill="white"/>
<path d="M63.6354 23.6896C63.6335 23.7003 63.634 23.7112 63.637 23.7216C63.7923 24.2737 63.9699 24.6827 64.4387 24.9811C65.1359 25.4246 66.2056 25.5291 66.9526 25.2632C67.7117 24.9926 68.0875 24.4838 68.0801 23.7368C68.0668 22.3947 66.9667 22.1197 66.049 21.8902C65.8446 21.8391 65.6492 21.7903 65.4769 21.7324C65.0426 21.5863 64.796 21.3397 64.869 20.8586C64.934 20.4202 65.5429 20.2589 65.9144 20.2994C66.4069 20.3522 66.7141 20.5694 66.8359 20.951C66.8489 20.9908 66.8742 21.0255 66.9081 21.0501C66.9419 21.0747 66.9827 21.088 67.0246 21.088H67.7746C67.7927 21.0881 67.8105 21.084 67.8267 21.0762C67.843 21.0683 67.8572 21.0568 67.8684 21.0427C67.8795 21.0285 67.8873 21.0119 67.8911 20.9943C67.8949 20.9766 67.8946 20.9584 67.8903 20.9408C67.5107 19.3516 65.5074 19.0593 64.3565 19.9108C63.7172 20.3827 63.6938 21.4757 64.2053 22.04C64.649 22.5296 65.2625 22.6852 65.7944 22.8201C65.9206 22.8521 66.0422 22.8829 66.1559 22.9168C66.1709 22.9213 66.1857 22.9256 66.2005 22.93C66.488 23.0149 66.7271 23.0856 66.9231 23.3288C67.2195 23.6983 67.121 24.2087 66.6968 24.4127C66.0209 24.7375 64.9289 24.5802 64.7117 23.7013C64.7071 23.6816 64.696 23.6641 64.6802 23.6515C64.6643 23.639 64.6447 23.6322 64.6245 23.6323H63.704C63.6931 23.6323 63.6825 23.6349 63.6728 23.6398C63.6632 23.6446 63.6548 23.6516 63.6483 23.6603C63.6418 23.6689 63.6374 23.679 63.6354 23.6896Z" fill="white"/>
<path d="M54.7863 20.4831C54.7862 20.4898 54.7884 20.4963 54.7926 20.5015C54.796 20.5059 54.8006 20.5091 54.8058 20.511C54.8068 20.5114 54.8079 20.5117 54.8089 20.5119C54.8154 20.5135 54.8222 20.5127 54.8282 20.5099C54.8342 20.5071 54.8391 20.5023 54.8421 20.4963C55.1871 19.8062 55.9584 19.3982 56.6993 19.5129C56.738 19.5187 56.7733 19.5383 56.7988 19.5681C56.8243 19.5979 56.8383 19.6359 56.8383 19.6753V20.4222C56.8383 20.4379 56.8348 20.4533 56.8281 20.4675C56.8215 20.4816 56.8119 20.4941 56.7999 20.5042C56.7879 20.5142 56.7739 20.5216 56.7588 20.5256C56.7437 20.5297 56.7279 20.5304 56.7125 20.5278C55.4987 20.3116 54.8543 21.1986 54.8066 22.3312C54.7822 22.9124 54.7788 23.8522 54.7964 25.1505C54.7967 25.1678 54.7935 25.1849 54.7871 25.2009C54.7807 25.2169 54.7712 25.2314 54.7591 25.2437C54.747 25.256 54.7326 25.2657 54.7167 25.2724C54.7008 25.279 54.6837 25.2825 54.6665 25.2825H53.9256C53.8904 25.2825 53.8566 25.2684 53.8316 25.2435C53.8067 25.2186 53.7927 25.1848 53.7927 25.1495V19.6388C53.7927 19.6194 53.8004 19.6008 53.8141 19.5871C53.8278 19.5734 53.8464 19.5657 53.8658 19.5657H54.7C54.7229 19.5657 54.7448 19.5748 54.761 19.591C54.7772 19.6071 54.7863 19.6291 54.7863 19.6519V20.4831Z" fill="white"/>
<path d="M50.8766 24.7151C50.9236 24.6632 50.9669 24.6154 51.0068 24.5781C51.0101 24.575 51.014 24.5724 51.0181 24.5706C51.021 24.5693 51.024 24.5683 51.0271 24.5678C51.0347 24.5664 51.0425 24.5672 51.0497 24.5703C51.0568 24.5733 51.0629 24.5783 51.0672 24.5848C51.0715 24.5912 51.0738 24.5988 51.0738 24.6066V25.1536C51.0738 25.1902 51.0883 25.2253 51.1142 25.2512C51.1401 25.2771 51.1752 25.2916 51.2118 25.2916H51.9435C51.9756 25.2916 52.0063 25.2789 52.0289 25.2562C52.0516 25.2336 52.0643 25.2029 52.0643 25.1708V19.6621C52.0643 19.6355 52.0537 19.6099 52.0349 19.5911C52.016 19.5722 51.9905 19.5616 51.9638 19.5616H51.1763C51.1618 19.5616 51.1475 19.5645 51.1341 19.5702C51.1208 19.5758 51.1086 19.584 51.0984 19.5944C51.0882 19.6048 51.0802 19.6171 51.0747 19.6306C51.0693 19.6442 51.0666 19.6587 51.0667 19.6733C51.0863 21.067 51.0809 22.0961 51.0505 22.7605C50.952 24.8684 48.1895 25.2601 48.218 22.8052C48.222 22.4121 48.218 21.3803 48.2058 19.7098C48.2055 19.6683 48.1889 19.6285 48.1596 19.5992C48.1304 19.57 48.0908 19.5535 48.0495 19.5535H47.3888C47.3687 19.5535 47.3488 19.5575 47.3303 19.5652C47.3118 19.5729 47.2949 19.5842 47.2808 19.5985C47.2666 19.6127 47.2555 19.6296 47.2479 19.6482C47.2403 19.6668 47.2364 19.6867 47.2366 19.7068C47.2379 20.0593 47.2383 21.1025 47.2376 22.8366C47.2376 23.317 47.2701 23.6702 47.335 23.8962C47.5806 24.7466 48.1875 25.3017 49.0887 25.386C49.6841 25.4415 50.1892 25.3072 50.6039 24.9831C50.7067 24.9027 50.797 24.803 50.8766 24.7151Z" fill="white"/>
</svg>
