<svg width="87" height="23" viewBox="0 0 87 23" fill="none" xmlns="http://www.w3.org/2000/svg">
<path fill-rule="evenodd" clip-rule="evenodd" d="M0.000401993 11.3761C-0.0522284 5.06984 5.06984 -0.0522284 11.3761 0.000401993C17.5 0.0530322 22.5036 5.05669 22.5544 11.1787C22.6089 17.485 17.485 22.6089 11.1787 22.5544C5.05668 22.5036 0.0530324 17.5 0.000401993 11.3761ZM9.15811 8.94943C9.15811 7.69012 8.7258 6.53033 8.00401 5.61306L4.36872 11.9024H8.27843C8.83476 11.0547 9.15811 10.0397 9.15811 8.94943ZM19.8477 13.4136C19.8966 13.3929 19.9248 13.3478 19.9248 13.2952V12.4832C19.9248 12.4005 19.8439 12.3385 19.7631 12.3611C19.7631 12.3611 15.9004 13.2482 15.8553 13.2614C15.8102 13.2745 15.7933 13.3008 15.7933 13.3008C15.4023 13.8252 14.579 14.6956 14.1204 14.6956H11.9926V13.299H13.6881C13.9305 13.299 14.1618 13.2013 14.329 13.0283C15.1993 12.1261 15.7031 11.0528 15.7031 9.90052C15.7031 7.93629 14.2351 6.19951 11.9926 5.15254V4.21459C11.9926 3.81047 11.6656 3.48341 11.2614 3.48341C10.8573 3.48341 10.5303 3.81047 10.5303 4.21459V4.60369C9.90245 4.41948 9.23702 4.28038 8.54153 4.19955C9.69188 5.44953 10.3949 7.12054 10.3949 8.95317C10.3949 10.596 9.83291 12.1054 8.88931 13.3008H10.5303V14.6993H8.12803C7.80288 14.6993 7.53971 14.4362 7.53971 14.111V13.5001C7.53971 13.3929 7.45324 13.3046 7.34423 13.3046H4.177C4.11497 13.3046 4.06234 13.3554 4.06234 13.4174C4.06046 15.9192 6.03974 17.797 8.4062 17.797H15.0884C16.3053 17.797 17.0109 16.612 17.6912 15.4698C17.9062 15.1087 18.1187 14.7518 18.344 14.4381C18.7086 13.9324 19.5827 13.5264 19.8477 13.4136Z" fill="#040303"/>
<path fill-rule="evenodd" clip-rule="evenodd" d="M29.2585 15.544C30.0051 15.9628 30.8246 16.1723 31.7168 16.1723C32.6091 16.1723 33.4285 15.9628 34.1751 15.544C34.9217 15.1252 35.509 14.547 35.937 13.8095C36.374 13.0629 36.5925 12.2208 36.5925 11.283C36.5925 10.3543 36.374 9.5212 35.937 8.78368C35.509 8.03709 34.9217 7.45442 34.1751 7.0356C33.4377 6.61678 32.6182 6.40737 31.7168 6.40737C30.8246 6.40737 30.0051 6.61678 29.2585 7.0356C28.5119 7.45442 27.9202 8.03709 27.4831 8.78368C27.0461 9.5212 26.8276 10.3543 26.8276 11.283C26.8276 12.2208 27.0461 13.0629 27.4831 13.8095C27.9202 14.547 28.5119 15.1252 29.2585 15.544ZM33.2328 14.0827C32.7958 14.3376 32.2905 14.4651 31.7168 14.4651C31.1433 14.4651 30.6334 14.3376 30.1872 14.0827C29.7502 13.8187 29.4088 13.4453 29.163 12.9628C28.9171 12.4802 28.7942 11.9203 28.7942 11.283C28.7942 10.6456 28.9171 10.0903 29.163 9.61682C29.4088 9.13423 29.7502 8.76547 30.1872 8.51053C30.6334 8.2556 31.1433 8.12813 31.7168 8.12813C32.2905 8.12813 32.7958 8.2556 33.2328 8.51053C33.6698 8.76547 34.0112 9.13423 34.2571 9.61682C34.5029 10.0903 34.6259 10.6456 34.6259 11.283C34.6259 11.9203 34.5029 12.4802 34.2571 12.9628C34.0112 13.4453 33.6698 13.8187 33.2328 14.0827Z" fill="#040303"/>
<path fill-rule="evenodd" clip-rule="evenodd" d="M39.3807 9.60309C39.6265 9.25711 39.9634 8.97033 40.3913 8.74275C40.8284 8.50602 41.3245 8.38762 41.8799 8.38762C42.5263 8.38762 43.1091 8.54694 43.6281 8.86564C44.1561 9.18427 44.5704 9.63951 44.8709 10.2314C45.1805 10.8141 45.3352 11.4924 45.3352 12.2663C45.3352 13.0402 45.1805 13.7276 44.8709 14.3285C44.5704 14.9203 44.1561 15.3801 43.6281 15.7079C43.1091 16.0356 42.5263 16.1995 41.8799 16.1995C41.3245 16.1995 40.8329 16.0857 40.405 15.8581C39.9862 15.6305 39.6447 15.3437 39.3807 14.9977V19.6821H37.4687V8.51052H39.3807V9.60309ZM43.3822 12.2663C43.3822 11.811 43.2867 11.4196 43.0954 11.0918C42.9133 10.7549 42.6675 10.4999 42.358 10.327C42.0575 10.154 41.7297 10.0675 41.3747 10.0675C41.0287 10.0675 40.7009 10.1585 40.3913 10.3406C40.0908 10.5136 39.845 10.7685 39.6538 11.1054C39.4717 11.4423 39.3807 11.8384 39.3807 12.2936C39.3807 12.7489 39.4717 13.1449 39.6538 13.4817C39.845 13.8186 40.0908 14.0782 40.3913 14.2602C40.7009 14.4332 41.0287 14.5197 41.3747 14.5197C41.7297 14.5197 42.0575 14.4286 42.358 14.2465C42.6675 14.0644 42.9133 13.805 43.0954 13.4681C43.2867 13.1313 43.3822 12.7306 43.3822 12.2663Z" fill="#040303"/>
<path fill-rule="evenodd" clip-rule="evenodd" d="M53.5668 12.8672C53.6032 12.6487 53.6214 12.4029 53.6214 12.1297C53.6214 11.3922 53.4621 10.7412 53.1435 10.1767C52.8339 9.60309 52.3923 9.16157 51.8187 8.852C51.2542 8.54244 50.6124 8.38762 49.893 8.38762C49.1465 8.38762 48.4863 8.54694 47.9128 8.86564C47.3391 9.18427 46.893 9.63951 46.5743 10.2314C46.2557 10.8231 46.0964 11.5106 46.0964 12.2936C46.0964 13.0675 46.2557 13.7504 46.5743 14.3422C46.9021 14.934 47.3528 15.3937 47.9264 15.7215C48.5091 16.0402 49.1647 16.1995 49.893 16.1995C50.7945 16.1995 51.5547 15.9674 52.1738 15.503C52.7929 15.0295 53.2118 14.4286 53.4303 13.7002H51.368C51.0676 14.3103 50.5622 14.6153 49.8521 14.6153C49.3604 14.6153 48.9461 14.4606 48.6093 14.151C48.2724 13.8414 48.0812 13.4135 48.0357 12.8672H53.5668ZM51.1085 10.4089C51.4545 10.7002 51.6321 11.0918 51.6412 11.5834H48.0493C48.1221 11.0736 48.318 10.6775 48.6366 10.3952C48.9644 10.1039 49.365 9.95821 49.8384 9.95821C50.3392 9.95821 50.7625 10.1085 51.1085 10.4089Z" fill="#040303"/>
<path d="M58.8001 8.40127C59.7015 8.40127 60.4299 8.68813 60.9852 9.26169C61.5407 9.82619 61.8184 10.6183 61.8184 11.6381V16.0766H59.9064V11.8975C59.9064 11.2966 59.7561 10.8369 59.4556 10.5182C59.1552 10.1904 58.7455 10.0265 58.2265 10.0265C57.6984 10.0265 57.2796 10.1904 56.9701 10.5182C56.6696 10.8369 56.5194 11.2966 56.5194 11.8975V16.0766H54.6074V8.51053H56.5194V9.45293C56.7743 9.12516 57.0975 8.87022 57.489 8.68813C57.8896 8.49689 58.3266 8.40127 58.8001 8.40127Z" fill="#040303"/>
<path d="M64.4424 15.8308C64.9795 16.0584 65.5804 16.1723 66.2451 16.1723C66.9461 16.1723 67.5516 16.0448 68.0615 15.7899C68.5714 15.5258 68.9583 15.1752 69.2223 14.7382C69.4864 14.3012 69.6184 13.8277 69.6184 13.3179C69.6184 12.7261 69.4773 12.2481 69.1951 11.8839C68.9128 11.5197 68.5759 11.2465 68.1844 11.0644C67.7929 10.8824 67.2876 10.7003 66.6684 10.5182C66.2132 10.3816 65.8581 10.2632 65.6032 10.1631C65.3573 10.0539 65.148 9.91724 64.9749 9.75336C64.8111 9.5804 64.7291 9.36638 64.7291 9.11145C64.7291 8.74726 64.8384 8.46962 65.0569 8.27838C65.2845 8.08722 65.585 7.9916 65.9583 7.9916C66.3862 7.9916 66.7276 8.10086 66.9826 8.31937C67.2466 8.52874 67.3877 8.79739 67.406 9.12516H69.5091C69.4454 8.26931 69.104 7.60463 68.4849 7.13119C67.8748 6.64864 67.0782 6.40737 66.0949 6.40737C65.4393 6.40737 64.8566 6.52117 64.3467 6.74879C63.8369 6.96731 63.4408 7.28597 63.1586 7.70482C62.8763 8.12364 62.7352 8.6153 62.7352 9.17979C62.7352 9.78071 62.8718 10.2632 63.1449 10.6274C63.4271 10.9825 63.7595 11.2511 64.1419 11.4332C64.5334 11.6062 65.0387 11.7838 65.6578 11.9659C66.1131 12.0933 66.4681 12.2116 66.7231 12.3209C66.9871 12.4211 67.2057 12.5622 67.3786 12.7443C67.5516 12.9264 67.6381 13.1585 67.6381 13.4408C67.6381 13.7868 67.5106 14.069 67.2557 14.2875C67.0008 14.497 66.6502 14.6017 66.2041 14.6017C65.7671 14.6017 65.4211 14.4878 65.1662 14.2603C64.9203 14.0326 64.7838 13.723 64.7564 13.3316H62.7079C62.717 13.9143 62.8763 14.4196 63.1859 14.8475C63.4955 15.2754 63.9143 15.6032 64.4424 15.8308Z" fill="#040303"/>
<path fill-rule="evenodd" clip-rule="evenodd" d="M77.7634 12.1297C77.7634 12.4029 77.7447 12.6487 77.7087 12.8672H72.1775C72.2229 13.4135 72.4141 13.8414 72.751 14.151C73.0879 14.4606 73.5022 14.6153 73.9938 14.6153C74.704 14.6153 75.2096 14.3103 75.5101 13.7002H77.5724C77.3535 14.4286 76.9346 15.0295 76.3157 15.503C75.6967 15.9674 74.9362 16.1995 74.0348 16.1995C73.3064 16.1995 72.6509 16.0402 72.0682 15.7215C71.4946 15.3937 71.0439 14.934 70.7161 14.3422C70.3974 13.7504 70.2381 13.0675 70.2381 12.2936C70.2381 11.5106 70.3974 10.8231 70.7161 10.2314C71.0347 9.63951 71.4809 9.18427 72.0545 8.86564C72.6281 8.54694 73.2882 8.38762 74.0348 8.38762C74.7541 8.38762 75.3962 8.54244 75.9605 8.852C76.5337 9.16157 76.9759 9.60309 77.2853 10.1767C77.6038 10.7412 77.7634 11.3922 77.7634 12.1297ZM75.7829 11.5834C75.7739 11.0918 75.5963 10.7002 75.2501 10.4089C74.9043 10.1085 74.4809 9.95821 73.9801 9.95821C73.5067 9.95821 73.1061 10.1039 72.7783 10.3952C72.4597 10.6775 72.2639 11.0736 72.1911 11.5834H75.7829Z" fill="#040303"/>
<path fill-rule="evenodd" clip-rule="evenodd" d="M78.8448 10.2314C78.5443 10.8231 78.3937 11.5015 78.3937 12.2663C78.3937 13.0402 78.5443 13.7276 78.8448 14.3285C79.1543 14.9203 79.5687 15.3801 80.0872 15.7079C80.6155 16.0356 81.1985 16.1995 81.8355 16.1995C82.3998 16.1995 82.8966 16.0857 83.3245 15.8581C83.7614 15.6214 84.1023 15.3255 84.3489 14.9704V16.0766H86.274V8.51052H84.3489V9.58945C84.0933 9.24347 83.7524 8.95669 83.3245 8.72903C82.9056 8.50145 82.414 8.38762 81.849 8.38762C81.203 8.38762 80.6155 8.54694 80.0872 8.86564C79.5687 9.18427 79.1543 9.63951 78.8448 10.2314ZM84.0753 11.1054C84.2574 11.4332 84.3489 11.8292 84.3489 12.2936C84.3489 12.7579 84.2574 13.1585 84.0753 13.4954C83.8932 13.8232 83.6475 14.0782 83.338 14.2602C83.0285 14.4332 82.6958 14.5197 82.3406 14.5197C81.9951 14.5197 81.6669 14.4286 81.3574 14.2465C81.0569 14.0644 80.8111 13.805 80.62 13.4681C80.4379 13.1221 80.3473 12.7215 80.3473 12.2663C80.3473 11.811 80.4379 11.4196 80.62 11.0918C80.8111 10.7549 81.0569 10.4999 81.3574 10.327C81.6579 10.154 81.9861 10.0675 82.3406 10.0675C82.6958 10.0675 83.0285 10.1585 83.338 10.3406C83.6475 10.5136 83.8932 10.7685 84.0753 11.1054Z" fill="#040303"/>
</svg>
