<svg width="55" height="45" viewBox="0 0 55 45" fill="none" xmlns="http://www.w3.org/2000/svg">
<rect x="1.10156" width="52" height="45" rx="4.72465" fill="#040303"/>
<path d="M2.24321 19.7579C2.51316 19.7579 2.79211 19.7579 3.06207 19.7579C3.06207 19.9193 3.06207 20.0268 3.06207 20.1433C2.07223 20.1433 1.0914 20.1433 0.101562 20.1433C0.101562 20.0358 0.101562 19.8744 0.101562 19.7579C0.371517 19.7579 0.650471 19.7579 0.920426 19.7579C0.920426 19.6504 0.920426 19.5966 0.920426 19.5429C0.920426 17.9029 0.920426 16.3257 0.920426 14.6857C0.920426 14.5244 0.866435 14.4706 0.704462 14.4706C0.488498 14.4706 0.317527 14.4706 0.101562 14.4706C0.101562 14.3093 0.101562 14.2018 0.101562 14.0315C0.155554 14.0315 0.209544 14.0315 0.263535 14.0315C1.25337 14.0315 2.23421 14.0315 3.27803 14.0315C3.66497 14.0315 4.04291 14.0853 4.37585 14.1928C5.08673 14.4616 5.52766 15.1158 5.47367 15.8865C5.41968 16.6483 4.92476 17.1949 4.15989 17.3562C3.61098 17.4638 3.06207 17.4638 2.57615 17.4638C2.3062 17.4638 2.18921 17.5175 2.18921 17.7326C2.18921 18.333 2.18921 18.8797 2.18921 19.4801C2.24321 19.5429 2.24321 19.6504 2.24321 19.7579ZM2.18921 14.4168C2.18921 15.3399 2.18921 16.2181 2.18921 17.0336C2.57615 17.0336 2.95409 17.0874 3.34102 17.0336C3.83594 16.9798 3.99791 16.7648 4.0519 16.2719C4.0519 15.8865 4.0519 15.5639 4.0519 15.1786C3.99791 14.7932 3.78195 14.5781 3.39501 14.5244C3.00808 14.4706 2.63014 14.4706 2.18921 14.4168ZM12.1596 25.099C12.2675 24.9915 12.4295 24.8302 12.6545 24.6599C12.7085 24.6062 12.8164 24.5524 12.8704 24.6062C12.9244 24.6062 12.9784 24.7675 12.9784 24.8212C12.9784 25.4754 12.9784 26.1296 12.9784 26.7838C12.9784 26.8914 12.9784 26.9989 12.7625 26.9989C12.6005 26.9989 12.4925 26.9989 12.4295 26.7838C12.3755 26.515 12.3215 26.1834 12.1596 25.9145C11.8896 25.3141 11.4487 24.9288 10.7378 24.9915C10.0269 24.9915 9.42401 25.2604 9.03707 25.9773C8.92909 26.1386 8.8751 26.3626 8.82111 26.5777C8.71313 27.447 8.65914 28.3252 8.8751 29.1945C9.09106 30.1175 9.91893 30.6642 10.8998 30.5567C11.7186 30.4491 12.3755 29.7949 12.4295 28.8629C12.4295 28.7016 12.5375 28.6478 12.6995 28.6478C12.8614 28.6478 12.8614 28.7554 12.8614 28.9167C12.8074 29.8397 12.0966 30.6642 11.1607 30.933C10.1709 31.1481 8.64114 30.8793 7.87627 29.6246C7.38135 28.8091 7.27337 27.9309 7.48933 27.0079C7.87627 25.0453 9.84694 24.3911 11.1067 24.7137C11.5027 24.7675 11.8266 24.9377 12.1596 25.099ZM33.567 14.1928C33.567 14.3003 33.567 14.4079 33.567 14.5781C33.351 14.5781 33.18 14.5781 32.9641 14.5781C32.8021 14.5781 32.7481 14.6319 32.7481 14.7932C32.7481 15.3936 32.7481 16.0478 32.7481 16.6483C32.7481 16.7558 32.7481 16.8633 32.9101 16.8633C33.567 16.8633 34.2239 16.8633 34.8808 16.8633C34.8808 16.1016 34.8808 15.3936 34.8808 14.5692C34.6108 14.5692 34.3319 14.5692 34.0619 14.5692C34.0619 14.4079 34.0619 14.3003 34.0619 14.1838C34.9887 14.1838 35.9786 14.1838 36.9054 14.1838C36.9054 14.2914 36.9054 14.3989 36.9054 14.5692C36.6895 14.5692 36.5185 14.5692 36.3025 14.5692C36.1406 14.5692 36.0866 14.623 36.0866 14.7843C36.0866 16.3615 36.0866 18.0015 36.0866 19.5877C36.0866 19.749 36.1406 19.8027 36.3025 19.749C36.4645 19.749 36.6355 19.749 36.7435 19.749C36.9054 19.749 36.9054 19.8565 36.9054 19.9641C36.9054 20.1254 36.8514 20.1254 36.7435 20.1254C35.8706 20.1254 34.9887 20.1254 34.1159 20.1254H34.0619C33.9539 19.74 34.0079 19.74 34.3319 19.74C34.4398 19.74 34.6018 19.74 34.7188 19.74H34.7728C34.7728 19.6862 34.7728 19.6325 34.7728 19.5787C34.7728 18.8707 34.7728 18.2165 34.7728 17.5086C34.7728 17.3473 34.7188 17.2397 34.5028 17.2935C33.9539 17.2935 33.405 17.2935 32.8021 17.2935C32.6401 17.2935 32.5861 17.3473 32.5861 17.5086C32.5861 18.2165 32.5861 18.8707 32.5861 19.5787C32.5861 19.74 32.6401 19.7938 32.8021 19.7938C32.9101 19.7938 33.0181 19.7938 33.0721 19.7938C33.405 19.7938 33.405 19.7938 33.405 20.1791C32.4782 20.1791 31.4883 20.1791 30.5615 20.1791C30.5615 20.0716 30.5615 19.9641 30.5615 19.7938C30.7235 19.7938 30.9484 19.7938 31.1644 19.7938C31.3264 19.7938 31.3804 19.74 31.3804 19.5787C31.3804 18.0015 31.3804 16.4153 31.3804 14.7753C31.3804 14.614 31.3264 14.5602 31.1644 14.5602C31.0024 14.5602 30.7774 14.5602 30.5615 14.5602C30.5615 14.4527 30.5615 14.3451 30.5615 14.1749C31.6503 14.1928 32.5771 14.1928 33.567 14.1928ZM6.57148 17.1412C6.62547 16.1554 6.84144 15.3399 7.61531 14.6319C8.76712 13.5924 11.3947 13.7089 12.0516 15.9403C12.3215 16.8633 12.3215 17.7954 11.8896 18.6646C11.3947 19.7579 10.2429 20.3584 8.98308 20.1881C7.77728 20.0268 6.90443 19.2023 6.67947 18.0104C6.62547 17.7416 6.57148 17.4638 6.57148 17.1412ZM7.93926 17.0874C7.93926 17.419 7.93926 17.7416 7.99325 18.0732C8.04724 18.6736 8.20921 19.1665 8.65014 19.5966C9.09106 20.0357 9.80195 20.0357 10.1799 19.5966C10.3958 19.3278 10.6208 18.9962 10.7288 18.6736C10.9448 17.9119 10.9448 17.1501 10.8368 16.3794C10.7828 15.9941 10.7288 15.6177 10.5668 15.2861C10.3509 14.7932 9.96392 14.4706 9.36102 14.4706C8.81211 14.4706 8.43417 14.8022 8.20921 15.2861C7.88526 15.779 7.93926 16.4332 7.93926 17.0874ZM47.8026 14.5781C47.8026 14.4168 47.8026 14.3631 47.8026 14.1928C47.9106 14.1928 48.0186 14.1928 48.1895 14.1928C48.6305 14.1928 49.1164 14.1928 49.5573 14.1928C49.7733 14.1928 49.9443 14.2466 50.0522 14.4616C50.9251 15.6625 51.8069 16.8633 52.6798 18.0642C52.6798 18.0104 52.6798 18.0642 52.7878 18.118C52.7878 18.0104 52.8418 17.9567 52.8418 17.9029C52.8418 16.9171 52.8418 15.8865 52.8418 14.9008C52.8418 14.6857 52.7878 14.5692 52.5718 14.5692C52.4098 14.5692 52.2479 14.5692 52.0229 14.5154C52.0229 14.4079 52.0229 14.3003 52.0229 14.1301C52.7338 14.1301 53.3907 14.1301 54.1016 14.1301C54.1016 14.2376 54.1016 14.3451 54.1016 14.5154C53.8856 14.5154 53.7776 14.5692 53.6066 14.5692C53.3907 14.5692 53.2737 14.6767 53.2737 14.9545C53.2737 16.5945 53.2737 18.2255 53.2737 19.8655C53.2737 19.973 53.2197 20.1343 53.1117 20.1343C53.0037 20.1343 52.8958 20.0806 52.7788 20.0268C52.7248 20.0268 52.7248 19.973 52.7248 19.9192C51.735 18.5571 50.7541 17.1949 49.7103 15.8328C49.5483 15.5639 49.3234 15.3399 49.1074 15.0173C49.1074 15.1248 49.1074 15.2323 49.1074 15.2861C49.1074 16.6483 49.1074 18.0104 49.1074 19.3726C49.1074 19.6414 49.1614 19.7579 49.4313 19.7579C49.4853 19.7579 49.5393 19.7579 49.5933 19.7579C49.9173 19.7579 49.9173 19.7579 49.9173 20.1433C49.2064 20.1433 48.5495 20.1433 47.8386 20.1433C47.7306 19.8117 47.7306 19.7579 48.1086 19.7579C48.6035 19.7042 48.6035 19.7042 48.6035 19.2113C48.6035 17.7416 48.6035 16.2629 48.6035 14.847C48.6035 14.6319 48.5495 14.5154 48.3335 14.5781C48.1356 14.5781 47.9646 14.5781 47.8026 14.5781ZM22.7238 30.4401C22.9937 30.4401 23.1647 30.4401 23.3807 30.4401C23.5427 30.4401 23.5427 30.5477 23.5427 30.6552C23.5427 30.7628 23.5427 30.8703 23.3807 30.8703C22.5078 30.8703 21.68 30.8703 20.8071 30.8703C20.6451 30.8703 20.6451 30.8165 20.6451 30.6552C20.6451 30.5477 20.6451 30.4401 20.8071 30.4401C21.0231 30.4401 21.194 30.4401 21.464 30.4401C21.464 30.3326 21.464 30.2251 21.464 30.1713C21.464 28.6478 21.464 27.1154 21.464 25.5919C21.464 25.3769 21.41 25.2604 21.194 25.2604C21.0861 25.2604 20.9781 25.2604 20.8611 25.2604C20.6991 25.2604 20.6451 25.2066 20.6451 25.0453C20.6451 24.884 20.6991 24.8302 20.8611 24.8302C21.9049 24.8302 22.9398 24.8302 23.9836 24.8302C24.6405 24.8302 25.2974 25.0453 25.6303 25.6457C26.2332 26.6315 25.6843 27.8234 24.5325 28.0474C24.0376 28.1549 23.4887 28.1549 23.0027 28.1549C22.7868 28.1549 22.7328 28.2087 22.7328 28.4238C22.7238 29.1318 22.7238 29.7322 22.7238 30.4401ZM22.6698 26.515C22.6698 26.9003 22.6698 27.2229 22.6698 27.6083C22.6698 27.7158 22.6698 27.8234 22.8318 27.8234C23.1647 27.8234 23.4887 27.8234 23.8216 27.7696C24.2625 27.7158 24.4785 27.5008 24.4785 27.0616C24.4785 26.6763 24.4785 26.2999 24.4785 25.9145C24.4245 25.4754 24.2625 25.2604 23.8216 25.2066C23.4887 25.1528 23.2187 25.2066 22.8948 25.1528C22.7328 25.1528 22.6788 25.2066 22.6788 25.3679C22.6698 25.807 22.6698 26.1924 22.6698 26.515ZM32.3072 25.3141C31.9742 25.3679 31.5963 25.3679 31.3174 25.4754C31.0474 25.5292 30.8764 25.7443 30.8224 26.0221C30.7684 26.2372 30.7145 26.515 30.7145 26.7301C30.6605 27.0616 30.6605 27.0616 30.2735 26.9989C30.2735 26.8376 30.2735 26.7301 30.2735 26.5598C30.3275 26.0669 30.3815 25.574 30.3815 25.0901C30.3815 24.9825 30.3815 24.875 30.5435 24.875C32.1902 24.875 33.7739 24.875 35.4207 24.875C35.4207 24.875 35.4747 24.875 35.5287 24.9288C35.5826 25.583 35.6366 26.2909 35.6906 26.9451C35.3037 27.0527 35.3037 27.0527 35.2497 26.6763C35.1957 26.515 35.1417 26.3447 35.1417 26.1296C35.0337 25.6367 34.7008 25.3679 34.2149 25.3679C33.9989 25.3679 33.8279 25.3679 33.612 25.3679C33.612 27.0616 33.612 28.7464 33.612 30.4401C33.9989 30.4401 34.3769 30.4401 34.7638 30.4401C34.7638 30.6015 34.7638 30.709 34.7638 30.8255C33.558 30.8255 32.4062 30.8255 31.2004 30.8255C31.2004 30.718 31.2004 30.6104 31.2004 30.4401C31.5873 30.4401 31.9653 30.4401 32.3522 30.4401C32.3072 28.7554 32.3072 27.0616 32.3072 25.3141ZM43.5913 20.1433C42.6645 20.1433 41.7826 20.1433 40.9098 20.1433C40.8018 19.7579 40.8558 19.7579 41.1797 19.7579C41.2877 19.7579 41.3957 19.7579 41.5667 19.7579C41.4047 19.3726 41.2967 18.9962 41.1797 18.6646C41.1797 18.6109 41.0717 18.6109 41.0177 18.6109C40.4688 18.6109 39.9199 18.6109 39.371 18.6109C39.317 18.6109 39.209 18.6646 39.209 18.7184C39.1011 19.05 38.9931 19.3726 38.8761 19.7042C39.0381 19.7042 39.1461 19.7579 39.263 19.7579C39.596 19.7579 39.596 19.8655 39.533 20.1433C38.8761 20.1433 38.2732 20.1433 37.6163 20.1433C37.5623 19.7579 37.5623 19.7579 37.8863 19.7579C38.2192 19.7579 38.3812 19.6504 38.4892 19.3188C39.0381 17.6789 39.641 16.0478 40.2439 14.3541C40.2979 14.1928 40.3518 14.0225 40.5768 14.0225C40.7928 14.0225 40.9098 14.1301 40.9637 14.3541C41.4047 15.6625 41.8906 16.9709 42.3315 18.2793C42.4935 18.7184 42.6645 19.1486 42.7725 19.5877C42.8264 19.749 42.9344 19.8027 43.1054 19.8027C43.1594 19.8027 43.2134 19.8027 43.2674 19.8027C43.6453 19.7579 43.6453 19.7579 43.5913 20.1433ZM41.0717 18.118C40.8018 17.3562 40.5228 16.6483 40.3069 15.8776H40.2529C39.9829 16.5855 39.758 17.3473 39.488 18.0552C39.9739 18.118 40.4688 18.118 41.0717 18.118ZM17.2527 30.4401C17.5227 30.4401 17.7476 30.4401 17.9636 30.4401C17.8016 30.0548 17.6936 29.6784 17.5767 29.3468C17.5767 29.2931 17.4687 29.2393 17.4147 29.2393C16.8658 29.2393 16.3169 29.2393 15.768 29.2393C15.714 29.2393 15.606 29.2931 15.552 29.3468C15.444 29.6784 15.336 29.9473 15.219 30.3326C15.435 30.3864 15.66 30.3864 15.8759 30.4401C15.8759 30.5477 15.8759 30.6552 15.8759 30.8255C15.219 30.8255 14.6161 30.8255 13.9593 30.8255C13.8513 30.4401 13.8513 30.4401 14.2292 30.4401C14.6701 30.4401 14.6701 30.4401 14.8321 30.001C15.435 28.3611 15.9839 26.7301 16.5868 25.0363C16.6408 24.875 16.6948 24.7047 16.9737 24.7047C17.2437 24.7047 17.3067 24.866 17.3607 25.0363C17.9636 26.7301 18.5665 28.4686 19.1694 30.1623C19.2234 30.3774 19.3314 30.4312 19.5563 30.4312C19.6643 30.4312 19.7183 30.4312 19.8263 30.4312C19.9882 30.4312 19.9882 30.5387 19.9882 30.6463C19.9882 30.7538 19.9343 30.8613 19.8263 30.8613C19.0614 30.8613 18.2425 30.8613 17.4687 30.8613C17.1357 30.8255 17.3067 30.6104 17.2527 30.4401ZM15.768 28.8091C16.3169 28.8091 16.8658 28.8091 17.4147 28.8091C17.1447 28.0474 16.8658 27.3394 16.6498 26.5687H16.5958C16.3169 27.3394 16.0469 28.0474 15.768 28.8091ZM38.8761 30.8255C38.8761 30.718 38.8761 30.6104 38.8761 30.4401C39.0921 30.4401 39.317 30.4401 39.587 30.4401C39.425 30.0548 39.317 29.7322 39.2 29.3468C39.2 29.2931 39.0921 29.2393 38.9841 29.2393C38.4352 29.2393 37.9403 29.2393 37.4003 29.2393C37.3464 29.2393 37.2384 29.2931 37.1844 29.4006C37.0764 29.6695 36.9684 30.001 36.8514 30.3864C37.0674 30.4401 37.2924 30.4401 37.5083 30.4939C37.5083 30.6015 37.5083 30.709 37.5083 30.8793C36.8514 30.8793 36.1945 30.8793 35.5916 30.8793C35.4837 30.5477 35.4837 30.4939 35.8616 30.4939C36.3025 30.4939 36.3025 30.4939 36.4645 30.0548C37.0674 28.4148 37.6163 26.7838 38.2192 25.1439C38.2732 24.9825 38.3272 24.8123 38.6061 24.8123C38.8761 24.8123 38.9391 24.9736 38.9931 25.1439C39.596 26.8376 40.1989 28.5761 40.8018 30.2699C40.8558 30.4312 40.9637 30.5387 41.1347 30.485C41.1887 30.485 41.2967 30.485 41.3507 30.485C41.5127 30.485 41.6206 30.485 41.6206 30.7C41.6206 30.9151 41.5127 30.9151 41.3507 30.9151C40.5858 30.9151 39.8209 30.9151 39.1011 30.9151C39.0471 30.8255 38.9931 30.8255 38.8761 30.8255ZM38.2822 26.6225H38.2282C37.9583 27.3305 37.7333 28.0922 37.4633 28.8002C38.0122 28.8002 38.5611 28.8002 39.1101 28.8002C38.7681 28.0474 38.4982 27.3394 38.2822 26.6225ZM21.0771 17.1412C21.572 16.2719 22.0039 15.5012 22.4988 14.6319C22.2829 14.5781 22.1119 14.5781 21.8959 14.5244C21.8959 14.4168 21.8959 14.3093 21.8959 14.139C22.5528 14.139 23.1557 14.139 23.8126 14.139C23.8126 14.2466 23.8126 14.3541 23.8126 14.4706L23.7586 14.5244C23.2097 14.4706 22.9398 14.7395 22.7148 15.1786C22.3279 15.9941 21.8419 16.7558 21.401 17.5265C21.347 17.634 21.293 17.7416 21.293 17.8581C21.293 18.4047 21.293 18.9514 21.293 19.4981C21.293 19.6594 21.347 19.7131 21.509 19.7131C21.617 19.7131 21.725 19.7131 21.7789 19.7131C22.1119 19.7131 22.1119 19.7131 22.0489 20.0985C21.1221 20.0985 20.1862 20.0985 19.2594 20.0985C19.2594 19.9909 19.2594 19.8834 19.2594 19.7131C19.4753 19.7131 19.7003 19.7131 19.8623 19.7131C19.9703 19.7131 20.0782 19.6594 20.0782 19.5518C20.0782 19.0052 20.0782 18.4047 20.0782 17.8581C20.0782 17.7505 20.0242 17.6968 19.9703 17.5892C19.4213 16.6035 18.8724 15.6804 18.3235 14.7574C18.2155 14.6498 18.0536 14.5961 17.9366 14.5961C17.7746 14.5423 17.6036 14.5961 17.4417 14.5961C17.4417 14.4885 17.4417 14.381 17.4417 14.2107C18.3685 14.2107 19.2504 14.2107 20.1772 14.2107C20.1772 14.3183 20.1772 14.4258 20.1772 14.5961C19.9613 14.5961 19.7903 14.5961 19.5203 14.6498C20.0962 15.4474 20.5372 16.2719 21.0771 17.1412ZM29.8416 15.2323C29.8416 15.5639 29.8416 15.8865 29.8416 16.1554C29.8416 16.3167 29.8416 16.4242 29.6256 16.4242C29.4637 16.4242 29.3557 16.3705 29.3557 16.2092C29.3017 15.6625 29.0857 15.1158 28.5908 14.7932C27.7719 14.139 26.4042 14.5781 26.0172 15.6087C25.9093 16.0478 25.8553 16.5318 25.8553 16.9709C25.8553 17.5175 25.9093 18.118 26.0712 18.6646C26.2872 19.4801 27.1151 19.9192 27.9879 19.8655C28.8068 19.7579 29.4097 19.1037 29.4637 18.2882C29.4637 18.1269 29.5177 18.0194 29.7336 18.0194C29.9496 18.0194 29.8956 18.1807 29.8956 18.2882C29.8416 19.1575 29.1847 19.9282 28.2489 20.1971C26.9891 20.5286 25.5133 19.9282 24.8564 18.7811C24.1995 17.5803 24.1995 15.3488 26.0082 14.4168C26.9351 13.9239 27.9789 13.8164 28.9148 14.4706C28.9688 14.5244 29.0767 14.4706 29.1307 14.4706C29.2387 14.3631 29.3467 14.2555 29.5177 14.139C29.5716 14.139 29.6796 14.0315 29.7336 14.0853C29.7876 14.0853 29.8416 14.2466 29.8416 14.3003C29.8416 14.6319 29.8416 14.9008 29.8416 15.2323ZM46.8758 28.4776C46.7678 29.2393 46.7138 29.9473 46.6058 30.718C46.6058 30.7717 46.4438 30.8255 46.3359 30.8255C45.238 30.8255 44.1492 30.8255 43.0514 30.8255C42.8894 30.8255 42.7185 30.8255 42.5565 30.8255C42.2235 30.8255 42.2235 30.8255 42.2865 30.4401C42.5565 30.4401 42.7814 30.4401 43.0514 30.4401C43.0514 30.3326 43.0514 30.2251 43.0514 30.1713C43.0514 28.6478 43.0514 27.0616 43.0514 25.5382C43.0514 25.3231 42.9974 25.2066 42.7814 25.2693C42.7275 25.2693 42.6195 25.2693 42.5655 25.2693C42.1786 25.2693 42.1786 25.2693 42.2955 24.884C43.2854 24.884 44.3202 24.884 45.31 24.884C45.418 25.2693 45.364 25.2693 45.0401 25.2693C44.8241 25.2693 44.5991 25.2693 44.3292 25.2693C44.3292 27.0168 44.3292 28.7016 44.3292 30.3953C45.319 30.6104 46.0839 30.1803 46.2999 29.2483C46.3539 29.087 46.3538 28.9167 46.4078 28.7554C46.4888 28.4238 46.4888 28.37 46.8758 28.4776ZM17.6306 17.7954C17.5227 18.5571 17.4687 19.3726 17.3607 20.1433C15.8849 20.1433 14.4542 20.1433 13.0324 20.1433C13.0324 20.0358 13.0324 19.9282 13.0324 19.7579C13.2484 19.7579 13.4193 19.7579 13.6353 19.7579C13.7973 19.7579 13.8513 19.7042 13.8513 19.5429C13.8513 17.9029 13.8513 16.2719 13.8513 14.6857C13.8513 14.6319 13.8513 14.6319 13.8513 14.5781C13.5813 14.5781 13.3564 14.5781 13.0864 14.5781C13.0864 14.4168 13.0864 14.3093 13.0864 14.1928C14.1302 14.1928 15.1651 14.1928 16.2089 14.1928C16.2089 14.3003 16.2089 14.4079 16.2089 14.5781C15.8759 14.5781 15.552 14.5781 15.1651 14.5781C15.1651 14.6857 15.1651 14.7932 15.1651 14.847C15.1651 16.3705 15.1651 17.9567 15.1651 19.4801C15.1651 19.6952 15.219 19.749 15.435 19.749C16.5328 19.749 17.0187 19.3099 17.2437 18.2255C17.2437 18.1717 17.2977 18.118 17.2977 18.0642C17.1897 17.7416 17.3607 17.7416 17.6306 17.7954ZM26.6111 25.2604C26.6111 25.099 26.6111 24.9915 26.6111 24.875C27.601 24.875 28.5818 24.875 29.5716 24.875C29.5716 24.9825 29.5716 25.0901 29.5716 25.2604C29.3557 25.2604 29.1307 25.2604 28.9148 25.2604C28.8068 25.2604 28.6988 25.3141 28.6988 25.4217C28.6988 27.0616 28.6988 28.6926 28.6988 30.3326C28.6988 30.3864 28.6988 30.3864 28.7528 30.4401C29.0227 30.4401 29.3017 30.4401 29.5716 30.4401C29.5716 30.6015 29.5716 30.709 29.5716 30.8255C28.5818 30.8255 27.601 30.8255 26.6111 30.8255C26.6111 30.718 26.6111 30.6104 26.6111 30.4401C26.8271 30.4401 27.0521 30.4401 27.268 30.4401C27.43 30.4401 27.43 30.3864 27.43 30.2788C27.43 28.7016 27.43 27.0616 27.43 25.4754C27.43 25.3141 27.376 25.2604 27.214 25.2604C27.0521 25.2604 26.8361 25.2604 26.6111 25.2604ZM44.2482 14.5781C44.2482 14.4168 44.2482 14.3093 44.2482 14.1928C44.3562 14.1928 44.4642 14.1928 44.5182 14.1928C45.283 14.1928 46.1019 14.1928 46.8758 14.1928C47.1997 14.139 47.1997 14.139 47.1997 14.5781C47.0917 14.5781 46.9298 14.5781 46.7588 14.5781C46.6508 14.5781 46.4888 14.5781 46.3179 14.5781C46.3179 14.6857 46.3179 14.7932 46.3179 14.847C46.3179 16.3705 46.3179 17.9029 46.3179 19.4801C46.3179 19.749 46.3718 19.8117 46.6508 19.749C46.7048 19.749 46.8128 19.749 46.8668 19.749C47.1907 19.749 47.1907 19.749 47.1907 20.1343C46.2009 20.1343 45.22 20.1343 44.2302 20.1343C44.1762 19.749 44.1762 19.749 44.5631 19.749C45.1121 19.749 45.1121 19.749 45.1121 19.2023C45.1121 17.7326 45.1121 16.254 45.1121 14.838C45.1121 14.623 45.0581 14.5065 44.8421 14.5692C44.6261 14.5781 44.4102 14.5781 44.2482 14.5781Z" fill="white" stroke="white" stroke-width="0.2" stroke-miterlimit="2.61313"/>
</svg>
