<svg width="93" height="22" viewBox="0 0 93 22" fill="none" xmlns="http://www.w3.org/2000/svg">
<path d="M21.8429 0.158907C21.8429 0.0709896 21.772 0 21.684 0H14.5621L10.9215 3.64067L7.2808 0H0.158907C0.0709896 0 0 0.0709896 0 0.158907V7.2808L3.64067 10.9215L0 14.5621V21.684C0 21.772 0.0709896 21.8429 0.158907 21.8429H7.2808L10.9215 18.2023L14.5621 21.8429H21.684C21.772 21.8429 21.8429 21.772 21.8429 21.684V14.5621L18.2023 10.9215L21.8429 7.2808V0.158907Z" fill="url(#paint0_linear_61_6311)"/>
<path d="M28.0389 16.6947L31.1395 12.277L28.1198 7.98863H30.701L32.5681 10.7823L34.3701 7.98863H37.0169L34.013 12.2928L37.0978 16.6947H34.5165L32.6008 13.7388L30.6688 16.6947H28.0389ZM43.4562 16.9546C40.4687 16.9546 38.7152 15.3628 38.5367 12.894L41.0208 12.7804C41.2157 14.1445 41.9949 14.9079 43.4885 14.9079C44.7062 14.9079 45.4205 14.4531 45.4205 13.5761C45.4205 12.7804 45.0147 12.3092 42.8556 11.8221C39.9008 11.1559 38.7638 10.3438 38.7638 8.37853C38.7638 6.31601 40.3715 4.90277 43.0827 4.90277C45.9398 4.90277 47.4824 6.52679 47.726 8.80119L45.2583 8.93061C45.1283 7.7287 44.3649 6.94946 43.05 6.94946C41.93 6.94946 41.2479 7.48515 41.2479 8.29717C41.2479 9.15832 41.7836 9.51546 43.6506 9.90535C46.849 10.5552 47.9046 11.7085 47.9046 13.4625C47.9046 15.6227 46.1833 16.9546 43.4562 16.9546ZM53.0546 16.6947C51.252 16.6947 50.4405 15.8991 50.4405 14.0795V9.80815H49.0442V7.98863H50.4405V5.94249H52.8755V7.98863H55.1652V9.80815H52.8755V13.7874C52.8755 14.6322 53.2331 14.8757 53.9474 14.8757H55.1652V16.6947H53.0546ZM60.4025 16.8896C57.7404 16.8896 55.987 15.1029 55.987 12.3419C55.987 9.59682 57.7404 7.79369 60.4025 7.79369C63.0657 7.79369 64.8192 9.59682 64.8192 12.3419C64.8192 15.1029 63.0657 16.8896 60.4025 16.8896ZM60.4025 15.0215C61.6208 15.0215 62.3187 14.0309 62.3187 12.3419C62.3187 10.6524 61.6208 9.6618 60.4025 9.6618C59.1859 9.6618 58.4869 10.6524 58.4869 12.3419C58.4869 14.0309 59.1859 15.0215 60.4025 15.0215ZM70.2799 16.8896C67.6014 16.8896 65.8649 15.0865 65.8649 12.3419C65.8649 9.59682 67.6014 7.79369 70.2799 7.79369C72.6024 7.79369 74.2739 9.06058 74.5344 11.205L72.0175 11.3186C71.8712 10.2466 71.2061 9.67819 70.2799 9.67819C69.0633 9.67819 68.3643 10.6524 68.3643 12.3419C68.3643 14.0309 69.0633 15.0215 70.2799 15.0215C71.2225 15.0215 71.8876 14.4694 72.0175 13.2839L74.5344 13.3811C74.2903 15.525 72.651 16.8896 70.2799 16.8896ZM75.8799 16.6947V5.1627H78.3149V11.5621L81.546 7.98863H84.468L81.0911 11.5785L84.5663 16.6947H81.9026L79.5168 12.959L78.3149 14.2423V16.6947H75.8799ZM88.936 16.8896C86.2417 16.8896 84.877 15.655 84.7476 13.9496L87.2148 13.8688C87.3611 14.6966 87.8804 15.1679 88.936 15.1679C89.8124 15.1679 90.3159 14.8916 90.3159 14.3073C90.3159 13.771 90.0402 13.5111 88.5466 13.2675C85.7862 12.8126 84.9589 12.0984 84.9589 10.5874C84.9589 8.91477 86.2575 7.79369 88.8224 7.79369C91.2737 7.79369 92.5406 9.04474 92.7678 10.7823L90.3159 10.8801C90.2023 10.0353 89.6666 9.51546 88.8066 9.51546C87.9296 9.51546 87.4583 9.90535 87.4583 10.4902C87.4583 11.1236 87.8804 11.3836 89.0823 11.5621C91.875 11.9679 92.8328 12.7477 92.8328 14.2581C92.8328 15.9477 91.306 16.8896 88.936 16.8896Z" fill="black"/>
<defs>
<linearGradient id="paint0_linear_61_6311" x1="0" y1="21.8429" x2="21.8429" y2="0" gradientUnits="userSpaceOnUse">
<stop/>
<stop offset="1"/>
</linearGradient>
</defs>
</svg>
