<svg width="92" height="14" viewBox="0 0 92 14" fill="none" xmlns="http://www.w3.org/2000/svg">
<path d="M15.1846 10.7636L12.6647 13.4656C12.6102 13.5242 12.5442 13.5711 12.4708 13.6031C12.3974 13.6352 12.3182 13.6518 12.2381 13.6518H0.292779C0.235807 13.6518 0.18008 13.6352 0.132421 13.6039C0.0847631 13.5727 0.0472435 13.5283 0.0244549 13.4761C0.00166642 13.4239 -0.00540123 13.3661 0.00411805 13.31C0.0136373 13.2538 0.0393283 13.2016 0.0780482 13.1598L2.5951 10.4579C2.6496 10.3992 2.7156 10.3524 2.78901 10.3203C2.8624 10.2883 2.94162 10.2717 3.02171 10.2716H14.967C15.0245 10.2704 15.0811 10.2863 15.1296 10.3172C15.1781 10.348 15.2165 10.3926 15.2396 10.4452C15.263 10.4978 15.2701 10.5561 15.2603 10.6127C15.2504 10.6694 15.2241 10.7219 15.1846 10.7636Z" fill="#040303"/>
<path d="M12.6647 5.32141C12.61 5.26299 12.5439 5.21635 12.4706 5.18431C12.3973 5.15228 12.3181 5.13554 12.2381 5.13513H0.292779C0.235807 5.13516 0.18008 5.1518 0.132421 5.18303C0.0847631 5.21424 0.0472435 5.25868 0.0244549 5.3109C0.00166642 5.36312 -0.00540123 5.42084 0.00411805 5.47701C0.0136373 5.53318 0.0393283 5.58537 0.0780482 5.62716L2.5951 8.3305C2.6498 8.38892 2.71586 8.43556 2.78921 8.4676C2.86256 8.49963 2.94168 8.51637 3.02171 8.51678H14.967C15.0239 8.51648 15.0794 8.49963 15.1269 8.46832C15.1744 8.43699 15.2116 8.39253 15.2342 8.34037C15.2568 8.28821 15.2638 8.23059 15.2541 8.17455C15.2446 8.1185 15.219 8.06645 15.1803 8.02476L12.6647 5.32141Z" fill="#040303"/>
<path d="M0.292779 3.38029H12.2381C12.3182 3.38022 12.3974 3.36363 12.4708 3.33157C12.5442 3.29954 12.6102 3.25269 12.6647 3.194L15.1846 0.492095C15.2241 0.450361 15.2504 0.397857 15.2603 0.341189C15.2701 0.284521 15.263 0.226221 15.2396 0.173625C15.2165 0.121029 15.1781 0.0764864 15.1296 0.0456031C15.0811 0.0147197 15.0245 -0.00112527 14.967 6.21729e-05H3.02171C2.94162 0.000146478 2.8624 0.0167313 2.78901 0.0487826C2.7156 0.0808337 2.6496 0.127664 2.5951 0.186352L0.0780482 2.88826C0.0393283 2.93006 0.0136373 2.98225 0.00411805 3.03842C-0.00540123 3.09459 0.00166642 3.15231 0.0244549 3.20453C0.0472435 3.25675 0.0847631 3.30119 0.132421 3.3324C0.18008 3.36363 0.235807 3.38027 0.292779 3.38029Z" fill="#040303"/>
<path d="M29.7479 5.7736H23.3571V3.66895H31.4088V1.5643H23.3358C23.0599 1.5628 22.7866 1.61565 22.5312 1.71981C22.2758 1.82399 22.0433 1.97745 21.8473 2.17143C21.6512 2.36541 21.4952 2.59613 21.3883 2.85038C21.2813 3.10464 21.2254 3.37748 21.224 3.6533V5.7864C21.2252 6.06246 21.2806 6.33561 21.3874 6.59019C21.4942 6.84478 21.6501 7.07582 21.8462 7.2701C22.0424 7.4644 22.2749 7.61811 22.5305 7.72246C22.786 7.82681 23.0598 7.87975 23.3358 7.87825H29.7351V9.9829H21.3762V12.0875H29.7479C30.0237 12.0891 30.2971 12.0362 30.5525 11.932C30.8079 11.8279 31.0404 11.6744 31.2363 11.4804C31.4324 11.2864 31.5884 11.0557 31.6954 10.8015C31.8023 10.5472 31.8582 10.2744 31.8596 9.99854V7.86545C31.8585 7.58938 31.803 7.31625 31.6962 7.06166C31.5894 6.80707 31.4336 6.57602 31.2375 6.38174C31.0412 6.18746 30.8087 6.03375 30.5532 5.9294C30.2976 5.82505 30.0239 5.7721 29.7479 5.7736Z" fill="#040303"/>
<path fill-rule="evenodd" clip-rule="evenodd" d="M35.7134 1.56427H42.1283C42.4042 1.56277 42.6775 1.61562 42.9329 1.71978C43.1883 1.82396 43.4208 1.97742 43.6168 2.1714C43.8129 2.36538 43.9689 2.5961 44.0758 2.85035C44.1828 3.10461 44.2387 3.37745 44.2401 3.65327V9.99851C44.2387 10.2743 44.1828 10.5472 44.0758 10.8014C43.9689 11.0557 43.8129 11.2864 43.6168 11.4804C43.4208 11.6744 43.1883 11.8278 42.9329 11.932C42.6775 12.0362 42.4042 12.089 42.1283 12.0875H35.7134C35.4371 12.0898 35.1631 12.0375 34.9069 11.9336C34.651 11.8298 34.4179 11.6765 34.2212 11.4824C34.0244 11.2883 33.868 11.0574 33.7608 10.8028C33.6534 10.5481 33.5974 10.2748 33.596 9.99851V3.65327C33.5974 3.37697 33.6534 3.10366 33.7608 2.84903C33.868 2.59439 34.0244 2.36344 34.2212 2.16938C34.4179 1.97531 34.651 1.82199 34.9069 1.71815C35.1631 1.61431 35.4371 1.56202 35.7134 1.56427ZM35.729 9.98287H42.1127L42.1098 3.66892H35.729V9.98287Z" fill="#040303"/>
<path fill-rule="evenodd" clip-rule="evenodd" d="M64.5969 1.56428H58.3398C58.0639 1.56279 57.7906 1.61563 57.5352 1.7198C57.2798 1.82398 57.0473 1.97743 56.8513 2.17142C56.6552 2.3654 56.4992 2.59611 56.3923 2.85037C56.2853 3.10463 56.2295 3.37747 56.228 3.65329V12.0875H58.3611V8.6305H64.5898V12.0875H66.7228V3.65329C66.7214 3.37626 66.6651 3.10226 66.5573 2.84705C66.4494 2.59186 66.2923 2.36052 66.0946 2.16634C65.8971 1.97217 65.663 1.81902 65.4059 1.71569C65.1488 1.61236 64.8739 1.56091 64.5969 1.56428ZM64.5812 6.52585H58.3526V3.66893H64.5812V6.52585Z" fill="#040303"/>
<path fill-rule="evenodd" clip-rule="evenodd" d="M83.2472 1.5643H89.5043C89.7801 1.5628 90.0535 1.61565 90.3089 1.71981C90.5642 1.82399 90.7966 1.97745 90.9927 2.17143C91.1888 2.36541 91.3448 2.59613 91.4518 2.85038C91.5587 3.10464 91.6146 3.37748 91.616 3.6533V12.0875H89.4829V8.63052H83.2685V12.0875H81.1354V3.6533C81.1368 3.37748 81.1927 3.10464 81.2997 2.85038C81.4066 2.59613 81.5626 2.36541 81.7587 2.17143C81.9548 1.97745 82.1872 1.82399 82.4426 1.71981C82.698 1.61565 82.9713 1.5628 83.2472 1.5643ZM83.2543 6.52587H89.4829V3.66895H83.2543V6.52587Z" fill="#040303"/>
<path d="M77.111 9.98288H76.2577L73.2074 2.44596C73.1029 2.18594 72.923 1.96309 72.6909 1.80601C72.4588 1.64891 72.1851 1.56474 71.9048 1.56428H70.012C69.828 1.56334 69.6457 1.59865 69.4755 1.66818C69.3051 1.73772 69.1503 1.84011 69.0194 1.96951C68.8888 2.09894 68.7848 2.25282 68.7136 2.42241C68.6423 2.59199 68.6052 2.77396 68.6042 2.9579V12.0875H70.7373V3.66893H71.5905L74.6394 11.2059C74.7457 11.4654 74.927 11.6873 75.16 11.8434C75.393 11.9994 75.6673 12.0824 75.9477 12.0818H77.8405C78.0245 12.0828 78.2068 12.0475 78.377 11.978C78.5474 11.9084 78.7023 11.806 78.8331 11.6766C78.9638 11.5472 79.0677 11.3933 79.139 11.2237C79.2102 11.0541 79.2473 10.8722 79.2483 10.6882V1.56428H77.111V9.98288Z" fill="#040303"/>
<path d="M46.1243 1.56427H48.2573V9.98287H54.6424V12.0875H48.2431C47.9667 12.0899 47.6925 12.0378 47.4362 11.934C47.1801 11.8303 46.9468 11.677 46.75 11.4829C46.5532 11.2888 46.3966 11.0578 46.2892 10.8031C46.1818 10.5484 46.1257 10.2749 46.1243 9.99851V1.56427Z" fill="#040303"/>
</svg>
