<svg width="47" height="26" viewBox="0 0 47 26" fill="none" xmlns="http://www.w3.org/2000/svg">
<path d="M13.1494 5.96776C15.9967 3.09784 19.7848 1.51766 23.816 1.51766C27.8393 1.51766 31.6229 3.09441 34.4679 5.95747C36.095 7.59481 37.3028 9.53972 38.0402 11.663C38.072 11.7545 38.156 11.8151 38.2526 11.8151H39.3707C39.5229 11.8151 39.6331 11.6664 39.5854 11.5201C38.7889 9.04463 37.4152 6.77728 35.5348 4.88382C32.4057 1.73377 28.2438 0 23.8183 0C19.3848 0 15.215 1.73834 12.0825 4.89525C10.2055 6.78643 8.83632 9.05034 8.04211 11.5201C7.99553 11.6664 8.1046 11.8151 8.25799 11.8151H9.37603C9.4726 11.8151 9.55668 11.7533 9.5885 11.663C10.3225 9.54543 11.5269 7.60282 13.1494 5.96776Z" fill="white"/>
<path d="M1.96814 21.6853C1.7864 21.6853 1.67949 21.6088 1.6201 21.4247C0.905022 19.4285 0.420384 17.4454 0.0117673 15.4491C-0.0345584 15.2495 0.0569053 15.1108 0.268341 15.1108H1.25544C1.43836 15.1108 1.55834 15.2029 1.59041 15.3714C1.84698 16.7855 2.15225 18.2439 2.56206 19.6735L3.74514 15.3714C3.79028 15.2029 3.91144 15.1108 4.09318 15.1108H5.4295C5.61124 15.1108 5.7324 15.2029 5.77753 15.3714L6.96062 19.6735C7.37042 18.2451 7.6757 16.7855 7.93228 15.3714C7.96198 15.2029 8.08551 15.1108 8.26725 15.1108H9.25434C9.46578 15.1108 9.55606 15.2483 9.51092 15.4491C9.1023 17.4454 8.61766 19.4285 7.90259 21.4247C7.84081 21.6088 7.73629 21.6853 7.55455 21.6853H6.44272C6.27642 21.6853 6.13982 21.6088 6.09469 21.4247L4.75956 16.6923L3.42443 21.4247C3.37929 21.6088 3.24269 21.6853 3.07639 21.6853H1.96814Z" fill="white"/>
<path fill-rule="evenodd" clip-rule="evenodd" d="M13.181 14.8945C11.3291 14.8945 10.0391 16.2465 10.0391 18.2893C10.0391 20.3322 11.3291 21.6842 13.181 21.6842C15.0328 21.6842 16.3228 20.3167 16.3228 18.2893C16.3228 16.262 15.0328 14.8945 13.181 14.8945ZM14.6824 18.4722C14.6824 19.8242 14.0908 20.5928 13.181 20.5928C12.2711 20.5928 11.6795 19.8242 11.6795 18.4722V18.1041C11.6795 16.7521 12.2711 15.9835 13.181 15.9835C14.0908 15.9835 14.6824 16.7521 14.6824 18.1041V18.4722Z" fill="white"/>
<path d="M18.39 15.939C18.7238 15.3999 19.3153 15.0317 19.9983 15.0317C20.2561 15.0317 20.4829 15.0939 20.6659 15.2326C20.7276 15.2792 20.7728 15.3413 20.7728 15.4334V16.3407C20.7728 16.5546 20.6825 16.6168 20.4544 16.5247C20.2691 16.4458 20.0874 16.416 19.876 16.416C18.9518 16.416 18.4197 17.077 18.4197 18.0309L18.4209 21.3803C18.4209 21.5775 18.3163 21.6839 18.118 21.6839H17.1439C16.9479 21.6839 16.841 21.5787 16.841 21.3779L16.8398 15.4166C16.8398 15.2194 16.9444 15.1106 17.1427 15.1106H17.9481C18.1465 15.1106 18.2534 15.2182 18.2831 15.3868L18.39 15.939Z" fill="white"/>
<path d="M26.7482 21.3182C26.0818 19.9364 25.444 18.9837 24.5483 18.1075L26.6437 15.4957C26.7957 15.2793 26.7209 15.1107 26.4774 15.1107H25.3858C25.2337 15.1107 25.0971 15.1705 25.0056 15.2793L22.8806 18.0131V12.4535C22.8806 12.2526 22.7737 12.145 22.5753 12.145H21.6037C21.4077 12.145 21.3008 12.2538 21.3008 12.4535V21.3792C21.3008 21.5776 21.4053 21.6852 21.6037 21.6852H22.5753C22.7713 21.6852 22.8782 21.5788 22.8782 21.3792L22.8806 18.3693C23.8214 19.2897 24.4735 20.2723 25.0187 21.5011C25.0805 21.6099 25.2301 21.6852 25.3822 21.6852H26.5807C26.823 21.6864 26.8694 21.5645 26.7482 21.3182Z" fill="white"/>
<path fill-rule="evenodd" clip-rule="evenodd" d="M33.074 12.0366H32.1024C31.9064 12.0366 31.7995 12.1454 31.7995 12.345V15.7554C31.4218 15.2008 30.8148 14.8935 30.07 14.8935C28.3548 14.8935 27.332 16.1391 27.332 18.2908C27.332 20.4412 28.3488 21.6856 30.0641 21.6856C30.8243 21.6856 31.4455 21.3628 31.8256 20.8106L31.9325 21.3007C31.9646 21.4847 32.0846 21.5768 32.2675 21.5768H33.0728C33.2688 21.5768 33.3757 21.4704 33.3757 21.2708V12.345C33.3769 12.1442 33.2724 12.0366 33.074 12.0366ZM30.3848 20.4998C29.5367 20.4998 28.9736 19.779 28.9736 18.4736V18.1055C28.9736 16.8025 29.5331 16.0793 30.3848 16.0793C31.3398 16.0793 31.8268 16.7703 31.8268 18.2919C31.8268 19.8136 31.341 20.4998 30.3848 20.4998Z" fill="white"/>
<path fill-rule="evenodd" clip-rule="evenodd" d="M34.1151 16.7366C34.3586 15.601 35.3897 14.8945 36.7414 14.8945C38.4721 14.8945 39.3369 15.8018 39.338 17.3821V21.2694C39.338 21.4666 39.2335 21.5754 39.0351 21.5754H38.2298C38.0469 21.5754 37.9245 21.4833 37.8948 21.2993L37.8034 20.8092C37.4256 21.3614 36.802 21.6842 36.0287 21.6842C34.7387 21.6842 33.8906 20.9132 33.8906 19.7154C33.8906 18.318 34.8623 17.5972 36.9125 17.5972H37.7606V17.351C37.7606 16.5059 37.4102 16.0755 36.7438 16.0755C36.2117 16.0755 35.9088 16.3062 35.7567 16.7987C35.695 16.9996 35.588 17.0749 35.4217 17.0749H34.3883C34.1769 17.0749 34.07 16.9374 34.1151 16.7366ZM36.4706 20.5008C37.2439 20.5008 37.7606 20.0274 37.7606 18.8894V18.6742H36.9707C36.0133 18.6742 35.5298 18.997 35.5287 19.6568C35.5298 20.1792 35.9088 20.5008 36.4706 20.5008Z" fill="white"/>
<path d="M42.3941 22.521C41.3483 20.7199 40.4445 18.4067 39.8743 15.961C39.8257 15.7281 39.9407 15.5969 40.1696 15.5982H41.232C41.4276 15.5982 41.5593 15.6972 41.5912 15.8953C41.9338 17.6154 42.4733 19.2854 43.1586 20.6735C43.7633 19.1516 44.3194 17.5653 44.6135 15.8953C44.6467 15.6972 44.7771 15.5982 44.9727 15.5982H46.067C46.2946 15.5982 46.4097 15.7474 46.3432 15.9777C45.5915 19.0036 44.5137 21.6307 43.583 23.648C42.9783 24.9538 42.2752 25.4672 41.0019 25.4672C40.7577 25.4672 40.4981 25.417 40.2846 25.3681C40.089 25.3192 40.0085 25.1854 40.0085 25.004V24.2102C40.0085 23.9786 40.1415 23.895 40.369 23.9619C40.5646 24.0108 40.7602 24.043 40.9392 24.043C41.6909 24.043 41.953 23.5477 42.3941 22.521Z" fill="white"/>
</svg>
