<svg width="49" height="11" viewBox="0 0 49 11" fill="none" xmlns="http://www.w3.org/2000/svg">
<path d="M9.9097 5.32562L10.4785 3.96776V2.557H8.58259L9.04794 1.41076V0H3.84289L1.05078 6.89509V8.20004H2.96389L2.46407 9.43446V10.6689H8.46194L11.6677 6.43659V5.34325H9.9097V5.32562ZM10.0131 3.87959L9.40988 5.34325H6.84183L3.73948 9.45209H2.98113L5.56642 3.0684H10.0131V3.87959ZM4.15313 0.493766H8.58259V1.30495L8.06553 2.53937L5.25618 2.557L2.30895 6.91272H1.56784L4.15313 0.493766Z" fill="white"/>
<path d="M32.7432 1.78125L31.485 5.39632C31.4161 5.60794 31.3644 5.81955 31.3644 6.0488V7.0716H30.6405V6.0488C30.6373 5.82583 30.5964 5.6051 30.5199 5.39632L29.2789 1.79888H27.2969V1.97523L29.7098 8.0944H30.4165L30.089 8.97613H27.9863V10.669H30.02C30.3827 10.6685 30.737 10.5575 31.0378 10.3502C31.3386 10.1429 31.5723 9.84878 31.7091 9.50516L34.6736 1.99286V1.78125H32.7432Z" fill="white"/>
<path d="M39.3616 1.76465C38.4998 1.76465 37.9311 2.59347 37.6381 3.4752H36.828C36.828 3.4752 37.5174 2.59347 37.5864 1.78228H35.7422V8.73028H37.6381V5.1152C37.6381 3.88079 38.1551 3.35175 39.2065 3.35175H40.1889V1.76465H39.3616Z" fill="white"/>
<path d="M47.6134 5.00887C47.6134 2.8751 46.3725 1.62305 44.3042 1.62305C42.5807 1.62305 41.3225 2.45187 40.9434 4.09188C40.9221 4.17056 40.9189 4.25321 40.934 4.33337C40.9492 4.41353 40.9823 4.48901 41.0307 4.55391C41.0791 4.61881 41.1415 4.67136 41.2131 4.70746C41.2846 4.74356 41.3634 4.76222 41.4432 4.76199H42.2705V5.50264H41.3915C41.3157 5.50155 41.2406 5.51753 41.1715 5.54945C41.1024 5.58137 41.041 5.62844 40.9917 5.68733C40.9423 5.74622 40.9063 5.81549 40.886 5.89024C40.8657 5.96498 40.8618 6.04337 40.8744 6.11984C41.1847 7.97147 42.4773 8.88846 44.3215 8.88846C46.4414 8.88846 47.2687 7.65405 47.4928 6.70178V6.52544H45.8382C45.7348 6.93103 45.3211 7.46007 44.287 7.46007C43.2529 7.46007 42.6669 6.75469 42.6324 5.80242H47.6307V5.00887H47.6134ZM42.6669 4.47984C42.7358 3.70392 43.2701 3.05144 44.287 3.05144C45.3211 3.05144 45.8382 3.68628 45.8382 4.4622H42.6669V4.47984Z" fill="white"/>
<path d="M24.6424 1.78125L23.953 5.0789L23.9186 5.50213V7.08923H23.1774V5.5903C23.1774 5.41396 23.1602 5.23761 23.1085 5.06127L22.2123 1.78125H20.3853L19.5063 5.026C19.4546 5.20234 19.4374 5.37869 19.4374 5.55503V7.0716H18.6963V5.51976C18.6963 5.37869 18.6963 5.25525 18.6618 5.11417L17.9724 1.78125H16.0938V1.99286L17.8173 8.72924H19.9027L20.8162 5.39632C20.8679 5.21998 20.9024 5.04363 20.9024 4.86729V3.45653H21.6263V4.86729C21.6263 5.04363 21.6607 5.21998 21.6952 5.39632L22.6259 8.74688H24.7114L26.4349 1.99286V1.78125H24.6252H24.6424Z" fill="white"/>
</svg>
